<svg width="30" height="23" viewBox="0 0 30 23" fill="none" xmlns="http://www.w3.org/2000/svg">
<path d="M4.5 4.49976V2.99976C4.5 1.89519 5.39543 0.999756 6.5 0.999756H12.7759C13.2438 0.999756 13.6968 1.16379 14.0563 1.46331L15.9437 3.0362C16.3032 3.33572 16.7562 3.49976 17.2241 3.49976H26.5C27.6046 3.49976 28.5 4.39519 28.5 5.49976V16.4998C28.5 17.6043 27.6046 18.4998 26.5 18.4998H25" stroke="#5A5A5A" stroke-width="1.8" stroke-linecap="round" stroke-linejoin="round"/>
<path d="M1 19.9998V6.49976C1 5.39519 1.89543 4.49976 3 4.49976H9.2759C9.74377 4.49976 10.1968 4.66379 10.5563 4.96331L12.4437 6.5362C12.8032 6.83572 13.2562 6.99976 13.7241 6.99976H23C24.1046 6.99976 25 7.89519 25 8.99976V19.9998C25 21.1043 24.1046 21.9998 23 21.9998H3C1.89543 21.9998 1 21.1043 1 19.9998Z" stroke="#5A5A5A" stroke-width="1.8" stroke-linecap="round" stroke-linejoin="round"/>
</svg>
