<svg width="26" height="26" viewBox="0 0 26 26" fill="none" xmlns="http://www.w3.org/2000/svg">
<path d="M1.87891 11.6458C1.4304 11.6458 1.06641 11.2818 1.06641 10.8333C1.06641 7.28871 2.44662 3.9552 4.95335 1.44946C5.27074 1.13208 5.78549 1.13208 6.10287 1.44946C6.42026 1.76685 6.42026 2.2816 6.10287 2.59898C3.90262 4.79805 2.69141 7.72194 2.69141 10.8333C2.69141 11.2818 2.32741 11.6458 1.87891 11.6458Z" fill="#5A5A5A"/>
<path d="M12.9834 26C10.7431 26 8.9209 24.1778 8.9209 21.9375C8.9209 21.489 9.2849 21.125 9.7334 21.125C10.1819 21.125 10.5459 21.489 10.5459 21.9375C10.5459 23.282 11.6389 24.375 12.9834 24.375C14.3277 24.375 15.4209 23.282 15.4209 21.9375C15.4209 21.489 15.7849 21.125 16.2334 21.125C16.6819 21.125 17.0459 21.489 17.0459 21.9375C17.0459 24.1778 15.2237 26 12.9834 26Z" fill="#5A5A5A"/>
<path d="M21.9204 22.75H4.04538C2.9998 22.75 2.14941 21.8996 2.14941 20.8542C2.14941 20.2994 2.39102 19.7741 2.81255 19.4133C4.46016 18.0212 5.39941 15.9977 5.39941 13.8538V10.8333C5.39941 6.65175 8.80116 3.25 12.9829 3.25C17.1644 3.25 20.5661 6.65175 20.5661 10.8333V13.8538C20.5661 15.9977 21.5054 18.0212 23.1423 19.4058C23.5745 19.7741 23.8161 20.2994 23.8161 20.8542C23.8161 21.8996 22.9658 22.75 21.9204 22.75ZM12.9829 4.875C9.69698 4.875 7.02441 7.54756 7.02441 10.8333V13.8538C7.02441 16.4763 5.87509 18.9529 3.87201 20.6461C3.83412 20.6787 3.77441 20.7459 3.77441 20.8542C3.77441 21.0014 3.89799 21.125 4.04538 21.125H21.9204C22.0676 21.125 22.1911 21.0014 22.1911 20.8542C22.1911 20.7459 22.1316 20.6787 22.0957 20.6483C20.0905 18.9529 18.9411 16.4763 18.9411 13.8538V10.8333C18.9411 7.54756 16.2686 4.875 12.9829 4.875Z" fill="#5A5A5A"/>
<path d="M12.9834 4.875C12.5349 4.875 12.1709 4.511 12.1709 4.0625V0.8125C12.1709 0.363998 12.5349 0 12.9834 0C13.4319 0 13.7959 0.363998 13.7959 0.8125V4.0625C13.7959 4.511 13.4319 4.875 12.9834 4.875Z" fill="#5A5A5A"/>
</svg>
