<svg width="24" height="22" viewBox="0 0 24 22" fill="none" xmlns="http://www.w3.org/2000/svg">
<path d="M3.80078 4.33331V3C3.80078 1.89543 4.69621 1 5.80078 1H10.177C10.7046 1 11.2109 1.20853 11.5855 1.58016L12.8159 2.80077C13.1905 3.1724 13.6968 3.38093 14.2245 3.38093H21.0007C22.1052 3.38093 23.0007 4.27637 23.0007 5.38094V15.6665C23.0007 16.7711 22.1052 17.6665 21.0007 17.6665H20.2007" stroke="#9C9C9C" stroke-width="1.5" stroke-linecap="round" stroke-linejoin="round"/>
<path d="M1 19V6.3335C1 5.22893 1.89543 4.3335 3 4.3335H7.37619C7.90387 4.3335 8.41016 4.54203 8.78476 4.91366L10.0151 6.13427C10.3897 6.5059 10.896 6.71443 11.4237 6.71443H18.1999C19.3045 6.71443 20.1999 7.60986 20.1999 8.71443V19C20.1999 20.1046 19.3045 21 18.1999 21H3C1.89543 21 1 20.1046 1 19Z" stroke="#9C9C9C" stroke-width="1.5" stroke-linecap="round" stroke-linejoin="round"/>
</svg>
