<svg width="24" height="24" viewBox="0 0 24 24" fill="none" xmlns="http://www.w3.org/2000/svg">
<path d="M14.3501 2.49755L15.3451 2.39804V2.39804L14.3501 2.49755ZM14.1278 1.44588L13.2954 2V2L14.1278 1.44588ZM14.7819 4.35502L14.0956 5.08238L14.0956 5.08238L14.7819 4.35502ZM15.439 4.62724L15.41 5.62682H15.41L15.439 4.62724ZM17.0576 3.6192L17.6909 4.39316L17.6909 4.39315L17.0576 3.6192ZM17.9582 3.03289L17.7613 2.05247L17.7613 2.05247L17.9582 3.03289ZM18.4486 3.05735L18.1551 4.01331L18.1551 4.01332L18.4486 3.05735ZM19.2864 3.73034L18.5793 4.43745L18.5946 4.45281L18.6106 4.4675L19.2864 3.73034ZM19.2864 3.73036L19.9935 3.02325L19.9781 3.00789L19.9621 2.9932L19.2864 3.73036ZM20.2694 4.71338L19.5623 5.42048L20.2694 4.71338ZM20.9426 5.55138L21.8986 5.25803L21.8986 5.25802L20.9426 5.55138ZM20.967 6.04151L19.9866 5.84474V5.84474L20.967 6.04151ZM20.3806 6.94234L21.1545 7.57558L20.3806 6.94234ZM19.3723 8.56136L20.3719 8.53212V8.53211L19.3723 8.56136ZM19.6444 9.21824L20.3719 8.53211V8.53211L19.6444 9.21824ZM21.5023 9.65014L21.6018 8.65511H21.6018L21.5023 9.65014ZM22.5542 9.87252L22 10.7049L22 10.7049L22.5542 9.87252ZM22.8834 10.2363L22 10.7049L22 10.7049L22.8834 10.2363ZM22.8836 13.7632L23.7672 14.2314L23.7672 14.2314L22.8836 13.7632ZM22.5538 14.1275L22 13.2949L22 13.2949L22.5538 14.1275ZM21.5029 14.3496L21.4034 13.3546H21.4034L21.5029 14.3496ZM19.6465 14.781L18.9193 14.0945L19.6465 14.781ZM19.374 15.4388L20.3736 15.4675V15.4675L19.374 15.4388ZM20.3821 17.0571L19.6081 17.6903H19.6081L20.3821 17.0571ZM20.9687 17.9581L21.9491 17.7614L21.9491 17.7614L20.9687 17.9581ZM20.9442 18.4483L19.9882 18.1549V18.1549L20.9442 18.4483ZM20.2711 19.2863L20.9782 19.9934L20.9782 19.9934L20.2711 19.2863ZM19.2885 20.2688L18.5814 19.5617L18.5814 19.5617L19.2885 20.2688ZM18.4498 20.9425L18.1568 19.9863L18.1568 19.9863L18.4498 20.9425ZM17.9604 20.9669L17.764 21.9474L17.764 21.9474L17.9604 20.9669ZM17.0588 20.38L17.6921 19.6061H17.6921L17.0588 20.38ZM15.4385 19.3712L15.4683 20.3708H15.4683L15.4385 19.3712ZM14.7826 19.6429L14.0969 18.915L14.0969 18.915L14.7826 19.6429ZM14.1276 22.5545L14.9598 23.1089L14.9598 23.1089L14.1276 22.5545ZM13.7643 22.8832L14.2332 23.7665H14.2332L13.7643 22.8832ZM10.2366 22.8834L9.76794 23.7667L9.76794 23.7667L10.2366 22.8834ZM9.87301 22.5543L10.7053 22L9.87301 22.5543ZM9.65059 21.5023L10.6456 21.4028V21.4028L9.65059 21.5023ZM9.21849 19.644L9.90445 18.9163L9.90445 18.9163L9.21849 19.644ZM8.56201 19.3721L8.59149 18.3725H8.59148L8.56201 19.3721ZM6.94232 20.3806L6.30909 19.6067L6.30908 19.6067L6.94232 20.3806ZM6.04095 20.9674L5.84442 19.9869L5.84441 19.9869L6.04095 20.9674ZM5.55131 20.943L5.25819 21.899L5.25819 21.899L5.55131 20.943ZM4.71284 20.2695L4.00573 20.9766H4.00573L4.71284 20.2695ZM3.73026 19.2869L4.43737 18.5798L3.73026 19.2869ZM3.05695 18.4487L4.013 18.1555L4.013 18.1555L3.05695 18.4487ZM3.03252 17.9588L4.013 18.1555L4.013 18.1555L3.03252 17.9588ZM3.61912 17.0577L4.39308 17.6909H4.39308L3.61912 17.0577ZM4.62752 15.4384L5.62709 15.4091L4.62752 15.4384ZM4.35548 14.7816L3.62795 15.4677L3.62795 15.4677L4.35548 14.7816ZM2.49756 14.3497L2.39806 15.3447H2.39806L2.49756 14.3497ZM1.44582 14.1273L0.891635 14.9597L0.891637 14.9597L1.44582 14.1273ZM1.11659 13.7635L2 13.2949L2 13.2949L1.11659 13.7635ZM1.1168 10.2359L0.233601 9.7669L0.233601 9.7669L1.1168 10.2359ZM1.44545 9.87275L2 10.7049L2 10.7049L1.44545 9.87275ZM2.49841 9.65007L2.3989 8.65503H2.3989L2.49841 9.65007ZM4.35723 9.21795L5.08485 9.90393L5.08485 9.90393L4.35723 9.21795ZM4.62918 8.5614L3.62962 8.53196V8.53196L4.62918 8.5614ZM3.62074 6.94193L2.84678 7.57516H2.84678L3.62074 6.94193ZM3.03418 6.04084L4.01466 5.8442V5.8442L3.03418 6.04084ZM3.05862 5.55097L4.01466 5.8442L4.01466 5.8442L3.05862 5.55097ZM3.73192 4.71272L4.43903 5.41983L3.73192 4.71272ZM4.71495 3.72969L4.00784 3.02259V3.02259L4.71495 3.72969ZM4.71495 3.72969L4.00785 3.02258L4.00785 3.02258L4.71495 3.72969ZM5.55248 3.05685L5.25887 2.10092L5.25887 2.10092L5.55248 3.05685ZM6.04311 3.03238L6.24015 2.05198L6.24015 2.05198L6.04311 3.03238ZM6.94343 3.61855L7.57667 2.84459V2.84459L6.94343 3.61855ZM8.56155 4.62637L8.53269 3.62679H8.53269L8.56155 4.62637ZM9.2191 4.354L9.90551 5.08122L9.90551 5.08122L9.2191 4.354ZM9.65064 2.49718L10.6457 2.59669V2.59669L9.65064 2.49718ZM9.87278 1.44608L9.04021 0.892151L9.04021 0.892156L9.87278 1.44608ZM10.237 1.11645L9.76868 0.232893L9.76868 0.232894L10.237 1.11645ZM13.7639 1.11656L14.2324 0.233113L14.2324 0.233113L13.7639 1.11656ZM15.3451 2.39804C15.3187 2.13376 15.2935 1.87243 15.2523 1.65359C15.2086 1.42072 15.1334 1.15188 14.9602 0.891764L13.2954 2C13.2601 1.94696 13.2679 1.92243 13.2867 2.02286C13.3082 2.13732 13.3252 2.29828 13.3551 2.59705L15.3451 2.39804ZM15.4681 3.62766C15.5649 3.71899 15.5343 3.7789 15.4842 3.53166C15.436 3.29396 15.4007 2.95369 15.3451 2.39804L13.3551 2.59705C13.4063 3.10888 13.4511 3.5692 13.5241 3.92931C13.5952 4.27987 13.7272 4.73479 14.0956 5.08238L15.4681 3.62766ZM15.4681 3.62766L15.4681 3.62766L14.0956 5.08238C14.4522 5.41882 14.9199 5.61257 15.41 5.62682L15.4681 3.62766ZM16.4244 2.84524C15.9923 3.19882 15.7268 3.41447 15.5246 3.54843C15.3144 3.68776 15.3351 3.6238 15.4681 3.62766L15.41 5.62682C15.9163 5.64154 16.3312 5.41319 16.6294 5.2156C16.9357 5.01264 17.2928 4.71884 17.6909 4.39316L16.4244 2.84524ZM17.7613 2.05247C17.4551 2.11398 17.2118 2.25087 17.0163 2.38457C16.8325 2.51022 16.6299 2.6771 16.4244 2.84524L17.6909 4.39315C17.9232 4.20307 18.049 4.10128 18.1451 4.03557C18.2294 3.97793 18.2176 4.00077 18.1551 4.01332L17.7613 2.05247ZM18.7421 2.10138C18.4243 2.00383 18.0872 1.98702 17.7613 2.05247L18.1551 4.01332V4.01331L18.7421 2.10138ZM19.9935 3.02324C19.8057 2.83549 19.6207 2.64928 19.4504 2.50597C19.2691 2.35347 19.0407 2.19306 18.7421 2.10138L18.1551 4.01332C18.0942 3.99462 18.0848 3.97071 18.1629 4.03646C18.252 4.1114 18.367 4.2252 18.5793 4.43745L19.9935 3.02324ZM19.9621 2.9932L19.9621 2.99319L18.6106 4.4675L18.6107 4.46751L19.9621 2.9932ZM20.9765 4.00627L19.9935 3.02325L18.5793 4.43746L19.5623 5.42048L20.9765 4.00627ZM21.8986 5.25802C21.8069 4.95929 21.6465 4.73085 21.4939 4.54951C21.3506 4.37911 21.1643 4.19407 20.9765 4.00627L19.5623 5.42048C19.7746 5.6328 19.8884 5.74784 19.9634 5.83696C20.0292 5.91514 20.0052 5.90564 19.9866 5.84474L21.8986 5.25802ZM21.9475 6.23829C22.0128 5.91255 21.996 5.57565 21.8986 5.25803L19.9866 5.84473L19.9866 5.84474L21.9475 6.23829ZM21.1545 7.57558C21.3227 7.37002 21.4896 7.16737 21.6153 6.98355C21.7491 6.78794 21.886 6.54467 21.9475 6.23829L19.9866 5.84474C19.9991 5.78228 20.0219 5.77045 19.9643 5.85478C19.8986 5.95092 19.7968 6.07672 19.6066 6.3091L21.1545 7.57558ZM20.3719 8.53211C20.3758 8.66514 20.3118 8.68592 20.4512 8.47561C20.5852 8.27341 20.8009 8.00784 21.1545 7.57558L19.6066 6.3091C19.2808 6.70727 18.987 7.06452 18.784 7.37087C18.5863 7.66912 18.358 8.08419 18.3728 8.5906L20.3719 8.53211ZM20.3719 8.53211L20.3719 8.53212L18.3728 8.5906C18.3871 9.08039 18.5807 9.5479 18.917 9.90437L20.3719 8.53211ZM21.6018 8.65511C21.046 8.59953 20.7057 8.56427 20.4679 8.51603C20.2207 8.46585 20.2806 8.43529 20.3719 8.53211L18.917 9.90437C19.2646 10.2729 19.7196 10.4049 20.0702 10.4761C20.4304 10.5492 20.8909 10.594 21.4028 10.6452L21.6018 8.65511ZM23.1084 9.04015C22.8483 8.86693 22.5794 8.7917 22.3464 8.74793C22.1276 8.70681 21.8662 8.68154 21.6018 8.65511L21.4028 10.6452C21.7017 10.6751 21.8627 10.692 21.9771 10.7135C22.0776 10.7324 22.053 10.7402 22 10.7049L23.1084 9.04015ZM23.7668 9.76763C23.6111 9.47423 23.3849 9.22421 23.1084 9.04014L22 10.7049L22 10.7049L23.7668 9.76763ZM24 11.305C24 11.0394 24.0009 10.7768 23.9817 10.5549C23.9614 10.3187 23.9132 10.0437 23.7668 9.76762L22 10.7049C21.9701 10.6486 21.9803 10.625 21.9891 10.7268C21.9991 10.8428 22 11.0047 22 11.305H24ZM24 12.6954V11.305H22V12.6954H24ZM23.7672 14.2314C23.9134 13.9555 23.9614 13.6807 23.9818 13.4448C24.0009 13.2231 24 12.9608 24 12.6954H22C22 12.9954 21.9991 13.1571 21.9891 13.2731C21.9804 13.3748 21.9702 13.3512 22 13.2949L23.7672 14.2314ZM23.1077 14.9602C23.3847 14.7759 23.6114 14.5254 23.7672 14.2314L22 13.2949L22 13.2949L23.1077 14.9602ZM21.6024 15.3447C21.8665 15.3182 22.1277 15.293 22.3463 15.2519C22.5791 15.2082 22.8477 15.1331 23.1077 14.9602L22 13.2949C22.053 13.2597 22.0775 13.2675 21.9772 13.2863C21.8628 13.3078 21.702 13.3247 21.4034 13.3546L21.6024 15.3447ZM20.3736 15.4675C20.2823 15.5642 20.2224 15.5337 20.4695 15.4836C20.7071 15.4354 21.0471 15.4002 21.6024 15.3447L21.4034 13.3546C20.8919 13.4057 20.4319 13.4505 20.0719 13.5235C19.7215 13.5946 19.2669 13.7264 18.9193 14.0945L20.3736 15.4675ZM20.3736 15.4675L20.3736 15.4675L18.9193 14.0945C18.5824 14.4513 18.3885 14.9196 18.3744 15.4101L20.3736 15.4675ZM21.156 16.4238C20.8025 15.9918 20.5868 15.7263 20.4529 15.5241C20.3135 15.3138 20.3774 15.3345 20.3736 15.4675L18.3744 15.4101C18.3599 15.9162 18.5882 16.331 18.7858 16.629C18.9887 16.9352 19.2824 17.2923 19.6081 17.6903L21.156 16.4238ZM21.9491 17.7614C21.8876 17.4549 21.7507 17.2116 21.6169 17.016C21.4912 16.8322 21.3243 16.6295 21.156 16.4238L19.6081 17.6903C19.7983 17.9228 19.9002 18.0486 19.9659 18.1448C20.0236 18.2292 20.0008 18.2174 19.9882 18.1549L21.9491 17.7614ZM21.9002 18.7416C21.9977 18.424 22.0145 18.0871 21.9491 17.7614L19.9882 18.1549V18.1549L21.9002 18.7416ZM20.9782 19.9934C21.166 19.8056 21.3522 19.6205 21.4956 19.4501C21.6481 19.2688 21.8086 19.0404 21.9002 18.7416L19.9882 18.1549C20.0069 18.094 20.0308 18.0845 19.9651 18.1627C19.8901 18.2518 19.7763 18.3669 19.564 18.5792L20.9782 19.9934ZM19.9956 20.9759L20.9782 19.9934L19.564 18.5792L18.5814 19.5617L19.9956 20.9759ZM18.7428 21.8986C19.0418 21.8069 19.2704 21.6464 19.4519 21.4938C19.6225 21.3503 19.8077 21.1639 19.9956 20.9759L18.5814 19.5617C18.3689 19.7742 18.2538 19.8881 18.1646 19.9632C18.0863 20.029 18.0958 20.005 18.1568 19.9863L18.7428 21.8986ZM17.764 21.9474C18.0893 22.0125 18.4256 21.9958 18.7428 21.8986L18.1568 19.9863L18.1568 19.9863L17.764 21.9474ZM16.4256 21.154C16.6313 21.3223 16.8341 21.4894 17.0181 21.6151C17.2139 21.749 17.4574 21.886 17.764 21.9474L18.1568 19.9863C18.2193 19.9989 18.2311 20.0217 18.1467 19.964C18.0505 19.8983 17.9246 19.7964 17.6921 19.6061L16.4256 21.154ZM15.4683 20.3708C15.3351 20.3747 15.3143 20.3106 15.5248 20.4501C15.7272 20.5842 15.993 20.8 16.4256 21.154L17.6921 19.6061C17.2936 19.2801 16.936 18.9859 16.6294 18.7828C16.3309 18.585 15.9155 18.3565 15.4086 18.3716L15.4683 20.3708ZM15.4683 20.3708H15.4683L15.4086 18.3716C14.9196 18.3862 14.4529 18.5795 14.0969 18.915L15.4683 20.3708ZM15.3452 21.6015C15.4008 21.0453 15.4361 20.7047 15.4844 20.4668C15.5346 20.2194 15.5652 20.2794 15.4683 20.3708L14.0969 18.915C13.7278 19.2627 13.5956 19.718 13.5244 20.069C13.4512 20.4294 13.4064 20.8902 13.3551 21.4025L15.3452 21.6015ZM14.9598 23.1089C15.1332 22.8487 15.2085 22.5796 15.2523 22.3466C15.2935 22.1275 15.3187 21.866 15.3452 21.6015L13.3551 21.4025C13.3252 21.7015 13.3082 21.8626 13.2867 21.9771C13.2678 22.0776 13.26 22.0531 13.2954 22L14.9598 23.1089ZM14.2332 23.7665C14.5262 23.611 14.7759 23.385 14.9598 23.1089L13.2954 22L13.2954 22L14.2332 23.7665ZM12.6949 24C12.9607 24 13.2235 24.0009 13.4455 23.9817C13.6818 23.9613 13.957 23.9131 14.2332 23.7665L13.2954 22C13.3517 21.9701 13.3753 21.9803 13.2735 21.9891C13.1574 21.9991 12.9954 22 12.6949 22V24ZM11.3055 24H12.6949V22H11.3055V24ZM9.76794 23.7667C10.0441 23.9132 10.3191 23.9613 10.5553 23.9817C10.7772 24.0009 11.0399 24 11.3055 24V22C11.0052 22 10.8433 21.9991 10.7272 21.9891C10.6254 21.9803 10.6491 21.9701 10.7053 22L9.76794 23.7667ZM9.04068 23.1086C9.22471 23.3849 9.47465 23.6111 9.76794 23.7667L10.7053 22L10.7053 22L9.04068 23.1086ZM8.65555 21.6018C8.68199 21.8662 8.70726 22.1276 8.74839 22.3465C8.79217 22.5795 8.86742 22.8484 9.04068 23.1086L10.7053 22C10.7407 22.053 10.7329 22.0776 10.714 21.9771C10.6925 21.8627 10.6755 21.7017 10.6456 21.4028L8.65555 21.6018ZM8.53253 20.3716C8.43567 20.2803 8.46624 20.2203 8.51643 20.4677C8.56469 20.7055 8.59996 21.0459 8.65555 21.6018L10.6456 21.4028C10.5944 20.8907 10.5496 20.4302 10.4765 20.0699C10.4053 19.7191 10.2732 19.264 9.90445 18.9163L8.53253 20.3716ZM8.53253 20.3716L8.53254 20.3716L9.90445 18.9163C9.54813 18.5804 9.08096 18.3869 8.59149 18.3725L8.53253 20.3716ZM7.57556 21.1546C8.008 20.8008 8.2737 20.585 8.476 20.4509C8.68641 20.3115 8.66562 20.3756 8.53254 20.3716L8.59148 18.3725C8.08489 18.3576 7.66965 18.586 7.37129 18.7837C7.06482 18.9868 6.70743 19.2808 6.30909 19.6067L7.57556 21.1546ZM6.23747 21.9479C6.54403 21.8864 6.78746 21.7495 6.98318 21.6157C7.1671 21.4899 7.36988 21.3229 7.57556 21.1546L6.30908 19.6067C6.07656 19.7969 5.95067 19.8988 5.85447 19.9646C5.77008 20.0223 5.78192 19.9994 5.84442 19.9869L6.23747 21.9479ZM5.25819 21.899C5.57551 21.9963 5.91205 22.0131 6.23748 21.9479L5.84441 19.9869H5.84442L5.25819 21.899ZM4.00573 20.9766C4.19363 21.1645 4.37877 21.3509 4.54926 21.4943C4.7307 21.6469 4.95927 21.8074 5.25819 21.899L5.84442 19.9869C5.90536 20.0056 5.91486 20.0295 5.83664 19.9637C5.74747 19.8887 5.63237 19.7748 5.41994 19.5624L4.00573 20.9766ZM3.02315 19.994L4.00573 20.9766L5.41994 19.5624L4.43737 18.5798L3.02315 19.994ZM2.10091 18.7419C2.19257 19.0407 2.35304 19.2693 2.50562 19.4506C2.64899 19.6211 2.8353 19.8062 3.02315 19.994L4.43737 18.5798C4.225 18.3675 4.11114 18.2524 4.03616 18.1632C3.97038 18.085 3.99431 18.0945 4.013 18.1555L2.10091 18.7419ZM2.05205 17.7622C1.98675 18.0877 2.00354 18.4244 2.10091 18.7419L4.013 18.1555V18.1555L2.05205 17.7622ZM2.84516 16.4244C2.67692 16.6301 2.50994 16.8328 2.38423 17.0167C2.25046 17.2123 2.11351 17.4557 2.05205 17.7622L4.013 18.1555C4.00046 18.2179 3.97759 18.2298 4.03528 18.1454C4.10103 18.0492 4.20288 17.9234 4.39308 17.6909L2.84516 16.4244ZM3.62795 15.4677C3.62405 15.3346 3.68806 15.3139 3.54867 15.5242C3.41465 15.7265 3.19889 15.9921 2.84516 16.4244L4.39308 17.6909C4.71891 17.2927 5.01283 16.9354 5.21586 16.629C5.41352 16.3307 5.64194 15.9155 5.62709 15.4091L3.62795 15.4677ZM3.62795 15.4677V15.4677L5.62709 15.4091C5.61273 14.9194 5.41913 14.452 5.08301 14.0955L3.62795 15.4677ZM2.39806 15.3447C2.95385 15.4003 3.2942 15.4355 3.53195 15.4838C3.77921 15.534 3.71926 15.5645 3.62795 15.4677L5.08301 14.0955C4.73539 13.7269 4.28036 13.5949 3.92968 13.5237C3.56948 13.4506 3.10902 13.4058 2.59707 13.3546L2.39806 15.3447ZM0.891637 14.9597C1.15178 15.1329 1.42063 15.2081 1.65354 15.2519C1.8724 15.293 2.13376 15.3183 2.39806 15.3447L2.59707 13.3546C2.29827 13.3247 2.13731 13.3078 2.02285 13.2863C1.92243 13.2674 1.94697 13.2596 2 13.2949L0.891637 14.9597ZM0.233185 14.2321C0.388842 14.5256 0.615136 14.7756 0.891635 14.9597L2 13.2949L0.233185 14.2321ZM0 12.6949C0 12.9605 -0.000864625 13.2231 0.018274 13.4449C0.0386413 13.681 0.0867372 13.9561 0.233185 14.2321L2 13.2949C2.02986 13.3512 2.01965 13.3748 2.01087 13.273C2.00086 13.157 2 12.9952 2 12.6949H0ZM0 11.3055V12.6949H2V11.3055H0ZM0.233601 9.7669C0.0868959 10.0432 0.038711 10.3184 0.0183067 10.5547C-0.000866175 10.7768 0 11.0396 0 11.3055H2C2 11.0049 2.00087 10.8429 2.01089 10.7268C2.01969 10.6249 2.0299 10.6486 2 10.7049L0.233601 9.7669ZM0.890897 9.0406C0.614981 9.22447 0.389107 9.47406 0.233601 9.7669L2 10.7049L2 10.7049L0.890897 9.0406ZM2.3989 8.65503C2.13426 8.6815 1.8726 8.70679 1.65351 8.74797C1.42038 8.79178 1.15123 8.86711 0.890896 9.0406L2 10.7049C1.9469 10.7403 1.92233 10.7325 2.02292 10.7136C2.13754 10.692 2.29874 10.675 2.59791 10.6451L2.3989 8.65503ZM3.62962 8.53196C3.72098 8.43505 3.78097 8.46565 3.53348 8.51587C3.29557 8.56414 2.95499 8.59942 2.3989 8.65503L2.59791 10.6451C3.11016 10.5939 3.57083 10.549 3.93118 10.4759C4.28193 10.4048 4.73717 10.2727 5.08485 9.90393L3.62962 8.53196ZM3.62962 8.53196L3.62961 8.53196L5.08485 9.90393C5.4208 9.54759 5.61433 9.08037 5.62875 8.59084L3.62962 8.53196ZM2.84678 7.57516C3.20055 8.00754 3.41632 8.27319 3.55033 8.47545C3.68972 8.68581 3.6257 8.66502 3.62962 8.53196L5.62875 8.59084C5.64367 8.08429 5.41524 7.66909 5.21756 7.37075C5.01451 7.06431 4.72056 6.70697 4.3947 6.30869L2.84678 7.57516ZM2.05371 6.23748C2.11517 6.54395 2.25211 6.7873 2.38588 6.98297C2.51158 7.16684 2.67855 7.36955 2.84678 7.57516L4.3947 6.30869C4.20451 6.07624 4.10267 5.9504 4.03693 5.85424C3.97926 5.76988 4.00213 5.78172 4.01466 5.8442L2.05371 6.23748ZM2.10257 5.25774C2.00521 5.5752 1.98841 5.91191 2.05371 6.23748L4.01466 5.8442V5.8442L2.10257 5.25774ZM3.02482 4.00561C2.83696 4.19347 2.65065 4.37856 2.50728 4.549C2.3547 4.73039 2.19423 4.95891 2.10257 5.25774L4.01466 5.8442C3.99597 5.90512 3.97204 5.91462 4.03782 5.83642C4.1128 5.74727 4.22666 5.6322 4.43903 5.41983L3.02482 4.00561ZM4.00784 3.02259L3.02482 4.00561L4.43903 5.41983L5.42206 4.4368L4.00784 3.02259ZM4.00785 3.02258L4.00784 3.02259L5.42206 4.4368L5.42206 4.4368L4.00785 3.02258ZM5.25887 2.10092C4.96032 2.19262 4.73201 2.35299 4.55078 2.50546C4.38048 2.64873 4.19554 2.83488 4.00785 3.02258L5.42206 4.4368C5.63425 4.2246 5.74924 4.11084 5.8383 4.03591C5.91644 3.97018 5.90695 3.99408 5.84608 4.01277L5.25887 2.10092ZM6.24015 2.05198C5.91407 1.98645 5.5768 2.00327 5.25887 2.10092L5.84608 4.01277H5.84608L6.24015 2.05198ZM7.57667 2.84459C7.37123 2.6765 7.16868 2.50966 6.98497 2.38405C6.78947 2.25038 6.54634 2.11351 6.24015 2.05198L5.84608 4.01277C5.78366 4.00023 5.77183 3.97739 5.85613 4.03502C5.95221 4.10072 6.07794 4.20247 6.3102 4.3925L7.57667 2.84459ZM8.53269 3.62679C8.66566 3.62295 8.6864 3.68687 8.47621 3.54758C8.27412 3.41365 8.00869 3.19806 7.57667 2.84459L6.3102 4.3925C6.70814 4.71809 7.06519 5.0118 7.37138 5.21471C7.66946 5.41226 8.08428 5.64056 8.5904 5.62595L8.53269 3.62679ZM8.53269 3.62678L8.53269 3.62679L8.5904 5.62595C9.08074 5.6118 9.54878 5.41793 9.90551 5.08122L8.53269 3.62678ZM8.6556 2.39768C8.60006 2.95311 8.56482 3.29324 8.51662 3.53084C8.46649 3.77796 8.43596 3.71809 8.53269 3.62679L9.90551 5.08122C10.2737 4.73366 10.4056 4.27891 10.4767 3.92845C10.5497 3.56846 10.5945 3.10831 10.6457 2.59669L8.6556 2.39768ZM9.04021 0.892156C8.86721 1.15218 8.79207 1.42087 8.74835 1.65364C8.70727 1.87236 8.68201 2.13355 8.6556 2.39768L10.6457 2.59669C10.6755 2.29809 10.6925 2.13723 10.714 2.02284C10.7328 1.92248 10.7406 1.94699 10.7053 2L9.04021 0.892156ZM9.76868 0.232894C9.47482 0.388658 9.22444 0.615247 9.04021 0.892151L10.7053 2L10.7053 2L9.76868 0.232894ZM11.305 0C11.0396 0 10.7772 -0.000863552 10.5554 0.0182511C10.3195 0.0385925 10.0446 0.086626 9.76868 0.232893L10.7053 2C10.6491 2.02982 10.6255 2.01963 10.7272 2.01086C10.8432 2.00086 11.0049 2 11.305 2V0ZM12.6954 0H11.305V2H12.6954V0ZM14.2324 0.233113C13.9564 0.0867097 13.6814 0.0386292 13.4454 0.0182683C13.2235 -0.000864387 12.961 0 12.6954 0V2C12.9957 2 13.1575 2.00086 13.2735 2.01087C13.3753 2.01965 13.3516 2.02985 13.2954 2L14.2324 0.233113ZM14.9602 0.891764C14.7761 0.615165 14.526 0.388797 14.2324 0.233113L13.2954 2V2L14.9602 0.891764ZM15.3993 12C15.3993 13.8777 13.8771 15.4 11.9993 15.4V17.4C14.9816 17.4 17.3993 14.9823 17.3993 12H15.3993ZM11.9993 8.59996C13.8771 8.59996 15.3993 10.1222 15.3993 12H17.3993C17.3993 9.01762 14.9816 6.59996 11.9993 6.59996V8.59996ZM8.59928 12C8.59928 10.1222 10.1215 8.59996 11.9993 8.59996V6.59996C9.01695 6.59996 6.59928 9.01762 6.59928 12H8.59928ZM11.9993 15.4C10.1215 15.4 8.59928 13.8777 8.59928 12H6.59928C6.59928 14.9823 9.01695 17.4 11.9993 17.4V15.4Z" fill="#70BBF6"/>
</svg>
