<svg width="28" height="25" viewBox="0 0 28 25" fill="none" xmlns="http://www.w3.org/2000/svg">
<path d="M9.70151 7.05782L12.8665 1.51918C13.2503 0.847367 14.219 0.847366 14.6029 1.51918L17.7638 7.05067C17.9014 7.29154 18.1329 7.46441 18.403 7.52795L25.2526 9.13962C26.0152 9.31907 26.2847 10.2661 25.7306 10.8201L20.9785 15.5723C20.7603 15.7905 20.655 16.0972 20.6933 16.4034L21.4695 22.6126C21.567 23.393 20.767 23.9754 20.0543 23.6428L14.1576 20.891C13.8895 20.7659 13.5799 20.7659 13.3118 20.891L7.41509 23.6428C6.70237 23.9754 5.90238 23.393 5.99993 22.6126L6.77938 16.377C6.81576 16.0859 6.72249 15.7935 6.52425 15.5772L2.13521 10.7892C1.623 10.2304 1.89445 9.32716 2.62983 9.14332L9.07581 7.53182C9.34026 7.46571 9.56627 7.2945 9.70151 7.05782Z" stroke="#5A5A5A" stroke-width="2" stroke-linejoin="round"/>
</svg>
