<svg width="27" height="19" viewBox="0 0 27 19" fill="none" xmlns="http://www.w3.org/2000/svg">
<path d="M1 4.4707H26" stroke="#7D7D7D" stroke-width="1.5" stroke-linecap="round"/>
<path d="M11.1195 4.47062C11.1195 6.54528 9.48913 8.19123 7.52165 8.19123C5.55418 8.19123 3.92383 6.54528 3.92383 4.47062C3.92383 2.39595 5.55418 0.75 7.52165 0.75C9.48913 0.75 11.1195 2.39595 11.1195 4.47062Z" fill="#F7F9FB" stroke="#7D7D7D" stroke-width="1.5"/>
<path d="M1 14.5293H26" stroke="#7D7D7D" stroke-width="1.5" stroke-linecap="round"/>
<path d="M23.0755 14.5295C23.0755 16.6041 21.4452 18.2501 19.4777 18.2501C17.5102 18.2501 15.8799 16.6041 15.8799 14.5295C15.8799 12.4548 17.5102 10.8088 19.4777 10.8088C21.4452 10.8088 23.0755 12.4548 23.0755 14.5295Z" fill="#F7F9FB" stroke="#7D7D7D" stroke-width="1.5"/>
</svg>
