<svg width="26" height="26" viewBox="0 0 26 26" fill="none" xmlns="http://www.w3.org/2000/svg">
<path d="M6.80708 9.87204H0.767701C0.458138 9.87204 0.178891 9.68613 0.0594534 9.40053C-0.0599336 9.11494 0.00374624 8.78557 0.221141 8.56523L6.33725 2.36412C6.48152 2.21781 6.6784 2.1355 6.88386 2.1355H9.90352C10.1695 2.1355 10.4166 2.27317 10.5565 2.49945C10.6964 2.72568 10.7092 3.00818 10.5903 3.24619L7.49389 9.4473C7.36394 9.70761 7.098 9.87204 6.80708 9.87204Z" fill="#A0EBFF"/>
<path d="M25.2317 9.87204H19.1923C18.9013 9.87204 18.6354 9.70761 18.5054 9.4473L15.409 3.24619C15.2902 3.00818 15.303 2.72568 15.4429 2.49945C15.5827 2.27322 15.8299 2.1355 16.0958 2.1355H19.1155C19.3209 2.1355 19.5178 2.21787 19.6621 2.36412L25.7782 8.56523C25.9956 8.78562 26.0593 9.11504 25.9399 9.40053C25.8205 9.68618 25.5412 9.87204 25.2317 9.87204Z" fill="#73C8F0"/>
<path d="M5.94824 9.08437L9.90314 2.1355H16.0961L20.0388 9.08437H5.94824Z" fill="#D2F0FF"/>
<path d="M18.3625 9.08428L12.2982 22.7854C12.1446 23.1323 12.2676 23.5395 12.5876 23.7434C12.7148 23.8245 12.8579 23.8638 12.9999 23.8638C13.2151 23.8638 13.4278 23.7735 13.5782 23.6014L25.8105 9.60951C25.9398 9.46164 26.0044 9.27339 25.9995 9.08423H18.3625V9.08428Z" fill="#0073AA"/>
<path d="M7.63829 9.08447H0.00123335C-0.00364166 9.27358 0.0609522 9.46188 0.190242 9.60975L12.4225 23.6016C12.573 23.7737 12.7856 23.8641 13.0009 23.8641C13.1428 23.8641 13.286 23.8248 13.4131 23.7437C13.7331 23.5397 13.8561 23.1326 13.7025 22.7856L7.63829 9.08447Z" fill="#41B4E6"/>
<path d="M5.94824 9.08447L12.2976 23.407C12.4206 23.6849 12.6958 23.864 12.9996 23.864C13.3035 23.864 13.5787 23.6849 13.7016 23.407L20.0389 9.08447H5.94824Z" fill="#A0EBFF"/>
<path d="M12.9941 9.08437H20.0394L16.0966 2.1355H12.9941V9.08437Z" fill="#41B4E6"/>
<path d="M13 23.864C13.3038 23.864 13.5791 23.6849 13.702 23.407L20.0392 9.08447H13V23.864Z" fill="#73C8F0"/>
</svg>
