<svg width="32" height="32" viewBox="0 0 32 32" fill="none" xmlns="http://www.w3.org/2000/svg">
<path d="M21.9938 17.7311L21.8811 17.6183C21.3648 17.1016 21.0118 16.7483 20.609 16.5611C19.9409 16.2507 19.17 16.2507 18.5019 16.5611C18.0991 16.7483 17.7461 17.1016 17.2298 17.6183L17.1567 17.6915C16.9443 17.9039 16.8027 18.0452 16.6888 18.1446C16.575 18.2439 16.5264 18.2671 16.5087 18.2736C16.3353 18.3369 16.1411 18.2995 16.0035 18.1763C15.9895 18.1637 15.953 18.1241 15.8843 17.9897C15.8154 17.8551 15.7364 17.6713 15.618 17.3952L15.5618 17.264C15.2954 16.6423 15.0835 16.1479 14.8849 15.7708C14.6837 15.3889 14.4694 15.073 14.1736 14.8476C13.5517 14.3738 12.7439 14.2183 11.9906 14.4272C11.6321 14.5266 11.3159 14.7403 10.9873 15.0201C10.7082 15.2578 10.3879 15.5723 9.99955 15.9599L9.99954 15.9999C9.99954 16.5006 9.99983 16.9556 10.0024 17.3712L10.4956 16.878C10.9931 16.3805 11.3453 16.0288 11.6357 15.7814C11.9255 15.5346 12.1087 15.4321 12.2578 15.3908C12.7098 15.2655 13.1944 15.3588 13.5676 15.6431C13.6906 15.7368 13.8227 15.8999 14.0001 16.2368C14.1779 16.5743 14.3743 17.0316 14.6514 17.6783L14.7057 17.8049C14.8155 18.0611 14.9078 18.2764 14.9939 18.4449C15.0819 18.6171 15.1855 18.786 15.3362 18.921C15.7487 19.2907 16.3314 19.4029 16.8517 19.2129C17.0418 19.1435 17.2007 19.0251 17.3464 18.898C17.4889 18.7735 17.6546 18.6078 17.8517 18.4107L17.8638 18.3986C18.4822 17.7802 18.7028 17.5705 18.9233 17.468C19.3242 17.2817 19.7867 17.2817 20.1876 17.468C20.4081 17.5705 20.6287 17.7802 21.2471 18.3986L21.9578 19.1093C21.9779 18.7069 21.9884 18.2522 21.9938 17.7311Z" fill="#59D7AB"/>
<path d="M20 13.3333C20.7364 13.3333 21.3333 12.7364 21.3333 12C21.3333 11.2636 20.7364 10.6667 20 10.6667C19.2636 10.6667 18.6667 11.2636 18.6667 12C18.6667 12.7364 19.2636 13.3333 20 13.3333Z" fill="#59D7AB"/>
<path fill-rule="evenodd" clip-rule="evenodd" d="M15.9613 7.5C14.1085 7.49999 12.6668 7.49999 11.5443 7.65091C10.3996 7.80481 9.51219 8.12385 8.81802 8.81802C8.12385 9.51219 7.80481 10.3996 7.65091 11.5443C7.49999 12.6668 7.49999 14.1085 7.5 15.9613V16.0387C7.49999 17.8915 7.49999 19.3332 7.65091 20.4557C7.80481 21.6004 8.12385 22.4878 8.81802 23.182C9.51219 23.8762 10.3996 24.1952 11.5443 24.3491C12.6668 24.5 14.1085 24.5 15.9613 24.5H16.0387C17.8915 24.5 19.3332 24.5 20.4557 24.3491C21.6004 24.1952 22.4878 23.8762 23.182 23.182C23.8762 22.4878 24.1952 21.6004 24.3491 20.4557C24.5 19.3332 24.5 17.8915 24.5 16.0387V15.9613C24.5 14.1085 24.5 12.6668 24.3491 11.5443C24.1952 10.3996 23.8762 9.51219 23.182 8.81802C22.4878 8.12385 21.6004 7.80481 20.4557 7.65091C19.3332 7.49999 17.8915 7.49999 16.0387 7.5H15.9613ZM9.52513 9.52513C10.0025 9.04772 10.6437 8.78098 11.6775 8.64199C12.7257 8.50106 14.1002 8.5 16 8.5C17.8998 8.5 19.2743 8.50106 20.3225 8.64199C21.3563 8.78098 21.9975 9.04772 22.4749 9.52513C22.9523 10.0025 23.219 10.6437 23.358 11.6775C23.4989 12.7257 23.5 14.1002 23.5 16C23.5 17.8998 23.4989 19.2743 23.358 20.3225C23.219 21.3563 22.9523 21.9975 22.4749 22.4749C21.9975 22.9523 21.3563 23.219 20.3225 23.358C19.2743 23.4989 17.8998 23.5 16 23.5C14.1002 23.5 12.7257 23.4989 11.6775 23.358C10.6437 23.219 10.0025 22.9523 9.52513 22.4749C9.04772 21.9975 8.78098 21.3563 8.64199 20.3225C8.50106 19.2743 8.5 17.8998 8.5 16C8.5 14.1002 8.50106 12.7257 8.64199 11.6775C8.78098 10.6437 9.04772 10.0025 9.52513 9.52513Z" fill="#59D7AB"/>
<path fill-rule="evenodd" clip-rule="evenodd" d="M16 0.5C7.43959 0.5 0.5 7.43959 0.5 16C0.5 24.5604 7.43959 31.5 16 31.5C24.5604 31.5 31.5 24.5604 31.5 16C31.5 7.43959 24.5604 0.5 16 0.5ZM1.5 16C1.5 7.99187 7.99187 1.5 16 1.5C24.0081 1.5 30.5 7.99187 30.5 16C30.5 24.0081 24.0081 30.5 16 30.5C7.99187 30.5 1.5 24.0081 1.5 16Z" fill="#59D7AB"/>
</svg>
