<svg width="32" height="32" viewBox="0 0 32 32" fill="none" xmlns="http://www.w3.org/2000/svg">
<path d="M12.1034 9.17698L11.8904 9.6029L12.1034 9.17698ZM23.7457 14.9982L23.9587 14.5722L23.7457 14.9982ZM23.7457 16.7018L23.5328 16.2759L23.7457 16.7018ZM12.1034 22.523L12.3163 22.9489H12.3163L12.1034 22.523ZM30.5238 16C30.5238 24.0213 24.0213 30.5238 16 30.5238V31.4762C24.5473 31.4762 31.4762 24.5473 31.4762 16H30.5238ZM16 30.5238C7.97872 30.5238 1.47619 24.0213 1.47619 16H0.52381C0.52381 24.5473 7.45274 31.4762 16 31.4762V30.5238ZM1.47619 16C1.47619 7.97872 7.97872 1.47619 16 1.47619V0.52381C7.45274 0.52381 0.52381 7.45274 0.52381 16H1.47619ZM16 1.47619C24.0213 1.47619 30.5238 7.97872 30.5238 16H31.4762C31.4762 7.45274 24.5473 0.52381 16 0.52381V1.47619ZM11.8904 9.6029L23.5328 15.4241L23.9587 14.5722L12.3163 8.75106L11.8904 9.6029ZM23.5328 16.2759L11.8904 22.0971L12.3163 22.9489L23.9587 17.1278L23.5328 16.2759ZM9.97322 10.1992V21.5008H10.9256V10.1992H9.97322ZM11.8904 22.0971C11.4471 22.3187 10.9256 21.9964 10.9256 21.5008H9.97322C9.97322 22.7044 11.2398 23.4872 12.3163 22.9489L11.8904 22.0971ZM23.5328 15.4241C23.8838 15.5996 23.8838 16.1004 23.5328 16.2759L23.9587 17.1278C25.0116 16.6013 25.0116 15.0987 23.9587 14.5722L23.5328 15.4241ZM12.3163 8.75106C11.2398 8.21281 9.97322 8.99561 9.97322 10.1992H10.9256C10.9256 9.70359 11.4471 9.38126 11.8904 9.6029L12.3163 8.75106Z" fill="#FF938D"/>
</svg>
