<svg width="32" height="32" viewBox="0 0 32 32" fill="none" xmlns="http://www.w3.org/2000/svg">
<path d="M23.75 19.5V18.25C23.75 16.3644 23.75 15.4216 23.1642 14.8358C22.5784 14.25 21.6356 14.25 19.75 14.25H19.2221C18.0193 14.25 17.4179 14.25 16.9346 13.9513C16.4513 13.6526 16.1823 13.1147 15.6444 12.0389L14.9076 10.5652C14.6855 10.1209 14.5744 9.89879 14.4266 9.72105C14.1484 9.38661 13.7687 9.15198 13.3452 9.05274C13.1201 9 12.8717 9 12.375 9M31 16C31 24.2843 24.2843 31 16 31C7.71573 31 1 24.2843 1 16C1 7.71573 7.71573 1 16 1C24.2843 1 31 7.71573 31 16ZM13.25 23H18.5C20.9749 23 22.2123 23 22.9812 22.2312C23.75 21.4623 23.75 20.2249 23.75 17.75V14.25C23.75 11.7751 23.75 10.5377 22.9812 9.76884C22.2123 9 20.9749 9 18.5 9H13.25C10.7751 9 9.53769 9 8.76884 9.76884C8 10.5377 8 11.7751 8 14.25V17.75C8 20.2249 8 21.4623 8.76884 22.2312C9.53769 23 10.7751 23 13.25 23Z" stroke="#868FFF"/>
</svg>
