<svg width="28" height="26" viewBox="0 0 28 26" fill="none" xmlns="http://www.w3.org/2000/svg">
<path d="M5.71572 4.60157C6.49717 7.33021 5.49096 8.88202 2.90839 9.4367C2.65556 9.491 2.42311 9.62823 2.27342 9.8391C0.607003 12.1865 0.550888 13.5968 2.25417 16.0626C2.41437 16.2946 2.67338 16.4389 2.95167 16.4837C5.67025 16.9213 6.17468 18.4837 5.65564 20.9159C5.61459 21.1082 5.62417 21.3095 5.69486 21.493C6.70708 24.1211 7.76647 24.8482 10.743 24.9257C11.05 24.9337 11.341 24.7884 11.5422 24.5563C13.4481 22.3577 14.985 22.5861 16.5659 24.5336C16.7654 24.7794 17.061 24.936 17.3775 24.929C20.1811 24.867 21.3699 24.0822 22.4141 21.4707C22.4819 21.3013 22.4972 21.1155 22.4671 20.9355C22.0054 18.1741 22.5272 16.9081 25.1385 16.4872C25.4251 16.441 25.6893 16.2868 25.8462 16.0424C27.4298 13.5753 27.4272 11.9905 25.7836 9.76378C25.6617 9.59869 25.4874 9.48048 25.2926 9.416C22.4402 8.47189 21.7891 7.30159 22.4203 4.57991C22.4777 4.33244 22.4487 4.06855 22.3217 3.84853C21.0529 1.65049 19.8853 1.01127 17.3351 0.999911C17.0427 0.998608 16.7682 1.13807 16.5718 1.35471C14.774 3.3379 13.1515 3.18104 11.5538 1.3887C11.3437 1.15301 11.0434 1.00783 10.7282 1.02567C7.85262 1.18838 6.8093 1.9867 5.7899 3.81995C5.65795 4.05723 5.64097 4.34056 5.71572 4.60157Z" stroke="#5A5A5A" stroke-width="1.8" stroke-linecap="round" stroke-linejoin="round"/>
<circle cx="13.9718" cy="12.7537" r="3.70164" stroke="#5A5A5A" stroke-width="1.8"/>
</svg>
