<svg width="28" height="28" viewBox="0 0 28 28" fill="none" xmlns="http://www.w3.org/2000/svg">
<mask id="path-1-inside-1" fill="white">
<path d="M22.5619 15.2138C23.1142 15.2138 23.5666 15.6625 23.5167 16.2125C23.3504 18.0462 22.7279 19.8151 21.6991 21.3548C20.4845 23.1725 18.7582 24.5893 16.7385 25.4259C14.7187 26.2625 12.4962 26.4814 10.3521 26.0549C8.20793 25.6284 6.2384 24.5756 4.69255 23.0298C3.1467 21.4839 2.09397 19.5144 1.66747 17.3702C1.24097 15.2261 1.45986 13.0036 2.29647 10.9839C3.13308 8.96412 4.54982 7.23781 6.36755 6.02324C7.90727 4.99443 9.67612 4.37194 11.5098 4.2056C12.0599 4.1557 12.5085 4.60812 12.5085 5.1604V14.2138C12.5085 14.7661 12.9562 15.2138 13.5085 15.2138H22.5619Z"/>
</mask>
<path d="M22.5619 15.2138C23.1142 15.2138 23.5666 15.6625 23.5167 16.2125C23.3504 18.0462 22.7279 19.8151 21.6991 21.3548C20.4845 23.1725 18.7582 24.5893 16.7385 25.4259C14.7187 26.2625 12.4962 26.4814 10.3521 26.0549C8.20793 25.6284 6.2384 24.5756 4.69255 23.0298C3.1467 21.4839 2.09397 19.5144 1.66747 17.3702C1.24097 15.2261 1.45986 13.0036 2.29647 10.9839C3.13308 8.96412 4.54982 7.23781 6.36755 6.02324C7.90727 4.99443 9.67612 4.37194 11.5098 4.2056C12.0599 4.1557 12.5085 4.60812 12.5085 5.1604V14.2138C12.5085 14.7661 12.9562 15.2138 13.5085 15.2138H22.5619Z" stroke="#5A5A5A" stroke-width="1.8" stroke-linecap="round" stroke-linejoin="round" mask="url(#path-1-inside-1)"/>
<mask id="path-2-inside-2" fill="white">
<path d="M13.9633 2.68704C13.9613 2.06556 14.4646 1.55484 15.0837 1.60899C17.9713 1.86152 20.6937 3.117 22.7666 5.17661C24.8395 7.23622 26.1124 9.95051 26.3834 12.8364C26.4416 13.4552 25.9341 13.9617 25.3126 13.9637L15.1249 13.9964C14.5034 13.9984 13.998 13.4962 13.996 12.8747L13.9633 2.68704Z"/>
</mask>
<path d="M13.9633 2.68704C13.9613 2.06556 14.4646 1.55484 15.0837 1.60899C17.9713 1.86152 20.6937 3.117 22.7666 5.17661C24.8395 7.23622 26.1124 9.95051 26.3834 12.8364C26.4416 13.4552 25.9341 13.9617 25.3126 13.9637L15.1249 13.9964C14.5034 13.9984 13.998 13.4962 13.996 12.8747L13.9633 2.68704Z" stroke="#5A5A5A" stroke-width="1.8" stroke-linecap="round" stroke-linejoin="round" mask="url(#path-2-inside-2)"/>
</svg>
