<svg width="1280" height="780" xmlns="http://www.w3.org/2000/svg">
 <mask height="780" width="561" y="0" x="720" maskUnits="userSpaceOnUse" id="mask0">
  <path id="svg_1" fill="#64AEEA" d="m720.001,0l544.999,0c8.29,0 15,6.71573 15,15l0,750c0,8.284 -6.71,15 -15,15l-544.999,0l0,-780z"/>
 </mask>
 <defs>
  <filter color-interpolation-filters="sRGB" filterUnits="userSpaceOnUse" height="804.442" width="1297.46" y="-12.2208" x="-8.72917" id="filter0_dddd">
   <feGaussianBlur stdDeviation="4.36458"/>
   <feGaussianBlur stdDeviation="4.36458"/>
   <feGaussianBlur stdDeviation="1.74583"/>
   <feGaussianBlur stdDeviation="1.74583"/>
  </filter>
  <filter color-interpolation-filters="sRGB" filterUnits="userSpaceOnUse" height="23.2433" width="22.0299" y="381.765" x="987.558" id="filter2_f">
   <feGaussianBlur stdDeviation="1.34947"/>
  </filter>
  <linearGradient y2="1.000002" x2="0.5" y1="0" x1="0.5" id="paint0_linear">
   <stop stop-color="#5E9AD2"/>
   <stop stop-color="#A4D9FF" offset="1"/>
  </linearGradient>
 </defs>
 <g>
  <title>background</title>
  <rect fill="none" id="canvas_background" height="402" width="582" y="-1" x="-1"/>
 </g>
 <g>
  <title>Layer 1</title>
  <g id="svg_2" filter="url(#filter0_dddd)">
   <rect id="svg_3" fill="white" rx="15" height="780" width="1280"/>
  </g>
  <path id="svg_4" fill="#64AEEA" d="m720,0l545,0c8.28,0 15,6.71573 15,15l0,750c0,8.284 -6.72,15 -15,15l-545,0l0,-780z"/>
  <path id="svg_5" fill="#7D7D7D" d="m99.4349,39.8672l0,11.0859c0,1.2657 -0.2851,2.375 -0.8554,3.3281c-0.5625,0.9532 -1.3789,1.6836 -2.4493,2.1915c-1.0703,0.5078 -2.3359,0.7617 -3.7968,0.7617c-2.2032,0 -3.9141,-0.5625 -5.1328,-1.6875c-1.2188,-1.1328 -1.8282,-2.6797 -1.8282,-4.6407l0,-11.039l3.6211,0l0,10.4883c0,1.3203 0.2657,2.289 0.7969,2.9062c0.5313,0.6172 1.4102,0.9258 2.6367,0.9258c1.1875,0 2.0469,-0.3086 2.5781,-0.9258c0.5391,-0.625 0.8086,-1.6015 0.8086,-2.9297l0,-10.4648l3.6211,0zm11.1091,17.3672c-1.539,0 -2.746,-0.5586 -3.621,-1.6758l-0.187,0c0.125,1.0937 0.187,1.7266 0.187,1.8984l0,5.3086l-3.574,0l0,-18.8672l2.906,0l0.504,1.6993l0.164,0c0.836,-1.2969 2.074,-1.9454 3.715,-1.9454c1.547,0 2.758,0.5977 3.633,1.793c0.875,1.1953 1.312,2.8555 1.312,4.9805c0,1.3984 -0.207,2.6133 -0.621,3.6445c-0.406,1.0313 -0.988,1.8164 -1.746,2.3555c-0.758,0.539 -1.648,0.8086 -2.672,0.8086zm-1.054,-10.7227c-0.883,0 -1.528,0.2735 -1.934,0.8203c-0.406,0.5391 -0.617,1.4336 -0.633,2.6836l0,0.3867c0,1.4063 0.207,2.4141 0.621,3.0235c0.422,0.6094 1.086,0.914 1.992,0.914c1.602,0 2.403,-1.3203 2.403,-3.9609c0,-1.2891 -0.199,-2.2539 -0.598,-2.8945c-0.39,-0.6485 -1.008,-0.9727 -1.851,-0.9727zm19.441,5.7305c0,1.5469 -0.559,2.7656 -1.676,3.6562c-1.109,0.8907 -2.656,1.336 -4.64,1.336c-1.829,0 -3.446,-0.3438 -4.852,-1.0313l0,-3.375c1.156,0.5157 2.133,0.8789 2.93,1.0899c0.804,0.2109 1.539,0.3164 2.203,0.3164c0.797,0 1.406,-0.1524 1.828,-0.4571c0.43,-0.3046 0.645,-0.7578 0.645,-1.3593c0,-0.336 -0.094,-0.6328 -0.282,-0.8907c-0.187,-0.2656 -0.465,-0.5195 -0.832,-0.7617c-0.359,-0.2422 -1.097,-0.6289 -2.215,-1.1601c-1.046,-0.4922 -1.832,-0.9649 -2.355,-1.418c-0.524,-0.4531 -0.941,-0.9805 -1.254,-1.582c-0.312,-0.6016 -0.469,-1.3047 -0.469,-2.1094c0,-1.5156 0.512,-2.707 1.535,-3.5742c1.032,-0.8672 2.454,-1.3008 4.266,-1.3008c0.891,0 1.738,0.1055 2.543,0.3164c0.813,0.2109 1.66,0.5078 2.543,0.8906l-1.172,2.8242c-0.914,-0.375 -1.672,-0.6367 -2.273,-0.7851c-0.594,-0.1484 -1.18,-0.2227 -1.758,-0.2227c-0.688,0 -1.215,0.1602 -1.582,0.4805c-0.367,0.3203 -0.551,0.7383 -0.551,1.2539c0,0.3203 0.074,0.6016 0.223,0.8438c0.148,0.2343 0.383,0.4648 0.703,0.6914c0.328,0.2187 1.097,0.6171 2.308,1.1953c1.602,0.7656 2.7,1.5351 3.293,2.3086c0.594,0.7656 0.891,1.707 0.891,2.8242zm8.344,2.1445c0.625,0 1.375,-0.1367 2.25,-0.4101l0,2.6601c-0.891,0.3985 -1.985,0.5977 -3.281,0.5977c-1.43,0 -2.473,-0.3594 -3.129,-1.0782c-0.649,-0.7265 -0.973,-1.8124 -0.973,-3.2578l0,-6.3164l-1.711,0l0,-1.5117l1.969,-1.1953l1.031,-2.7656l2.285,0l0,2.789l3.668,0l0,2.6836l-3.668,0l0,6.3164c0,0.5078 0.141,0.8828 0.422,1.125c0.289,0.2422 0.668,0.3633 1.137,0.3633zm7.758,-3.9609c0,1.2969 0.211,2.2773 0.632,2.9414c0.43,0.664 1.125,0.9961 2.086,0.9961c0.953,0 1.637,-0.3281 2.051,-0.9844c0.422,-0.6641 0.633,-1.6484 0.633,-2.9531c0,-1.2969 -0.211,-2.2696 -0.633,-2.918c-0.422,-0.6484 -1.113,-0.9726 -2.074,-0.9726c-0.953,0 -1.641,0.3242 -2.063,0.9726c-0.421,0.6406 -0.632,1.6133 -0.632,2.918zm9.058,0c0,2.1328 -0.562,3.8008 -1.687,5.0039c-1.125,1.2031 -2.692,1.8047 -4.7,1.8047c-1.257,0 -2.367,-0.2735 -3.328,-0.8203c-0.961,-0.5547 -1.699,-1.3477 -2.215,-2.3789c-0.515,-1.0313 -0.773,-2.2344 -0.773,-3.6094c0,-2.1406 0.559,-3.8047 1.676,-4.9922c1.117,-1.1875 2.687,-1.7813 4.711,-1.7813c1.258,0 2.367,0.2735 3.328,0.8204c0.961,0.5468 1.699,1.332 2.215,2.3554c0.515,1.0235 0.773,2.2227 0.773,3.5977zm10.266,-6.7735c0.484,0 0.887,0.0352 1.207,0.1055l-0.27,3.3516c-0.289,-0.0782 -0.64,-0.1172 -1.054,-0.1172c-1.141,0 -2.032,0.293 -2.672,0.8789c-0.633,0.5859 -0.949,1.4062 -0.949,2.4609l0,6.668l-3.575,0l0,-13.1016l2.707,0l0.528,2.2032l0.175,0c0.407,-0.7344 0.954,-1.3243 1.641,-1.7696c0.695,-0.4531 1.449,-0.6797 2.262,-0.6797zm11.672,13.3477l-0.692,-1.7812l-0.093,0c-0.602,0.7578 -1.223,1.2851 -1.864,1.582c-0.633,0.289 -1.461,0.4336 -2.484,0.4336c-1.258,0 -2.25,-0.3594 -2.977,-1.0782c-0.718,-0.7187 -1.078,-1.7421 -1.078,-3.0703c0,-1.3906 0.485,-2.414 1.453,-3.0703c0.977,-0.664 2.446,-1.0312 4.407,-1.1015l2.273,-0.0703l0,-0.5743c0,-1.3281 -0.68,-1.9922 -2.039,-1.9922c-1.047,0 -2.277,0.3165 -3.691,0.9493l-1.184,-2.4141c1.508,-0.7891 3.18,-1.1836 5.016,-1.1836c1.757,0 3.105,0.3828 4.043,1.1484c0.937,0.7657 1.406,1.9297 1.406,3.4922l0,8.7305l-2.496,0zm-1.055,-6.0703l-1.383,0.0469c-1.039,0.0312 -1.812,0.2187 -2.32,0.5625c-0.508,0.3437 -0.762,0.8671 -0.762,1.5703c0,1.0078 0.578,1.5117 1.735,1.5117c0.828,0 1.488,-0.2383 1.98,-0.7149c0.5,-0.4765 0.75,-1.1093 0.75,-1.8984l0,-1.0781zm12.668,3.5039c0.961,0 1.648,-0.2734 2.062,-0.8203c0.415,-0.5547 0.622,-1.4492 0.622,-2.6836l0,-0.4336c0,-1.3984 -0.219,-2.4023 -0.657,-3.0117c-0.429,-0.6172 -1.125,-0.9258 -2.086,-0.9258c-1.679,0 -2.519,1.3203 -2.519,3.9609c0,1.3125 0.207,2.293 0.621,2.9414c0.422,0.6485 1.074,0.9727 1.957,0.9727zm6.023,2.5898c0,1.8828 -0.55,3.3086 -1.652,4.2774c-1.094,0.9765 -2.727,1.4648 -4.898,1.4648c-1.914,0 -3.547,-0.2578 -4.899,-0.7734l0,-2.8594c1.586,0.6719 3.289,1.0078 5.11,1.0078c1.835,0 2.753,-0.9922 2.753,-2.9765l0,-0.2579l0.106,-1.6054l-0.106,0c-0.835,1.289 -2.074,1.9336 -3.714,1.9336c-1.571,0 -2.789,-0.6055 -3.657,-1.8164c-0.859,-1.211 -1.289,-2.8594 -1.289,-4.9453c0,-2.1485 0.446,-3.8204 1.336,-5.0157c0.899,-1.2031 2.133,-1.8047 3.703,-1.8047c1.61,0 2.875,0.6407 3.797,1.9219l0.094,0l0.293,-1.6758l3.023,0l0,13.125zm9.164,-10.8281c-0.757,0 -1.351,0.2422 -1.781,0.7266c-0.429,0.4765 -0.676,1.1562 -0.738,2.039l5.016,0c-0.016,-0.8828 -0.247,-1.5625 -0.692,-2.039c-0.445,-0.4844 -1.047,-0.7266 -1.805,-0.7266zm0.504,11.0391c-2.109,0 -3.757,-0.5821 -4.945,-1.7461c-1.187,-1.1641 -1.781,-2.8125 -1.781,-4.9453c0,-2.1953 0.547,-3.8907 1.64,-5.086c1.102,-1.2031 2.622,-1.8047 4.559,-1.8047c1.852,0 3.293,0.5274 4.324,1.5821c1.031,1.0547 1.547,2.5117 1.547,4.3711l0,1.7343l-8.449,0c0.039,1.0157 0.34,1.8086 0.902,2.379c0.563,0.5703 1.352,0.8554 2.367,0.8554c0.789,0 1.536,-0.082 2.239,-0.2461c0.703,-0.164 1.437,-0.4258 2.203,-0.7851l0,2.7656c-0.625,0.3125 -1.293,0.543 -2.004,0.6914c-0.711,0.1562 -1.578,0.2344 -2.602,0.2344z"/>
  <circle id="svg_6" fill="url(#paint0_linear)" r="23.3333" cy="48.3333" cx="48.3333"/>
  <g id="svg_7" mask="url(#mask0)">
   <path id="svg_8" fill-opacity="0.1" fill="white" d="m973.439,100.904c14.457,-1.2422 21.14,4.739 21.561,19.23l-347.889,0c-1.168,-6.41 7.004,-18.357 19.23,-15.151c7.604,-16.811 29.186,-24.8363 44.87,-15.1505c5.449,-23.1838 36.787,-37.2758 61.769,-15.7336c-0.991,-12.9233 14.633,-30.5617 34.381,-25.0573c-3.05,-25.626 35.715,-45.53249 55.36,-13.4028c20.294,-22.7462 72.827,-20.1942 71.675,30.8846c20.732,2.7339 35.354,9.7374 39.043,34.3806z"/>
   <path id="svg_9" fill-opacity="0.1" fill="white" d="m1144,164.366c-19.39,-6.954 -26.22,2.455 -30,16l225.33,0c-2.56,-15.338 -14.43,-22.369 -28.66,-16c1.01,-17.039 -15.21,-28.157 -32,-25.334c-6.43,-39.6106 -76.18,-57.9105 -100.67,-6.666c-24.74,-2.091 -34.73,14.527 -34,32z"/>
   <path id="svg_10" fill-opacity="0.1" fill="white" d="m997.667,774.83c-0.555,-1.916 -21.659,-12.962 -24.667,10l508,0c-2.13,-16.517 -19.46,-28.042 -34.67,-17.333c-15.13,-28.905 -38.81,-31.94 -62.66,-15.333c0.14,-12.219 -8.12,-18.891 -20.67,-18.667c-7.49,-23.662 -26.07,-39.997 -56.67,-35.333c-23.75,-47.229 -87.1,-39.178 -98,13.333c-21.61,-26.271 -56.35,-10.589 -60,8.667c-11.93,-4.118 -17.72,-2.927 -26.66,4c-16.17,-19.4 -43.32,-19.635 -50.67,13.333c-15.55,0.816 -20.99,4.655 -22.67,19.333c-18.03,-10.567 -38.28,-13.888 -50.663,18z"/>
   <path id="svg_11" fill-opacity="0.1" fill="white" d="m904.667,496.83c-0.555,-1.916 -21.659,-12.962 -24.667,10l508,0c-2.13,-16.517 -19.46,-28.042 -34.67,-17.333c-15.13,-28.905 -38.81,-31.94 -62.66,-15.333c0.14,-12.219 -8.12,-18.891 -20.67,-18.667c-7.49,-23.662 -26.07,-39.997 -56.67,-35.333c-23.75,-47.229 -87.1,-39.178 -98,13.333c-21.61,-26.271 -56.35,-10.589 -60,8.667c-11.93,-4.118 -17.72,-2.927 -26.66,4c-16.17,-19.4 -43.323,-19.635 -50.67,13.333c-15.555,0.816 -20.994,4.655 -22.667,19.333c-18.032,-10.567 -38.287,-13.888 -50.666,18z"/>
   <path id="svg_12" fill-opacity="0.1" fill="white" d="m639,719.366c-19.394,-6.954 -26.222,2.455 -30,16l225.333,0c-2.568,-15.338 -14.431,-22.369 -28.666,-16c1.01,-17.039 -15.204,-28.157 -32,-25.334c-6.431,-39.611 -76.174,-57.911 -100.667,-6.666c-24.745,-2.091 -34.729,14.527 -34,32z"/>
   <path id="svg_13" fill-opacity="0.1" fill="white" d="m613.561,393.904c-14.457,-1.242 -21.14,4.739 -21.561,19.23l347.889,0c1.168,-6.41 -7.004,-18.357 -19.23,-15.151c-7.604,-16.811 -29.186,-24.836 -44.87,-15.15c-5.449,-23.184 -36.787,-37.276 -61.769,-15.734c0.991,-12.923 -14.633,-30.562 -34.381,-25.057c3.05,-25.626 -35.715,-45.533 -55.36,-13.403c-20.294,-22.746 -72.827,-20.194 -71.675,30.884c-20.732,2.734 -35.354,9.738 -39.043,34.381z"/>
  </g>
  <path id="svg_16" fill="#64AEEA" d="m908.465,676.062c0,0.925 -0.297,1.683 -0.889,2.276c-0.593,0.586 -1.423,0.96 -2.49,1.123l0,0.078c1.211,0.163 2.125,0.537 2.744,1.123c0.625,0.586 0.937,1.351 0.937,2.295c0,1.335 -0.504,2.376 -1.513,3.125c-1.01,0.742 -2.426,1.113 -4.248,1.113c-1.713,0 -3.099,-0.257 -4.161,-0.771l0,-1.641c0.645,0.306 1.335,0.541 2.071,0.703c0.742,0.157 1.432,0.235 2.07,0.235c1.289,0 2.259,-0.238 2.91,-0.713c0.658,-0.475 0.986,-1.159 0.986,-2.051c0,-0.853 -0.367,-1.497 -1.103,-1.934c-0.736,-0.442 -1.833,-0.664 -3.291,-0.664l-2.041,0l0,-1.504l1.934,0c1.412,0 2.467,-0.234 3.164,-0.703c0.703,-0.475 1.054,-1.113 1.054,-1.914c0,-0.69 -0.26,-1.233 -0.781,-1.631c-0.514,-0.403 -1.211,-0.605 -2.09,-0.605c-0.742,0 -1.413,0.088 -2.012,0.264c-0.592,0.175 -1.243,0.494 -1.953,0.957l-0.859,-1.221c1.374,-0.99 2.988,-1.484 4.844,-1.484c1.465,0 2.617,0.319 3.457,0.957c0.84,0.638 1.26,1.5 1.26,2.587zm9.697,10.938l-0.342,-1.523l-0.078,0c-0.534,0.67 -1.068,1.126 -1.602,1.367c-0.527,0.234 -1.194,0.351 -2.002,0.351c-1.054,0 -1.881,-0.276 -2.48,-0.83c-0.599,-0.553 -0.899,-1.334 -0.899,-2.344c0,-2.174 1.716,-3.313 5.147,-3.417l1.816,-0.069l0,-0.635c0,-0.813 -0.175,-1.412 -0.527,-1.796c-0.352,-0.391 -0.915,-0.586 -1.689,-0.586c-0.567,0 -1.104,0.084 -1.612,0.253c-0.501,0.17 -0.973,0.359 -1.416,0.567l-0.537,-1.318c0.54,-0.287 1.13,-0.512 1.768,-0.674c0.638,-0.163 1.269,-0.244 1.894,-0.244c1.296,0 2.259,0.286 2.891,0.859c0.631,0.573 0.947,1.484 0.947,2.734l0,7.305l-1.279,0zm-3.623,-1.221c0.983,0 1.754,-0.263 2.314,-0.791c0.567,-0.534 0.85,-1.289 0.85,-2.265l0,-0.967l-1.582,0.068c-1.231,0.046 -2.129,0.241 -2.696,0.586c-0.559,0.345 -0.839,0.889 -0.839,1.631c0,0.56 0.169,0.99 0.507,1.289c0.345,0.3 0.827,0.449 1.446,0.449zm13.31,1.416c-1.439,0 -2.545,-0.517 -3.32,-1.552l-0.117,0l0.039,0.4c0.052,0.508 0.078,0.96 0.078,1.357l0,4.405l-1.758,0l0,-15.528l1.445,0l0.235,1.465l0.078,0c0.417,-0.586 0.898,-1.009 1.445,-1.269c0.547,-0.261 1.179,-0.391 1.895,-0.391c1.393,0 2.474,0.485 3.242,1.455c0.775,0.964 1.162,2.324 1.162,4.082c0,1.751 -0.387,3.119 -1.162,4.102c-0.775,0.983 -1.862,1.474 -3.262,1.474zm-0.293,-9.638c-1.061,0 -1.829,0.299 -2.304,0.898c-0.469,0.599 -0.71,1.54 -0.723,2.822l0,0.342c0,1.452 0.241,2.503 0.723,3.154c0.481,0.645 1.263,0.967 2.343,0.967c0.899,0 1.599,-0.364 2.1,-1.094c0.508,-0.729 0.762,-1.744 0.762,-3.046c0,-1.309 -0.254,-2.308 -0.762,-2.998c-0.501,-0.697 -1.214,-1.045 -2.139,-1.045zm12.08,9.638c-1.608,0 -2.871,-0.485 -3.789,-1.455c-0.911,-0.976 -1.367,-2.317 -1.367,-4.023c0,-1.719 0.427,-3.086 1.279,-4.102c0.853,-1.022 2.006,-1.533 3.457,-1.533c1.348,0 2.422,0.436 3.223,1.309c0.801,0.866 1.201,2.041 1.201,3.525l0,1.064l-7.343,0c0.032,1.218 0.341,2.142 0.927,2.774c0.586,0.631 1.416,0.947 2.491,0.947c0.572,0 1.116,-0.049 1.63,-0.146c0.515,-0.104 1.117,-0.303 1.807,-0.596l0,1.543c-0.592,0.254 -1.149,0.433 -1.67,0.537c-0.521,0.104 -1.136,0.156 -1.846,0.156zm-0.439,-9.677c-0.84,0 -1.504,0.27 -1.992,0.81c-0.489,0.54 -0.778,1.292 -0.869,2.256l5.459,0c-0.013,-1.003 -0.245,-1.764 -0.694,-2.285c-0.449,-0.521 -1.084,-0.781 -1.904,-0.781zm13.711,0.244l-4.785,0l0,9.238l-1.758,0l0,-10.723l6.543,0l0,1.485zm3.789,-1.485l0,6.543l-0.078,1.895l-0.039,0.547l5.742,-8.985l2.158,0l0,10.723l-1.64,0l0,-6.318l0.029,-1.358l0.049,-1.289l-5.703,8.965l-2.178,0l0,-10.723l1.66,0zm15.508,10.918c-1.543,0 -2.744,-0.472 -3.604,-1.416c-0.859,-0.95 -1.289,-2.311 -1.289,-4.082c0,-1.797 0.433,-3.18 1.299,-4.15c0.872,-0.977 2.113,-1.465 3.721,-1.465c0.521,0 1.035,0.055 1.543,0.166c0.514,0.104 0.937,0.241 1.269,0.41l-0.537,1.465c-0.905,-0.338 -1.676,-0.508 -2.314,-0.508c-1.081,0 -1.879,0.342 -2.393,1.026c-0.514,0.677 -0.771,1.689 -0.771,3.037c0,1.295 0.257,2.288 0.771,2.978c0.514,0.684 1.276,1.026 2.285,1.026c0.944,0 1.872,-0.209 2.783,-0.625l0,1.562c-0.742,0.384 -1.663,0.576 -2.763,0.576zm12.715,-9.433l-3.506,0l0,9.238l-1.739,0l0,-9.238l-3.457,0l0,-1.485l8.702,0l0,1.485zm7.207,9.433c-1.439,0 -2.546,-0.517 -3.321,-1.552l-0.117,0l0.039,0.4c0.052,0.508 0.078,0.96 0.078,1.357l0,4.405l-1.757,0l0,-15.528l1.445,0l0.234,1.465l0.078,0c0.417,-0.586 0.899,-1.009 1.446,-1.269c0.547,-0.261 1.178,-0.391 1.894,-0.391c1.393,0 2.474,0.485 3.242,1.455c0.775,0.964 1.162,2.324 1.162,4.082c0,1.751 -0.387,3.119 -1.162,4.102c-0.774,0.983 -1.862,1.474 -3.261,1.474zm-0.293,-9.638c-1.062,0 -1.83,0.299 -2.305,0.898c-0.469,0.599 -0.71,1.54 -0.723,2.822l0,0.342c0,1.452 0.241,2.503 0.723,3.154c0.482,0.645 1.263,0.967 2.344,0.967c0.898,0 1.598,-0.364 2.099,-1.094c0.508,-0.729 0.762,-1.744 0.762,-3.046c0,-1.309 -0.254,-2.308 -0.762,-2.998c-0.501,-0.697 -1.214,-1.045 -2.138,-1.045zm9.176,-1.28l0,6.543l-0.07,1.895l-0.04,0.547l5.74,-8.985l2.16,0l0,10.723l-1.64,0l0,-6.318l0.03,-1.358l0.04,-1.289l-5.7,8.965l-2.177,0l0,-10.723l1.657,0zm16.29,10.918c-1.44,0 -2.54,-0.517 -3.32,-1.552l-0.12,0l0.04,0.4c0.06,0.508 0.08,0.96 0.08,1.357l0,4.405l-1.76,0l0,-15.528l1.45,0l0.23,1.465l0.08,0c0.42,-0.586 0.9,-1.009 1.45,-1.269c0.54,-0.261 1.18,-0.391 1.89,-0.391c1.4,0 2.48,0.485 3.24,1.455c0.78,0.964 1.17,2.324 1.17,4.082c0,1.751 -0.39,3.119 -1.17,4.102c-0.77,0.983 -1.86,1.474 -3.26,1.474zm-0.29,-9.638c-1.06,0 -1.83,0.299 -2.31,0.898c-0.46,0.599 -0.7,1.54 -0.72,2.822l0,0.342c0,1.452 0.24,2.503 0.72,3.154c0.49,0.645 1.27,0.967 2.35,0.967c0.9,0 1.6,-0.364 2.1,-1.094c0.51,-0.729 0.76,-1.744 0.76,-3.046c0,-1.309 -0.25,-2.308 -0.76,-2.998c-0.5,-0.697 -1.22,-1.045 -2.14,-1.045zm16.84,4.062c0,1.751 -0.45,3.119 -1.33,4.102c-0.89,0.983 -2.11,1.474 -3.67,1.474c-0.97,0 -1.83,-0.224 -2.58,-0.674c-0.75,-0.455 -1.33,-1.106 -1.73,-1.953c-0.4,-0.846 -0.61,-1.829 -0.61,-2.949c0,-1.745 0.44,-3.102 1.31,-4.072c0.87,-0.977 2.1,-1.465 3.67,-1.465c1.51,0 2.71,0.498 3.6,1.494c0.89,0.99 1.34,2.337 1.34,4.043zm-8.1,0c0,1.348 0.26,2.373 0.79,3.076c0.53,0.697 1.32,1.045 2.35,1.045c1.03,0 1.8,-0.348 2.34,-1.045c0.53,-0.703 0.8,-1.728 0.8,-3.076c0,-1.348 -0.27,-2.36 -0.81,-3.037c-0.54,-0.684 -1.32,-1.025 -2.36,-1.025c-2.07,0 -3.11,1.354 -3.11,4.062zm19.71,-2.637c0,0.691 -0.2,1.218 -0.59,1.582c-0.39,0.359 -0.95,0.603 -1.67,0.733l0,0.088c0.91,0.123 1.56,0.394 1.97,0.81c0.42,0.41 0.63,0.964 0.63,1.66c0,1.016 -0.38,1.794 -1.12,2.334c-0.75,0.541 -1.82,0.811 -3.22,0.811l-4.82,0l0,-10.723l4.8,0c2.68,0 4.02,0.902 4.02,2.705zm-1.42,4.776c0,-0.599 -0.23,-1.019 -0.7,-1.26c-0.47,-0.241 -1.16,-0.361 -2.06,-0.361l-2.88,0l0,3.447l2.92,0c1.81,0 2.72,-0.609 2.72,-1.826zm-0.3,-4.619c0,-0.502 -0.2,-0.86 -0.59,-1.075c-0.38,-0.214 -0.96,-0.322 -1.75,-0.322l-3,0l0,2.94l2.68,0c0.96,0 1.64,-0.118 2.04,-0.352c0.41,-0.241 0.62,-0.638 0.62,-1.191zm11.04,7.861l-0.34,-1.523l-0.08,0c-0.53,0.67 -1.06,1.126 -1.6,1.367c-0.53,0.234 -1.19,0.351 -2,0.351c-1.06,0 -1.88,-0.276 -2.48,-0.83c-0.6,-0.553 -0.9,-1.334 -0.9,-2.344c0,-2.174 1.72,-3.313 5.15,-3.417l1.81,-0.069l0,-0.635c0,-0.813 -0.17,-1.412 -0.52,-1.796c-0.36,-0.391 -0.92,-0.586 -1.69,-0.586c-0.57,0 -1.11,0.084 -1.61,0.253c-0.51,0.17 -0.98,0.359 -1.42,0.567l-0.54,-1.318c0.54,-0.287 1.13,-0.512 1.77,-0.674c0.64,-0.163 1.27,-0.244 1.89,-0.244c1.3,0 2.26,0.286 2.89,0.859c0.64,0.573 0.95,1.484 0.95,2.734l0,7.305l-1.28,0zm-3.62,-1.221c0.98,0 1.75,-0.263 2.31,-0.791c0.57,-0.534 0.85,-1.289 0.85,-2.265l0,-0.967l-1.58,0.068c-1.23,0.046 -2.13,0.241 -2.69,0.586c-0.56,0.345 -0.84,0.889 -0.84,1.631c0,0.56 0.17,0.99 0.5,1.289c0.35,0.3 0.83,0.449 1.45,0.449zm15.63,-8.017l-3.5,0l0,9.238l-1.74,0l0,-9.238l-3.46,0l0,-1.485l8.7,0l0,1.485zm3.89,2.92l3.18,0c2.79,0 4.18,1.012 4.18,3.037c0,1.067 -0.36,1.881 -1.08,2.441c-0.72,0.56 -1.78,0.84 -3.17,0.84l-4.87,0l0,-10.723l1.76,0l0,4.405zm5.61,3.134c0,-0.573 -0.21,-0.996 -0.61,-1.269c-0.4,-0.274 -1.08,-0.41 -2.02,-0.41l-2.98,0l0,3.447l3.03,0c0.83,0 1.46,-0.15 1.9,-0.449c0.45,-0.3 0.68,-0.739 0.68,-1.319zm8.82,3.379c-1.54,0 -2.74,-0.472 -3.6,-1.416c-0.86,-0.95 -1.29,-2.311 -1.29,-4.082c0,-1.797 0.44,-3.18 1.3,-4.15c0.87,-0.977 2.11,-1.465 3.72,-1.465c0.52,0 1.04,0.055 1.54,0.166c0.52,0.104 0.94,0.241 1.27,0.41l-0.53,1.465c-0.91,-0.338 -1.68,-0.508 -2.32,-0.508c-1.08,0 -1.88,0.342 -2.39,1.026c-0.51,0.677 -0.77,1.689 -0.77,3.037c0,1.295 0.26,2.288 0.77,2.978c0.51,0.684 1.28,1.026 2.29,1.026c0.94,0 1.87,-0.209 2.78,-0.625l0,1.562c-0.74,0.384 -1.66,0.576 -2.77,0.576zm5.98,-0.195l-2.04,0l3.06,-4.502c-0.82,-0.208 -1.44,-0.576 -1.87,-1.103c-0.42,-0.528 -0.63,-1.179 -0.63,-1.954c0,-0.989 0.33,-1.764 1,-2.324c0.67,-0.56 1.6,-0.84 2.8,-0.84l4.8,0l0,10.723l-1.76,0l0,-4.258l-2.6,0l-2.76,4.258zm0.22,-7.539c0,1.211 0.87,1.816 2.61,1.816l2.53,0l0,-3.535l-2.86,0c-0.75,0 -1.32,0.147 -1.71,0.44c-0.38,0.293 -0.57,0.719 -0.57,1.279z"/>
  <path id="svg_17" fill="white" d="m918.819,209l-7.978,0l0,-14.277l7.978,0l0,1.582l-6.181,0l0,4.453l5.82,0l0,1.562l-5.82,0l0,5.098l6.181,0l0,1.582zm11.055,-1.484l4.639,0l0,-9.239l1.738,0l0,9.258l1.562,0l0,5.166l-1.767,0l0,-3.701l-14.317,0l0,-10.723l1.758,0l0,9.239l4.619,0l0,-9.239l1.768,0l0,9.239zm14.541,1.679c-1.608,0 -2.871,-0.485 -3.789,-1.455c-0.911,-0.976 -1.367,-2.317 -1.367,-4.023c0,-1.719 0.426,-3.086 1.279,-4.102c0.853,-1.022 2.005,-1.533 3.457,-1.533c1.348,0 2.422,0.436 3.223,1.309c0.801,0.866 1.201,2.041 1.201,3.525l0,1.064l-7.344,0c0.033,1.218 0.342,2.142 0.928,2.774c0.586,0.631 1.416,0.947 2.49,0.947c0.573,0 1.117,-0.049 1.631,-0.146c0.514,-0.104 1.117,-0.303 1.807,-0.596l0,1.543c-0.593,0.254 -1.149,0.433 -1.67,0.537c-0.521,0.104 -1.136,0.156 -1.846,0.156zm-0.439,-9.677c-0.84,0 -1.504,0.27 -1.993,0.81c-0.488,0.54 -0.778,1.292 -0.869,2.256l5.459,0c-0.013,-1.003 -0.244,-1.764 -0.693,-2.285c-0.449,-0.521 -1.084,-0.781 -1.904,-0.781zm14.121,-1.241l0,4.463l5.82,0l0,-4.463l1.758,0l0,10.723l-1.758,0l0,-4.775l-5.82,0l0,4.775l-1.758,0l0,-10.723l1.758,0zm15.556,10.918c-1.608,0 -2.871,-0.485 -3.789,-1.455c-0.911,-0.976 -1.367,-2.317 -1.367,-4.023c0,-1.719 0.427,-3.086 1.279,-4.102c0.853,-1.022 2.006,-1.533 3.457,-1.533c1.348,0 2.422,0.436 3.223,1.309c0.801,0.866 1.201,2.041 1.201,3.525l0,1.064l-7.344,0c0.033,1.218 0.342,2.142 0.928,2.774c0.586,0.631 1.416,0.947 2.49,0.947c0.573,0 1.117,-0.049 1.631,-0.146c0.515,-0.104 1.117,-0.303 1.807,-0.596l0,1.543c-0.593,0.254 -1.149,0.433 -1.67,0.537c-0.521,0.104 -1.136,0.156 -1.846,0.156zm-0.439,-9.677c-0.84,0 -1.504,0.27 -1.992,0.81c-0.489,0.54 -0.778,1.292 -0.869,2.256l5.459,0c-0.013,-1.003 -0.245,-1.764 -0.694,-2.285c-0.449,-0.521 -1.084,-0.781 -1.904,-0.781zm14.57,0.244l-3.506,0l0,9.238l-1.738,0l0,-9.238l-3.457,0l0,-1.485l8.701,0l0,1.485zm13.946,9.238l-0.34,-1.523l-0.08,0c-0.53,0.67 -1.07,1.126 -1.602,1.367c-0.527,0.234 -1.195,0.351 -2.002,0.351c-1.055,0 -1.881,-0.276 -2.48,-0.83c-0.599,-0.553 -0.899,-1.334 -0.899,-2.344c0,-2.174 1.716,-3.313 5.147,-3.417l1.816,-0.069l0,-0.635c0,-0.813 -0.18,-1.412 -0.53,-1.796c-0.35,-0.391 -0.912,-0.586 -1.687,-0.586c-0.566,0 -1.103,0.084 -1.611,0.253c-0.501,0.17 -0.973,0.359 -1.416,0.567l-0.537,-1.318c0.54,-0.287 1.129,-0.512 1.767,-0.674c0.638,-0.163 1.27,-0.244 1.895,-0.244c1.299,0 2.259,0.286 2.889,0.859c0.63,0.573 0.95,1.484 0.95,2.734l0,7.305l-1.28,0zm-3.624,-1.221c0.984,0 1.755,-0.263 2.314,-0.791c0.57,-0.534 0.85,-1.289 0.85,-2.265l0,-0.967l-1.582,0.068c-1.23,0.046 -2.128,0.241 -2.695,0.586c-0.56,0.345 -0.84,0.889 -0.84,1.631c0,0.56 0.17,0.99 0.508,1.289c0.345,0.3 0.827,0.449 1.445,0.449zm14.574,-9.502l1.92,0l-4.58,5.166l4.96,5.557l-2.04,0l-4.84,-5.439l0,5.439l-1.76,0l0,-10.723l1.76,0l0,5.205l4.58,-5.205zm10.58,0l1.93,0l-4.58,5.166l4.96,5.557l-2.04,0l-4.85,-5.439l0,5.439l-1.76,0l0,-10.723l1.76,0l0,5.205l4.58,-5.205zm10.87,10.723l-0.34,-1.523l-0.08,0c-0.53,0.67 -1.07,1.126 -1.6,1.367c-0.53,0.234 -1.19,0.351 -2,0.351c-1.06,0 -1.88,-0.276 -2.48,-0.83c-0.6,-0.553 -0.9,-1.334 -0.9,-2.344c0,-2.174 1.71,-3.313 5.15,-3.417l1.81,-0.069l0,-0.635c0,-0.813 -0.17,-1.412 -0.52,-1.796c-0.36,-0.391 -0.92,-0.586 -1.69,-0.586c-0.57,0 -1.11,0.084 -1.62,0.253c-0.5,0.17 -0.97,0.359 -1.41,0.567l-0.54,-1.318c0.54,-0.287 1.13,-0.512 1.77,-0.674c0.64,-0.163 1.27,-0.244 1.89,-0.244c1.3,0 2.26,0.286 2.89,0.859c0.64,0.573 0.95,1.484 0.95,2.734l0,7.305l-1.28,0zm-3.62,-1.221c0.98,0 1.75,-0.263 2.31,-0.791c0.57,-0.534 0.85,-1.289 0.85,-2.265l0,-0.967l-1.58,0.068c-1.23,0.046 -2.13,0.241 -2.69,0.586c-0.56,0.345 -0.84,0.889 -0.84,1.631c0,0.56 0.16,0.99 0.5,1.289c0.35,0.3 0.83,0.449 1.45,0.449zm6.55,-9.502l1.89,0l2.31,6.104c0.49,1.328 0.79,2.301 0.9,2.92l0.08,0c0.06,-0.241 0.19,-0.69 0.4,-1.348c0.21,-0.664 0.38,-1.195 0.53,-1.592l2.17,-6.084l1.9,0l-4.62,12.207c-0.45,1.185 -0.98,2.035 -1.6,2.549c-0.62,0.515 -1.39,0.772 -2.3,0.772c-0.49,0 -0.97,-0.056 -1.45,-0.166l0,-1.397c0.32,0.078 0.71,0.117 1.17,0.117c0.56,0 1.03,-0.156 1.42,-0.468c0.39,-0.306 0.71,-0.782 0.96,-1.426l0.56,-1.426l-4.32,-10.762zm13.63,0l0,4.463l5.82,0l0,-4.463l1.76,0l0,10.723l-1.76,0l0,-4.775l-5.82,0l0,4.775l-1.75,0l0,-10.723l1.75,0zm18.4,1.485l-3.5,0l0,9.238l-1.74,0l0,-9.238l-3.46,0l0,-1.485l8.7,0l0,1.485zm8.75,9.238l-0.34,-1.523l-0.08,0c-0.53,0.67 -1.06,1.126 -1.6,1.367c-0.53,0.234 -1.19,0.351 -2,0.351c-1.06,0 -1.88,-0.276 -2.48,-0.83c-0.6,-0.553 -0.9,-1.334 -0.9,-2.344c0,-2.174 1.72,-3.313 5.15,-3.417l1.81,-0.069l0,-0.635c0,-0.813 -0.17,-1.412 -0.52,-1.796c-0.36,-0.391 -0.92,-0.586 -1.69,-0.586c-0.57,0 -1.11,0.084 -1.61,0.253c-0.51,0.17 -0.98,0.359 -1.42,0.567l-0.54,-1.318c0.54,-0.287 1.13,-0.512 1.77,-0.674c0.64,-0.163 1.27,-0.244 1.89,-0.244c1.3,0 2.26,0.286 2.89,0.859c0.64,0.573 0.95,1.484 0.95,2.734l0,7.305l-1.28,0zm-3.62,-1.221c0.98,0 1.75,-0.263 2.31,-0.791c0.57,-0.534 0.85,-1.289 0.85,-2.265l0,-0.967l-1.58,0.068c-1.23,0.046 -2.13,0.241 -2.69,0.586c-0.56,0.345 -0.84,0.889 -0.84,1.631c0,0.56 0.17,0.99 0.5,1.289c0.35,0.3 0.83,0.449 1.45,0.449zm10.34,-2.822l0,-0.361c0,-0.371 0.02,-0.707 0.07,-1.006c0.05,-0.3 0.14,-0.58 0.26,-0.84c0.13,-0.26 0.31,-0.514 0.52,-0.762c0.22,-0.254 0.49,-0.517 0.81,-0.791c0.31,-0.267 0.58,-0.508 0.8,-0.722c0.22,-0.222 0.4,-0.443 0.54,-0.664c0.14,-0.228 0.25,-0.469 0.31,-0.723c0.07,-0.261 0.11,-0.563 0.11,-0.908c0,-0.313 -0.05,-0.596 -0.15,-0.85c-0.09,-0.26 -0.24,-0.482 -0.43,-0.664c-0.18,-0.189 -0.41,-0.332 -0.69,-0.43c-0.27,-0.104 -0.59,-0.156 -0.96,-0.156c-0.54,0 -1.05,0.085 -1.54,0.254c-0.49,0.169 -0.96,0.365 -1.42,0.586l-0.61,-1.416c0.53,-0.274 1.1,-0.505 1.71,-0.693c0.61,-0.196 1.23,-0.293 1.86,-0.293c0.61,0 1.15,0.084 1.63,0.253c0.49,0.163 0.91,0.401 1.24,0.713c0.34,0.313 0.6,0.697 0.79,1.153c0.18,0.449 0.27,0.957 0.27,1.523c0,0.436 -0.05,0.827 -0.14,1.172c-0.08,0.339 -0.21,0.654 -0.39,0.947c-0.17,0.293 -0.39,0.576 -0.65,0.85c-0.26,0.273 -0.57,0.563 -0.92,0.869c-0.34,0.293 -0.62,0.55 -0.83,0.772c-0.22,0.214 -0.39,0.426 -0.51,0.634c-0.12,0.202 -0.21,0.41 -0.25,0.625c-0.05,0.215 -0.07,0.466 -0.07,0.752l0,0.176l-1.36,0zm-0.47,2.959c0,-0.247 0.04,-0.456 0.1,-0.625c0.07,-0.176 0.15,-0.316 0.26,-0.42c0.11,-0.111 0.24,-0.189 0.39,-0.234c0.15,-0.052 0.32,-0.078 0.49,-0.078c0.17,0 0.33,0.026 0.48,0.078c0.16,0.045 0.29,0.123 0.4,0.234c0.11,0.104 0.2,0.244 0.27,0.42c0.06,0.169 0.09,0.378 0.09,0.625c0,0.241 -0.03,0.449 -0.09,0.625c-0.07,0.169 -0.16,0.309 -0.27,0.42c-0.11,0.111 -0.24,0.192 -0.4,0.244c-0.15,0.052 -0.31,0.078 -0.48,0.078c-0.17,0 -0.34,-0.026 -0.49,-0.078c-0.15,-0.052 -0.28,-0.133 -0.39,-0.244c-0.11,-0.111 -0.19,-0.251 -0.26,-0.42c-0.06,-0.176 -0.1,-0.384 -0.1,-0.625zm-223.806,15.184c-1.536,0 -2.744,0.514 -3.623,1.543c-0.879,1.028 -1.318,2.434 -1.318,4.218c0,1.843 0.426,3.265 1.279,4.268c0.853,0.996 2.067,1.494 3.643,1.494c1.015,0 2.158,-0.189 3.427,-0.566l0,1.562c-0.605,0.221 -1.188,0.371 -1.748,0.449c-0.56,0.085 -1.204,0.127 -1.933,0.127c-2.103,0 -3.724,-0.638 -4.864,-1.914c-1.132,-1.282 -1.699,-3.095 -1.699,-5.439c0,-1.472 0.27,-2.761 0.811,-3.867c0.547,-1.107 1.338,-1.96 2.373,-2.559c1.042,-0.599 2.265,-0.898 3.672,-0.898c1.51,0 2.825,0.28 3.945,0.839l-0.723,1.524c-1.139,-0.521 -2.22,-0.781 -3.242,-0.781zm12.617,2.177l1.924,0l-4.58,5.166l4.961,5.557l-2.041,0l-4.844,-5.439l0,5.439l-1.758,0l0,-10.723l1.758,0l0,5.205l4.58,-5.205zm13.37,5.342c0,1.751 -0.443,3.119 -1.329,4.102c-0.885,0.983 -2.109,1.474 -3.671,1.474c-0.971,0 -1.83,-0.224 -2.579,-0.674c-0.748,-0.455 -1.324,-1.106 -1.728,-1.953c-0.404,-0.846 -0.606,-1.829 -0.606,-2.949c0,-1.745 0.437,-3.102 1.309,-4.072c0.872,-0.977 2.096,-1.465 3.672,-1.465c1.51,0 2.708,0.498 3.594,1.494c0.892,0.99 1.338,2.337 1.338,4.043zm-8.096,0c0,1.348 0.263,2.373 0.791,3.076c0.534,0.697 1.318,1.045 2.353,1.045c1.022,0 1.8,-0.348 2.334,-1.045c0.534,-0.703 0.801,-1.728 0.801,-3.076c0,-1.348 -0.27,-2.36 -0.81,-3.037c-0.534,-0.684 -1.319,-1.025 -2.354,-1.025c-2.077,0 -3.115,1.354 -3.115,4.062zm15.967,5.576c-1.439,0 -2.546,-0.517 -3.321,-1.552l-0.117,0l0.039,0.4c0.052,0.508 0.078,0.96 0.078,1.357l0,4.405l-1.758,0l0,-15.528l1.446,0l0.234,1.465l0.078,0c0.417,-0.586 0.899,-1.009 1.446,-1.269c0.546,-0.261 1.178,-0.391 1.894,-0.391c1.393,0 2.474,0.485 3.242,1.455c0.775,0.964 1.162,2.324 1.162,4.082c0,1.751 -0.387,3.119 -1.162,4.102c-0.774,0.983 -1.862,1.474 -3.261,1.474zm-0.293,-9.638c-1.062,0 -1.83,0.299 -2.305,0.898c-0.469,0.599 -0.71,1.54 -0.723,2.822l0,0.342c0,1.452 0.241,2.503 0.723,3.154c0.482,0.645 1.263,0.967 2.344,0.967c0.898,0 1.598,-0.364 2.099,-1.094c0.508,-0.729 0.762,-1.744 0.762,-3.046c0,-1.309 -0.254,-2.308 -0.762,-2.998c-0.501,-0.697 -1.214,-1.045 -2.138,-1.045zm12.08,9.638c-1.608,0 -2.871,-0.485 -3.789,-1.455c-0.912,-0.976 -1.368,-2.317 -1.368,-4.023c0,-1.719 0.427,-3.086 1.28,-4.102c0.853,-1.022 2.005,-1.533 3.457,-1.533c1.347,0 2.422,0.436 3.222,1.309c0.801,0.866 1.202,2.041 1.202,3.525l0,1.064l-7.344,0c0.032,1.218 0.342,2.142 0.928,2.774c0.586,0.631 1.416,0.947 2.49,0.947c0.573,0 1.116,-0.049 1.631,-0.146c0.514,-0.104 1.116,-0.303 1.806,-0.596l0,1.543c-0.592,0.254 -1.149,0.433 -1.67,0.537c-0.52,0.104 -1.136,0.156 -1.845,0.156zm-0.44,-9.677c-0.84,0 -1.504,0.27 -1.992,0.81c-0.488,0.54 -0.778,1.292 -0.869,2.256l5.459,0c-0.013,-1.003 -0.244,-1.764 -0.693,-2.285c-0.45,-0.521 -1.084,-0.781 -1.905,-0.781zm11.729,9.677c-1.608,0 -2.871,-0.485 -3.789,-1.455c-0.912,-0.976 -1.367,-2.317 -1.367,-4.023c0,-1.719 0.426,-3.086 1.279,-4.102c0.853,-1.022 2.005,-1.533 3.457,-1.533c1.348,0 2.422,0.436 3.223,1.309c0.8,0.866 1.201,2.041 1.201,3.525l0,1.064l-7.344,0c0.032,1.218 0.342,2.142 0.928,2.774c0.586,0.631 1.416,0.947 2.49,0.947c0.573,0 1.116,-0.049 1.631,-0.146c0.514,-0.104 1.116,-0.303 1.806,-0.596l0,1.543c-0.592,0.254 -1.149,0.433 -1.67,0.537c-0.52,0.104 -1.136,0.156 -1.845,0.156zm-0.44,-9.677c-0.84,0 -1.504,0.27 -1.992,0.81c-0.488,0.54 -0.778,1.292 -0.869,2.256l5.459,0c-0.013,-1.003 -0.244,-1.764 -0.693,-2.285c-0.45,-0.521 -1.084,-0.781 -1.905,-0.781zm14.121,9.482l-1.757,0l0,-10.723l9.062,0l0,10.723l-1.758,0l0,-9.219l-5.547,0l0,9.219zm15.801,0.195c-1.439,0 -2.545,-0.517 -3.32,-1.552l-0.117,0l0.039,0.4c0.052,0.508 0.078,0.96 0.078,1.357l0,4.405l-1.758,0l0,-15.528l1.445,0l0.235,1.465l0.078,0c0.417,-0.586 0.898,-1.009 1.445,-1.269c0.547,-0.261 1.179,-0.391 1.895,-0.391c1.393,0 2.474,0.485 3.242,1.455c0.775,0.964 1.162,2.324 1.162,4.082c0,1.751 -0.387,3.119 -1.162,4.102c-0.775,0.983 -1.862,1.474 -3.262,1.474zm-0.293,-9.638c-1.061,0 -1.829,0.299 -2.304,0.898c-0.469,0.599 -0.71,1.54 -0.723,2.822l0,0.342c0,1.452 0.241,2.503 0.723,3.154c0.481,0.645 1.263,0.967 2.343,0.967c0.899,0 1.599,-0.364 2.1,-1.094c0.508,-0.729 0.762,-1.744 0.762,-3.046c0,-1.309 -0.254,-2.308 -0.762,-2.998c-0.501,-0.697 -1.214,-1.045 -2.139,-1.045zm9.18,-1.28l0,6.543l-0.078,1.895l-0.039,0.547l5.742,-8.985l2.158,0l0,10.723l-1.641,0l0,-6.318l0.03,-1.358l0.049,-1.289l-5.704,8.965l-2.177,0l0,-10.723l1.66,0zm15.508,10.918c-1.543,0 -2.744,-0.472 -3.604,-1.416c-0.859,-0.95 -1.289,-2.311 -1.289,-4.082c0,-1.797 0.433,-3.18 1.299,-4.15c0.872,-0.977 2.113,-1.465 3.721,-1.465c0.521,0 1.035,0.055 1.543,0.166c0.514,0.104 0.937,0.241 1.269,0.41l-0.537,1.465c-0.905,-0.338 -1.676,-0.508 -2.314,-0.508c-1.081,0 -1.879,0.342 -2.393,1.026c-0.514,0.677 -0.771,1.689 -0.771,3.037c0,1.295 0.257,2.288 0.771,2.978c0.514,0.684 1.276,1.026 2.285,1.026c0.944,0 1.872,-0.209 2.783,-0.625l0,1.562c-0.742,0.384 -1.663,0.576 -2.763,0.576zm14.629,-5.576c0,1.751 -0.443,3.119 -1.328,4.102c-0.886,0.983 -2.11,1.474 -3.672,1.474c-0.97,0 -1.83,-0.224 -2.578,-0.674c-0.749,-0.455 -1.325,-1.106 -1.729,-1.953c-0.404,-0.846 -0.605,-1.829 -0.605,-2.949c0,-1.745 0.436,-3.102 1.308,-4.072c0.873,-0.977 2.096,-1.465 3.672,-1.465c1.51,0 2.708,0.498 3.594,1.494c0.892,0.99 1.338,2.337 1.338,4.043zm-8.096,0c0,1.348 0.264,2.373 0.791,3.076c0.534,0.697 1.318,1.045 2.353,1.045c1.023,0 1.801,-0.348 2.334,-1.045c0.534,-0.703 0.801,-1.728 0.801,-3.076c0,-1.348 -0.27,-2.36 -0.81,-3.037c-0.534,-0.684 -1.319,-1.025 -2.354,-1.025c-2.077,0 -3.115,1.354 -3.115,4.062zm15.449,5.576c-1.608,0 -2.871,-0.485 -3.789,-1.455c-0.911,-0.976 -1.367,-2.317 -1.367,-4.023c0,-1.719 0.426,-3.086 1.279,-4.102c0.853,-1.022 2.005,-1.533 3.457,-1.533c1.348,0 2.422,0.436 3.223,1.309c0.801,0.866 1.201,2.041 1.201,3.525l0,1.064l-7.344,0c0.033,1.218 0.342,2.142 0.928,2.774c0.586,0.631 1.416,0.947 2.49,0.947c0.573,0 1.117,-0.049 1.631,-0.146c0.514,-0.104 1.117,-0.303 1.807,-0.596l0,1.543c-0.593,0.254 -1.149,0.433 -1.67,0.537c-0.521,0.104 -1.136,0.156 -1.846,0.156zm-0.439,-9.677c-0.84,0 -1.504,0.27 -1.992,0.81c-0.489,0.54 -0.778,1.292 -0.87,2.256l5.459,0c-0.013,-1.003 -0.244,-1.764 -0.693,-2.285c-0.449,-0.521 -1.084,-0.781 -1.904,-0.781zm16.692,13.203l-1.7,0l0,-3.721l-7.46,0l0,3.721l-1.683,0l0,-5.205l0.86,0c0.863,-1.205 1.543,-2.598 2.023,-4.18c0.48,-1.589 0.73,-3.275 0.76,-5.059l5.63,0l0,9.239l1.57,0l0,5.205zm-3.26,-5.205l0,-7.852l-2.39,0c-0.1,1.439 -0.37,2.884 -0.84,4.336c-0.45,1.445 -1.01,2.617 -1.68,3.516l4.91,0zm7.02,-9.239l0,6.543l-0.08,1.895l-0.04,0.547l5.74,-8.985l2.16,0l0,10.723l-1.64,0l0,-6.318l0.03,-1.358l0.05,-1.289l-5.71,8.965l-2.17,0l0,-10.723l1.66,0zm12.97,0l0,4.463l5.82,0l0,-4.463l1.75,0l0,10.723l-1.75,0l0,-4.775l-5.82,0l0,4.775l-1.76,0l0,-10.723l1.76,0zm11.66,10.723l-2.05,0l3.06,-4.502c-0.82,-0.208 -1.44,-0.576 -1.86,-1.103c-0.43,-0.528 -0.64,-1.179 -0.64,-1.954c0,-0.989 0.34,-1.764 1.01,-2.324c0.67,-0.56 1.6,-0.84 2.79,-0.84l4.8,0l0,10.723l-1.75,0l0,-4.258l-2.61,0l-2.75,4.258zm0.21,-7.539c0,1.211 0.87,1.816 2.62,1.816l2.53,0l0,-3.535l-2.86,0c-0.75,0 -1.32,0.147 -1.71,0.44c-0.39,0.293 -0.58,0.719 -0.58,1.279zm11.97,-3.184l0,6.543l-0.07,1.895l-0.04,0.547l5.74,-8.985l2.16,0l0,10.723l-1.64,0l0,-6.318l0.03,-1.358l0.04,-1.289l-5.7,8.965l-2.18,0l0,-10.723l1.66,0zm3.03,-1.396c-1.25,0 -2.16,-0.238 -2.73,-0.713c-0.57,-0.475 -0.89,-1.25 -0.95,-2.324l1.64,0c0.06,0.677 0.23,1.149 0.53,1.416c0.3,0.267 0.81,0.4 1.55,0.4c0.67,0 1.17,-0.143 1.48,-0.43c0.33,-0.286 0.53,-0.748 0.6,-1.386l1.66,0c-0.1,1.054 -0.45,1.826 -1.06,2.314c-0.62,0.482 -1.52,0.723 -2.72,0.723zm12.48,12.314c-1.54,0 -2.74,-0.472 -3.6,-1.416c-0.86,-0.95 -1.29,-2.311 -1.29,-4.082c0,-1.797 0.43,-3.18 1.3,-4.15c0.87,-0.977 2.11,-1.465 3.72,-1.465c0.52,0 1.03,0.055 1.54,0.166c0.52,0.104 0.94,0.241 1.27,0.41l-0.54,1.465c-0.9,-0.338 -1.67,-0.508 -2.31,-0.508c-1.08,0 -1.88,0.342 -2.39,1.026c-0.52,0.677 -0.78,1.689 -0.78,3.037c0,1.295 0.26,2.288 0.78,2.978c0.51,0.684 1.27,1.026 2.28,1.026c0.95,0 1.87,-0.209 2.78,-0.625l0,1.562c-0.74,0.384 -1.66,0.576 -2.76,0.576zm5.98,-0.195l-2.04,0l3.05,-4.502c-0.82,-0.208 -1.44,-0.576 -1.86,-1.103c-0.43,-0.528 -0.64,-1.179 -0.64,-1.954c0,-0.989 0.34,-1.764 1.01,-2.324c0.67,-0.56 1.6,-0.84 2.79,-0.84l4.81,0l0,10.723l-1.76,0l0,-4.258l-2.61,0l-2.75,4.258zm0.21,-7.539c0,1.211 0.87,1.816 2.62,1.816l2.53,0l0,-3.535l-2.86,0c-0.75,0 -1.32,0.147 -1.71,0.44c-0.39,0.293 -0.58,0.719 -0.58,1.279zm21.85,-3.184l1.92,0l-4.58,5.166l4.96,5.557l-2.04,0l-4.84,-5.439l0,5.439l-1.76,0l0,-10.723l1.76,0l0,5.205l4.58,-5.205zm11.2,0l0,4.463l5.82,0l0,-4.463l1.76,0l0,10.723l-1.76,0l0,-4.775l-5.82,0l0,4.775l-1.76,0l0,-10.723l1.76,0zm17.62,10.723l-0.35,-1.523l-0.07,0c-0.54,0.67 -1.07,1.126 -1.6,1.367c-0.53,0.234 -1.2,0.351 -2.01,0.351c-1.05,0 -1.88,-0.276 -2.48,-0.83c-0.6,-0.553 -0.9,-1.334 -0.9,-2.344c0,-2.174 1.72,-3.313 5.15,-3.417l1.82,-0.069l0,-0.635c0,-0.813 -0.18,-1.412 -0.53,-1.796c-0.35,-0.391 -0.91,-0.586 -1.69,-0.586c-0.57,0 -1.1,0.084 -1.61,0.253c-0.5,0.17 -0.97,0.359 -1.42,0.567l-0.53,-1.318c0.54,-0.287 1.13,-0.512 1.76,-0.674c0.64,-0.163 1.27,-0.244 1.9,-0.244c1.29,0 2.26,0.286 2.89,0.859c0.63,0.573 0.95,1.484 0.95,2.734l0,7.305l-1.28,0zm-3.63,-1.221c0.99,0 1.76,-0.263 2.32,-0.791c0.56,-0.534 0.85,-1.289 0.85,-2.265l0,-0.967l-1.58,0.068c-1.23,0.046 -2.13,0.241 -2.7,0.586c-0.56,0.345 -0.84,0.889 -0.84,1.631c0,0.56 0.17,0.99 0.51,1.289c0.34,0.3 0.83,0.449 1.44,0.449zm13.94,-0.459c0.19,-0.709 0.44,-1.442 0.74,-2.197l2.79,-6.846l2.27,0l0,10.723l-1.58,0l0,-8.838c-0.23,0.71 -0.5,1.455 -0.8,2.236l-2.68,6.602l-1.42,0l-2.68,-6.641c-0.13,-0.312 -0.26,-0.654 -0.39,-1.025c-0.12,-0.371 -0.25,-0.762 -0.37,-1.172l0,8.838l-1.58,0l0,-10.723l2.19,0l2.71,6.582c0.24,0.612 0.51,1.433 0.8,2.461zm12.28,-2.363l-1.18,0l-0.5,-10.234l2.18,0l-0.5,10.234zm-1.84,2.959c0,-0.247 0.03,-0.456 0.1,-0.625c0.06,-0.176 0.15,-0.316 0.26,-0.42c0.11,-0.111 0.24,-0.189 0.39,-0.234c0.15,-0.052 0.31,-0.078 0.49,-0.078c0.17,0 0.33,0.026 0.48,0.078c0.15,0.045 0.29,0.123 0.4,0.234c0.11,0.104 0.2,0.244 0.26,0.42c0.07,0.169 0.1,0.378 0.1,0.625c0,0.241 -0.03,0.449 -0.1,0.625c-0.06,0.169 -0.15,0.309 -0.26,0.42c-0.11,0.111 -0.25,0.192 -0.4,0.244c-0.15,0.052 -0.31,0.078 -0.48,0.078c-0.18,0 -0.34,-0.026 -0.49,-0.078c-0.15,-0.052 -0.28,-0.133 -0.39,-0.244c-0.11,-0.111 -0.2,-0.251 -0.26,-0.42c-0.07,-0.176 -0.1,-0.384 -0.1,-0.625z"/>
  <path id="svg_18" fill="white" d="m855.563,110.016l-2.75,0l0,-6.016l-15.718,0l0,6.016l-2.75,0l0,-8.578l1.765,0c1.542,-2.6255 2.875,-5.8078 4,-9.5474c1.125,-3.7396 1.787,-7.3177 1.985,-10.7344l10.562,0l0,20.2818l2.906,0l0,8.578zm-5.765,-8.578l0,-17.688l-5.172,0c-0.198,2.5938 -0.833,5.6198 -1.906,9.0781c-1.063,3.4584 -2.255,6.3281 -3.578,8.6099l10.656,0zm24.109,-6.0474c0,2.8021 -0.708,4.9894 -2.125,6.5624c-1.416,1.573 -3.375,2.359 -5.875,2.359c-1.552,0 -2.927,-0.359 -4.125,-1.078c-1.198,-0.729 -2.12,-1.77 -2.765,-3.125c-0.646,-1.3538 -0.969,-2.9267 -0.969,-4.7184c0,-2.7916 0.698,-4.9635 2.094,-6.5156c1.395,-1.5625 3.354,-2.3438 5.875,-2.3438c2.416,0 4.333,0.7969 5.75,2.3907c1.427,1.5833 2.14,3.7396 2.14,6.4687zm-12.953,0c0,2.1563 0.422,3.7969 1.266,4.9214c0.854,1.115 2.109,1.672 3.765,1.672c1.636,0 2.881,-0.557 3.735,-1.672c0.854,-1.1245 1.281,-2.7651 1.281,-4.9214c0,-2.1562 -0.432,-3.776 -1.297,-4.8594c-0.854,-1.0937 -2.109,-1.6406 -3.766,-1.6406c-3.322,0 -4.984,2.1667 -4.984,6.5zm16.531,-1.6875c0,-3.8229 0.573,-6.7656 1.719,-8.8281c1.156,-2.0729 2.969,-3.3802 5.438,-3.9219c2.323,-0.4687 4.916,-0.9479 7.781,-1.4375l0.484,2.4688l-1.859,0.2968c-2.417,0.3959 -4.36,0.7448 -5.828,1.0469c-1.5,0.3334 -2.63,1.099 -3.391,2.2969c-0.75,1.1875 -1.177,2.9167 -1.281,5.1875l0.203,0c0.604,-0.8437 1.406,-1.5156 2.406,-2.0156c1.011,-0.5104 2.084,-0.7657 3.219,-0.7657c2.104,0 3.75,0.6771 4.937,2.0313c1.188,1.3542 1.782,3.25 1.782,5.6875c0,2.7188 -0.693,4.828 -2.078,6.328c-1.386,1.49 -3.308,2.234 -5.766,2.234c-2.438,0 -4.344,-0.932 -5.719,-2.796c-1.364,-1.865 -2.047,-4.4691 -2.047,-7.8129zm8,8.2809c3.094,0 4.641,-1.984 4.641,-5.9528c0,-3.7708 -1.401,-5.6562 -4.203,-5.6562c-0.761,0 -1.5,0.1562 -2.219,0.4688c-0.708,0.3124 -1.354,0.7239 -1.937,1.2343c-0.573,0.5104 -1.042,1.0729 -1.407,1.6875c0,5.4792 1.709,8.2184 5.125,8.2184zm20.203,2.328c-2.302,0 -4.072,-0.828 -5.312,-2.484l-0.188,0l0.063,0.641c0.083,0.812 0.125,1.536 0.125,2.172l0,7.047l-2.813,0l0,-24.8442l2.313,0l0.375,2.3437l0.125,0c0.667,-0.9375 1.437,-1.6146 2.312,-2.0313c0.875,-0.4166 1.886,-0.625 3.032,-0.625c2.229,0 3.958,0.7761 5.187,2.3282c1.24,1.5416 1.86,3.7187 1.86,6.5312c0,2.8021 -0.62,4.9894 -1.86,6.5624c-1.239,1.573 -2.979,2.359 -5.219,2.359zm-0.468,-15.4214c-1.698,0 -2.927,0.4792 -3.688,1.4375c-0.75,0.9584 -1.135,2.4636 -1.156,4.5157l0,0.5468c0,2.3229 0.385,4.0052 1.156,5.0474c0.771,1.031 2.021,1.546 3.75,1.546c1.438,0 2.558,-0.583 3.36,-1.75c0.812,-1.1663 1.218,-2.7913 1.218,-4.8746c0,-2.0938 -0.406,-3.6927 -1.218,-4.7969c-0.802,-1.1146 -1.943,-1.6719 -3.422,-1.6719zm26.937,6.5c0,2.8021 -0.708,4.9894 -2.125,6.5624c-1.416,1.573 -3.375,2.359 -5.875,2.359c-1.552,0 -2.927,-0.359 -4.125,-1.078c-1.198,-0.729 -2.12,-1.77 -2.765,-3.125c-0.646,-1.3538 -0.969,-2.9267 -0.969,-4.7184c0,-2.7916 0.698,-4.9635 2.094,-6.5156c1.395,-1.5625 3.354,-2.3438 5.875,-2.3438c2.416,0 4.333,0.7969 5.75,2.3907c1.427,1.5833 2.14,3.7396 2.14,6.4687zm-12.953,0c0,2.1563 0.422,3.7969 1.266,4.9214c0.854,1.115 2.109,1.672 3.765,1.672c1.636,0 2.881,-0.557 3.735,-1.672c0.854,-1.1245 1.281,-2.7651 1.281,-4.9214c0,-2.1562 -0.432,-3.776 -1.297,-4.8594c-0.854,-1.0937 -2.109,-1.6406 -3.766,-1.6406c-3.322,0 -4.984,2.1667 -4.984,6.5zm28.547,8.6094l-2.813,0l0,-17.1562l14.5,0l0,17.1562l-2.812,0l0,-14.75l-8.875,0l0,14.75zm32.062,-8.6094c0,2.8021 -0.708,4.9894 -2.125,6.5624c-1.416,1.573 -3.375,2.359 -5.875,2.359c-1.552,0 -2.927,-0.359 -4.125,-1.078c-1.197,-0.729 -2.119,-1.77 -2.765,-3.125c-0.646,-1.3538 -0.969,-2.9267 -0.969,-4.7184c0,-2.7916 0.698,-4.9635 2.094,-6.5156c1.396,-1.5625 3.354,-2.3438 5.875,-2.3438c2.417,0 4.333,0.7969 5.75,2.3907c1.427,1.5833 2.14,3.7396 2.14,6.4687zm-12.953,0c0,2.1563 0.422,3.7969 1.266,4.9214c0.854,1.115 2.109,1.672 3.766,1.672c1.635,0 2.88,-0.557 3.734,-1.672c0.854,-1.1245 1.281,-2.7651 1.281,-4.9214c0,-2.1562 -0.432,-3.776 -1.297,-4.8594c-0.854,-1.0937 -2.109,-1.6406 -3.765,-1.6406c-3.323,0 -4.985,2.1667 -4.985,6.5zm25.047,-8.5468l2.625,0l0,8.3281l6.968,-8.3281l3.05,0l-7.08,8.3281l7.69,8.8281l-3.21,0l-7.418,-8.7031l0,8.7031l-2.625,0l0,-8.7031l-7.422,8.7031l-3.203,0l7.688,-8.8281c-3.229,-3.8334 -5.589,-6.6094 -7.078,-8.3281l3.078,0l6.937,8.3281l0,-8.3281zm26.653,17.1562l-0.54,-2.438l-0.13,0c-0.85,1.073 -1.71,1.803 -2.56,2.188c-0.84,0.375 -1.91,0.562 -3.2,0.562c-1.69,0 -3.01,-0.442 -3.97,-1.328c-0.96,-0.885 -1.44,-2.135 -1.44,-3.7496c0,-3.4792 2.74,-5.3021 8.23,-5.4688l2.91,-0.1094l0,-1.0156c0,-1.3021 -0.28,-2.2604 -0.84,-2.875c-0.57,-0.625 -1.47,-0.9375 -2.71,-0.9375c-0.9,0 -1.76,0.1354 -2.57,0.4063c-0.81,0.2708 -1.56,0.5729 -2.27,0.9062l-0.86,-2.1094c0.86,-0.4583 1.81,-0.8177 2.83,-1.0781c1.02,-0.2604 2.03,-0.3906 3.03,-0.3906c2.07,0 3.61,0.4583 4.62,1.375c1.02,0.9167 1.52,2.375 1.52,4.375l0,11.6875l-2.05,0zm-5.79,-1.953c1.57,0 2.8,-0.422 3.7,-1.266c0.91,-0.8539 1.36,-2.0622 1.36,-3.6248l0,-1.5468l-2.53,0.1094c-1.97,0.0729 -3.41,0.3854 -4.31,0.9374c-0.9,0.5521 -1.35,1.4219 -1.35,2.6094c0,0.8954 0.27,1.5834 0.81,2.0624c0.56,0.479 1.33,0.719 2.32,0.719zm26.23,1.953l-2.86,0l0,-14.8125l-5.05,0c-0.29,3.75 -0.68,6.6979 -1.18,8.8437c-0.49,2.1358 -1.14,3.7028 -1.94,4.7028c-0.79,0.99 -1.81,1.485 -3.05,1.485c-0.67,0 -1.17,-0.073 -1.48,-0.219l0,-2.109c0.22,0.083 0.51,0.125 0.87,0.125c1.15,0 2.06,-1.209 2.74,-3.6254c0.69,-2.4166 1.22,-6.2656 1.61,-11.5468l10.34,0l0,17.1562zm20.34,-8.6094c0,2.8021 -0.7,4.9894 -2.12,6.5624c-1.42,1.573 -3.38,2.359 -5.88,2.359c-1.55,0 -2.92,-0.359 -4.12,-1.078c-1.2,-0.729 -2.12,-1.77 -2.77,-3.125c-0.64,-1.3538 -0.96,-2.9267 -0.96,-4.7184c0,-2.7916 0.69,-4.9635 2.09,-6.5156c1.39,-1.5625 3.35,-2.3438 5.87,-2.3438c2.42,0 4.34,0.7969 5.75,2.3907c1.43,1.5833 2.14,3.7396 2.14,6.4687zm-12.95,0c0,2.1563 0.42,3.7969 1.27,4.9214c0.85,1.115 2.11,1.672 3.76,1.672c1.64,0 2.88,-0.557 3.74,-1.672c0.85,-1.1245 1.28,-2.7651 1.28,-4.9214c0,-2.1562 -0.43,-3.776 -1.3,-4.8594c-0.85,-1.0937 -2.11,-1.6406 -3.76,-1.6406c-3.33,0 -4.99,2.1667 -4.99,6.5zm31.53,-4.2187c0,1.1041 -0.31,1.9479 -0.93,2.5312c-0.63,0.5729 -1.52,0.9636 -2.68,1.1719l0,0.1406c1.45,0.1979 2.5,0.6302 3.16,1.2969c0.67,0.6563 1,1.5417 1,2.6563c0,1.6252 -0.6,2.8702 -1.8,3.7342c-1.18,0.865 -2.9,1.297 -5.14,1.297l-7.72,0l0,-17.1562l7.69,0c4.28,0 6.42,1.4427 6.42,4.3281zm-2.26,7.6406c0,-0.9583 -0.38,-1.6302 -1.13,-2.0156c-0.75,-0.3854 -1.85,-0.5781 -3.29,-0.5781l-4.61,0l0,5.5152l4.67,0c2.9,0 4.36,-0.974 4.36,-2.9215zm-0.49,-7.3906c0,-0.8021 -0.31,-1.375 -0.93,-1.7188c-0.62,-0.3437 -1.55,-0.5156 -2.8,-0.5156l-4.81,0l0,4.7031l4.29,0c1.53,0 2.62,-0.1875 3.27,-0.5625c0.65,-0.3854 0.98,-1.0208 0.98,-1.9062zm17.67,12.5781l-0.54,-2.438l-0.13,0c-0.85,1.073 -1.71,1.803 -2.56,2.188c-0.84,0.375 -1.91,0.562 -3.2,0.562c-1.69,0 -3.01,-0.442 -3.97,-1.328c-0.96,-0.885 -1.44,-2.135 -1.44,-3.7496c0,-3.4792 2.75,-5.3021 8.24,-5.4688l2.9,-0.1094l0,-1.0156c0,-1.3021 -0.28,-2.2604 -0.84,-2.875c-0.56,-0.625 -1.47,-0.9375 -2.71,-0.9375c-0.9,0 -1.76,0.1354 -2.57,0.4063c-0.81,0.2708 -1.56,0.5729 -2.27,0.9062l-0.86,-2.1094c0.87,-0.4583 1.81,-0.8177 2.83,-1.0781c1.02,-0.2604 2.03,-0.3906 3.03,-0.3906c2.07,0 3.62,0.4583 4.63,1.375c1.01,0.9167 1.51,2.375 1.51,4.375l0,11.6875l-2.05,0zm-5.79,-1.953c1.57,0 2.81,-0.422 3.7,-1.266c0.91,-0.8539 1.36,-2.0622 1.36,-3.6248l0,-1.5468l-2.53,0.1094c-1.97,0.0729 -3.41,0.3854 -4.31,0.9374c-0.9,0.5521 -1.35,1.4219 -1.35,2.6094c0,0.8954 0.27,1.5834 0.82,2.0624c0.55,0.479 1.32,0.719 2.31,0.719zm25.01,-12.8282l-5.61,0l0,14.7812l-2.78,0l0,-14.7812l-5.53,0l0,-2.375l13.92,0l0,2.375zm6.22,4.6718l5.1,0c4.45,0 6.68,1.6198 6.68,4.8594c0,1.708 -0.57,3.01 -1.73,3.906c-1.16,0.896 -2.85,1.344 -5.08,1.344l-7.78,0l0,-17.1562l2.81,0l0,7.0468zm8.97,5.0156c0,-0.9166 -0.32,-1.5937 -0.97,-2.0312c-0.64,-0.4375 -1.72,-0.6562 -3.23,-0.6562l-4.77,0l0,5.5152l4.85,0c1.32,0 2.33,-0.239 3.04,-0.718c0.72,-0.48 1.08,-1.1827 1.08,-2.1098zm29.67,-7.7343c0,1.1041 -0.31,1.9479 -0.93,2.5312c-0.63,0.5729 -1.52,0.9636 -2.68,1.1719l0,0.1406c1.45,0.1979 2.5,0.6302 3.16,1.2969c0.67,0.6563 1,1.5417 1,2.6563c0,1.6252 -0.6,2.8702 -1.8,3.7342c-1.18,0.865 -2.9,1.297 -5.14,1.297l-7.72,0l0,-17.1562l7.69,0c4.28,0 6.42,1.4427 6.42,4.3281zm-2.26,7.6406c0,-0.9583 -0.38,-1.6302 -1.13,-2.0156c-0.75,-0.3854 -1.85,-0.5781 -3.29,-0.5781l-4.61,0l0,5.5152l4.67,0c2.9,0 4.36,-0.974 4.36,-2.9215zm-0.49,-7.3906c0,-0.8021 -0.31,-1.375 -0.93,-1.7188c-0.62,-0.3437 -1.55,-0.5156 -2.8,-0.5156l-4.81,0l0,4.7031l4.29,0c1.53,0 2.62,-0.1875 3.27,-0.5625c0.65,-0.3854 0.98,-1.0208 0.98,-1.9062zm-213.294,33.7341l0,14.782c0,2.604 -0.786,4.651 -2.359,6.14c-1.573,1.49 -3.756,2.234 -6.547,2.234c-2.761,0 -4.901,-0.75 -6.422,-2.25c-1.521,-1.51 -2.281,-3.572 -2.281,-6.187l0,-14.719l2.89,0l0,14.813c0,1.864 0.495,3.307 1.485,4.328c1,1.021 2.5,1.531 4.5,1.531c1.885,0 3.333,-0.505 4.343,-1.516c1.021,-1.01 1.532,-2.468 1.532,-4.374l0,-14.782l2.859,0zm13.766,23.156c-2.302,0 -4.073,-0.828 -5.313,-2.484l-0.187,0l0.062,0.641c0.083,0.812 0.125,1.536 0.125,2.172l0,7.047l-2.812,0l0,-24.844l2.312,0l0.375,2.344l0.125,0c0.667,-0.938 1.438,-1.615 2.313,-2.032c0.875,-0.416 1.885,-0.625 3.031,-0.625c2.229,0 3.958,0.776 5.187,2.328c1.24,1.542 1.86,3.719 1.86,6.532c0,2.802 -0.62,4.989 -1.86,6.562c-1.239,1.573 -2.979,2.359 -5.218,2.359zm-0.469,-15.421c-1.698,0 -2.927,0.479 -3.688,1.437c-0.75,0.958 -1.135,2.464 -1.156,4.516l0,0.547c0,2.323 0.386,4.005 1.156,5.047c0.771,1.031 2.021,1.546 3.75,1.546c1.438,0 2.558,-0.583 3.36,-1.75c0.812,-1.166 1.218,-2.791 1.218,-4.875c0,-2.093 -0.406,-3.692 -1.218,-4.797c-0.802,-1.114 -1.943,-1.671 -3.422,-1.671zm25.375,9c0,1.989 -0.719,3.557 -2.156,4.703c-1.438,1.146 -3.438,1.718 -6,1.718c-2.709,0 -4.802,-0.359 -6.282,-1.078l0,-2.75c0.969,0.417 2.026,0.745 3.172,0.985c1.156,0.239 2.235,0.359 3.235,0.359c1.708,0 2.994,-0.328 3.859,-0.984c0.865,-0.656 1.297,-1.558 1.297,-2.703c0,-0.761 -0.156,-1.386 -0.469,-1.875c-0.312,-0.49 -0.838,-0.948 -1.578,-1.375c-0.729,-0.427 -1.839,-0.912 -3.328,-1.453c-2.115,-0.771 -3.625,-1.678 -4.531,-2.719c-0.907,-1.052 -1.36,-2.407 -1.36,-4.063c0,-1.781 0.667,-3.198 2,-4.25c1.344,-1.052 3.11,-1.578 5.297,-1.578c2.281,0 4.38,0.427 6.297,1.281l-0.891,2.469c-1.958,-0.812 -3.781,-1.219 -5.468,-1.219c-1.355,0 -2.417,0.292 -3.188,0.875c-0.76,0.584 -1.141,1.401 -1.141,2.454c0,0.75 0.146,1.374 0.438,1.874c0.302,0.49 0.781,0.938 1.437,1.344c0.667,0.406 1.709,0.87 3.125,1.391c1.698,0.625 2.964,1.234 3.797,1.828c0.834,0.583 1.448,1.26 1.844,2.031c0.396,0.761 0.594,1.672 0.594,2.735zm9.953,4.125c0.365,0 0.792,-0.037 1.281,-0.11c0.49,-0.073 0.86,-0.156 1.11,-0.25l0,2.156c-0.261,0.115 -0.667,0.224 -1.219,0.329c-0.542,0.114 -1.094,0.171 -1.656,0.171c-3.355,0 -5.032,-1.765 -5.032,-5.296l0,-9.985l-2.422,0l0,-1.343l2.454,-1.126l1.125,-3.656l1.671,0l0,3.938l4.954,0l0,2.187l-4.954,0l0,9.907c0,0.989 0.235,1.75 0.704,2.281c0.479,0.531 1.14,0.797 1.984,0.797zm20.739,-6.625c0,2.802 -0.71,4.989 -2.13,6.562c-1.42,1.573 -3.37,2.359 -5.87,2.359c-1.56,0 -2.932,-0.359 -4.13,-1.078c-1.198,-0.729 -2.119,-1.77 -2.765,-3.125c-0.646,-1.354 -0.969,-2.927 -0.969,-4.718c0,-2.792 0.698,-4.964 2.094,-6.516c1.396,-1.563 3.354,-2.344 5.87,-2.344c2.42,0 4.34,0.797 5.75,2.391c1.43,1.583 2.15,3.739 2.15,6.469zm-12.958,0c0,2.156 0.422,3.797 1.266,4.921c0.854,1.115 2.112,1.672 3.762,1.672c1.64,0 2.88,-0.557 3.74,-1.672c0.85,-1.124 1.28,-2.765 1.28,-4.921c0,-2.157 -0.43,-3.776 -1.3,-4.86c-0.85,-1.093 -2.11,-1.64 -3.76,-1.64c-3.326,0 -4.988,2.166 -4.988,6.5zm25.418,-8.86c0.76,0 1.44,0.063 2.02,0.188l-0.34,2.593c-0.64,-0.145 -1.26,-0.218 -1.86,-0.218c-0.91,0 -1.75,0.25 -2.53,0.75c-0.78,0.5 -1.38,1.192 -1.82,2.078c-0.43,0.875 -0.65,1.849 -0.65,2.922l0,9.156l-2.82,0l0,-17.156l2.32,0l0.31,3.14l0.12,0c0.66,-1.135 1.44,-1.994 2.33,-2.578c0.9,-0.583 1.87,-0.875 2.92,-0.875zm15.5,17.469l-0.54,-2.438l-0.13,0c-0.85,1.073 -1.71,1.803 -2.56,2.188c-0.84,0.375 -1.91,0.562 -3.2,0.562c-1.69,0 -3.01,-0.442 -3.97,-1.328c-0.96,-0.885 -1.44,-2.135 -1.44,-3.75c0,-3.479 2.75,-5.302 8.23,-5.468l2.91,-0.11l0,-1.015c0,-1.302 -0.28,-2.261 -0.84,-2.875c-0.57,-0.625 -1.47,-0.938 -2.71,-0.938c-0.9,0 -1.76,0.136 -2.57,0.406c-0.81,0.271 -1.56,0.573 -2.27,0.907l-0.86,-2.11c0.87,-0.458 1.81,-0.817 2.83,-1.078c1.02,-0.26 2.03,-0.391 3.03,-0.391c2.07,0 3.61,0.459 4.63,1.376c1.01,0.916 1.51,2.374 1.51,4.374l0,11.688l-2.05,0zm-5.79,-1.953c1.57,0 2.8,-0.422 3.7,-1.266c0.91,-0.854 1.36,-2.062 1.36,-3.625l0,-1.547l-2.53,0.11c-1.97,0.073 -3.41,0.385 -4.31,0.937c-0.9,0.552 -1.35,1.422 -1.35,2.61c0,0.895 0.27,1.583 0.81,2.062c0.56,0.479 1.33,0.719 2.32,0.719zm19.7,-0.031c1.73,0 2.98,-0.464 3.77,-1.391c0.79,-0.937 1.18,-2.437 1.18,-4.5l0,-0.672c0,-2.292 -0.39,-3.958 -1.18,-5c-0.8,-1.042 -2.07,-1.562 -3.83,-1.562c-1.44,0 -2.55,0.573 -3.35,1.718c-0.78,1.136 -1.17,2.761 -1.17,4.875c0,2.125 0.38,3.745 1.14,4.86c0.77,1.114 1.92,1.672 3.44,1.672zm4.92,1.828l0.1,-2.11l-0.13,0c-1.16,1.719 -2.93,2.578 -5.31,2.578c-2.22,0 -3.95,-0.77 -5.2,-2.312c-1.24,-1.552 -1.86,-3.734 -1.86,-6.547c0,-2.76 0.62,-4.937 1.87,-6.531c1.26,-1.594 2.98,-2.391 5.16,-2.391c2.32,0 4.11,0.865 5.37,2.594l0.17,0l0.38,-2.281l2.23,0l0,17.437c0,2.459 -0.62,4.308 -1.87,5.547c-1.24,1.24 -3.17,1.86 -5.8,1.86c-2.5,0 -4.56,-0.365 -6.17,-1.094l0,-2.594c1.67,0.896 3.78,1.344 6.33,1.344c1.46,0 2.61,-0.427 3.45,-1.282c0.86,-0.854 1.28,-2.036 1.28,-3.546l0,-0.672zm15.53,0.468c-2.57,0 -4.59,-0.776 -6.06,-2.328c-1.46,-1.562 -2.19,-3.708 -2.19,-6.437c0,-2.75 0.69,-4.938 2.05,-6.563c1.36,-1.635 3.21,-2.453 5.53,-2.453c2.16,0 3.88,0.698 5.16,2.094c1.28,1.385 1.92,3.266 1.92,5.641l0,1.703l-11.75,0c0.05,1.948 0.55,3.427 1.48,4.437c0.94,1.011 2.27,1.516 3.99,1.516c0.92,0 1.78,-0.078 2.61,-0.234c0.82,-0.167 1.78,-0.485 2.89,-0.954l0,2.469c-0.95,0.406 -1.84,0.693 -2.67,0.859c-0.84,0.167 -1.82,0.25 -2.96,0.25zm-0.7,-15.484c-1.34,0 -2.41,0.432 -3.19,1.297c-0.78,0.865 -1.24,2.068 -1.39,3.609l8.74,0c-0.02,-1.604 -0.39,-2.823 -1.11,-3.656c-0.72,-0.833 -1.74,-1.25 -3.05,-1.25z"/>
  <path id="svg_19" fill="#F2F9FF" d="m1269,566.499l-530.999,0c-2.103,-22.667 5.074,-34.503 28.5,-31.5c1.253,-35.966 22.757,-49.866 54.5,-47.5c-7.044,-72.125 80.699,-132.293 147.5,-110.5c3.578,-44.651 48.709,-59.746 81.499,-47c39.61,-55.105 106.59,-20.125 104.5,19.001c71.56,-0.299 80,68 63,89.499c27.7,11.271 34.73,37.278 21.5,60c30.26,11.726 36.4,39.062 30,68z"/>
  <path id="svg_20" fill="#FFCDB0" d="m886.605,518.873l-11.404,16.927l-11.701,5.832l-7.382,-9.714l2.109,-3.074l5.768,-13.919l22.61,3.948z"/>
  <path id="svg_21" fill="#FFCDB0" d="m866.933,601.177l9.835,-13.932l29.227,0.542l-21.566,21.275l-0.009,0.504l-12.066,-1.736l-5.421,-6.653z"/>
  <path id="svg_22" fill="white" d="m877.501,551.449c0.832,-6.987 0.423,-10.528 -2.139,-16.057c-8.738,0.71 -12.795,-0.345 -19.129,-3.769c-23.992,9.068 -46.879,9.243 -45.255,18.953l66.523,0.873z"/>
  <path id="svg_23" fill="#F0F0F0" d="m877.502,551.447l-66.523,-0.873c0.332,2.096 0.732,3.121 2.292,4.331l64.175,0.842c0.463,-1.505 0.476,-2.446 0.056,-4.3z"/>
  <path id="svg_24" fill="white" d="m882.123,625.264c2.84,-6.438 3.485,-9.943 2.653,-15.98c-8.563,-1.878 -12.134,-4.074 -17.188,-9.202c-25.595,1.651 -47.533,-4.88 -48.821,4.881l63.356,20.301z"/>
  <path id="svg_25" fill="#F0F0F0" d="m882.124,625.262l-63.356,-20.301c-0.296,2.101 -0.213,3.198 0.924,4.812l61.12,19.584c0.883,-1.303 1.17,-2.2 1.312,-4.095z"/>
  <path id="svg_26" fill="#5A5A5A" d="m925.715,399.997c27.774,-4.622 85.235,25.345 94.515,30.311l4.27,-0.81l-0.78,3.5l27.78,25l-49.6,21.239c-33.191,-15.976 -37.029,-22.345 -65.592,-34.476c-19.762,33.039 -31.358,51.629 -52.516,82.827l-24.485,-9.495c-0.035,0.059 -0.05,0.054 -0.044,-0.017l0.044,0.017c1.438,-2.431 36.857,-113.178 66.408,-118.096z"/>
  <path id="svg_27" fill="#484848" d="m987.751,472.059c-19.14,-10.488 -29.607,-17.643 -50.622,-26.937c-0.464,-0.206 -1.02,-0.027 -1.281,0.409c-19.248,32.16 -30.54,50.306 -52.054,82.055l-11.28,-4.426c3.594,0.461 8.195,0.485 9.665,-0.757c15.648,-18.991 51.234,-79.387 51.234,-79.387c1.13,-1.631 2.681,-1.662 4.138,-1.192c24.158,7.797 43.457,22.226 49.364,21.575c10.709,-1.181 27.165,-13.119 49.585,-15.401l11.85,5.569c0,0 -41.21,29.115 -60.599,18.492z"/>
  <path id="svg_28" fill="#5A5A5A" d="m1042.8,453.482l56.08,20.685c-15.59,30.357 -13.38,40.879 -134.776,48.715c-28.43,37.438 -47.603,55.197 -70.723,80.521l-23.247,-11.745c22.584,-37.517 37.278,-63.404 61.019,-94.179c1.57,-2.035 3.528,-3.744 5.77,-5.001c31.562,-17.68 61.719,-26.051 105.877,-38.996z"/>
  <path id="svg_29" fill="#484848" d="m964.048,522.772c91.592,-3.132 124.712,-13.003 134.952,-48.274l-17.01,-5.141c-8.19,29.575 -45.31,37.547 -121.646,49.08c-48.541,64.434 -67.114,78.185 -67.114,78.185c-3.288,1.377 -8.471,0.798 -12.607,0.271l12.607,7.605c30.682,-30.79 46.275,-49.552 70.818,-81.726z"/>
  <path id="svg_30" fill="#FFCDB0" d="m1051.84,316.804c-4.12,7.374 -8.48,6.693 -11.8,12.5l0.81,5.425l-13.13,0.496l-0.8,-6.202c-2,-1.888 -3.68,-4.086 -2.26,-19.073c-0.23,-3.679 -0.33,-5.662 -1.14,-10.701c-0.11,-2.978 2.76,-3.271 3.25,-0.48c0.71,4.296 1.77,7.861 2.31,8.945c0.36,0.365 0.79,0.243 1.21,-0.149c0.42,-0.392 0.38,-7.298 0.16,-12.444c-0.45,-3.815 3.56,-4.762 3.85,-0.236c0.14,4.153 -0.12,11.203 0.54,12.68c0.2,0.457 0.75,0.15 0.75,0.15c0.54,-1.085 0.93,-8.019 1.37,-14.331c0.07,-4.005 4.09,-4.222 4.05,-0.001c-0.04,3.887 -1.08,12.163 -1.08,15.416c0,0.599 0.66,1.507 1.08,1.084c1.08,-1.084 2.43,-5.351 4.34,-9.758c1.69,-3.578 4.21,-1.782 3.25,1.084c-2.54,7.584 -4.88,11.927 -6.27,19.55c2.09,-0.43 7.49,-7.833 9.51,-3.955z"/>
  <path id="svg_31" fill="#5E9AD2" d="m1026.1,330.941c6.78,2.368 8.18,1.099 15.04,0.714c5.92,21.319 7.98,35.904 16.85,39.65c8.54,-17.797 23.92,-25.606 48.18,-26.473c9.6,13.402 15.86,12.028 27.31,9.369c44.86,25.742 13.06,97.986 -4.82,106.692c-3.59,1.752 -7.77,2.625 -12.43,2.747c-4.7,4.124 -9.27,7.296 -16.97,11.12c-14.26,-2.261 -36.76,-9.761 -53.76,-20.261c-11.5,-8.5 -19.82,-17.5 -21.91,-21.5c-2.09,-4 -2.61,-6.71 0,-11.709c6.08,-1.322 14.25,-8.885 17.55,-11.792c-24.65,-24.792 -17.62,-52.897 -15.04,-78.557z"/>
  <path id="svg_32" fill="#4D8EC8" d="m1105.5,471.5c-14.32,0 -42.96,-12.851 -74.5,-33.001l7.5,0.5c1.63,0.668 2.48,4.381 4,5.001c26.61,10.83 39.17,11.506 73.83,19.46c-2.1,1.986 -8.25,6.501 -10.83,8.04z"/>
  <path id="svg_33" fill="#4D8EC8" d="m1115.53,433.389c-1.24,5.883 -65.03,-1.389 -65.03,-1.389l-4,3.999l-3.5,-2.5l2.99,-4c0.8,-0.611 2.01,-0.5 15.01,-3.5c13,-3 30,-4.5 37.18,-8.558c7.18,-4.058 26.22,-27.743 26.22,-27.743c-4.97,24.794 -6.84,33.974 -8.87,43.691z"/>
  <path id="svg_34" fill="#4D8EC8" d="m1050.5,404.998c7.05,0.635 15.72,-1.833 24,-10c0,19 -14.5,25.5 -31.5,28.5c-6.3,-1.518 -6.18,-21.239 -9,-26c3.51,1.073 9.46,6.866 16.5,7.5z"/>
  <path id="svg_35" fill="#FFCDB0" d="m1133.64,354.295l8.08,-30.662l-29.06,6.933l-8.19,18.643c5.45,15.546 21.77,8.762 29.17,5.086z"/>
  <path id="svg_36" fill="#E9B598" d="m1142.19,323.118c7.4,-15.847 -31.02,10.834 -31.02,10.834l-4.15,9.569c17.7,3.566 27.76,-4.557 35.17,-20.403z"/>
  <path id="svg_37" fill="#FFCDB0" d="m1143.58,318.057c0.71,15.454 -56.89,53.53 -39.88,-23.461c16.64,-20.509 41.89,-5.249 37.81,14.564l0.56,-1.27c10.57,-18.32 16.95,10.76 1.51,10.167z"/>
  <path id="svg_38" fill="#5A5A5A" d="m1104.45,295.69c-10.01,16.431 -35.24,-14.366 -10.9,-15.381c9.61,-3.95 -0.98,-13.297 -3.32,-6.249c-4.9,-7.723 9,-18.887 19.69,-8.015c4.78,6.832 8.04,-2.779 13.16,-4.069c11.44,-2.148 27.04,4.921 26.46,13.371c18.07,6.629 12.63,18.405 1.92,27.836c-5.55,-2.079 -7.18,2.233 -10.3,7.342c-3.68,-19.462 -5.45,-22.729 -21.66,-20.248c-1.24,8.372 -10.31,7.418 -14.6,5.607c-0.16,-0.069 -0.31,-0.134 -0.45,-0.194z"/>
  <ellipse id="svg_39" fill="#383838" transform="rotate(20.43589973449707 1126.5699462890623,311.5790100097655) " ry="3.41929" rx="2.4191" cy="311.579" cx="1126.57"/>
  <ellipse id="svg_40" fill="#E9B598" transform="rotate(13.574000358581543 1114.3900146484373,323.3819885253904) " ry="1.93908" rx="4.0564" cy="323.382" cx="1114.39"/>
  <ellipse id="svg_41" fill="#FFB393" transform="rotate(-15.31719970703125 1132.81005859375,320.0379943847652) " ry="3.10224" rx="4.81647" cy="320.038" cx="1132.81"/>
  <path id="svg_42" stroke-linejoin="round" stroke-linecap="round" stroke="#FFB393" fill="white" d="m1108.78,330.438c-0.21,0.007 -0.39,0.145 -0.45,0.345c-0.07,0.2 0,0.419 0.16,0.548c3.03,2.375 5.91,3.145 8.8,2.684c2.85,-0.456 5.65,-2.107 8.55,-4.417c0.18,-0.147 0.24,-0.403 0.14,-0.614c-0.11,-0.211 -0.35,-0.32 -0.58,-0.261c-5.45,1.416 -9.15,1.511 -13.74,1.63c-0.92,0.024 -1.87,0.049 -2.88,0.085z"/>
  <path id="svg_43" fill="#FFB393" d="m1107.09,319.655c-0.84,1.494 -3.4,1.652 -5.72,0.351c-1.25,-1.153 -0.69,-4.053 -0.7,-5.791c0,-1.16 1.41,-0.922 3.73,0.379c2.32,1.3 3.52,3.566 2.69,5.061z"/>
  <ellipse id="svg_44" fill="#383838" transform="rotate(1.826259970664978 1108.9200439453166,309.7340087890608) " ry="3.34814" rx="2.30288" cy="309.734" cx="1108.92"/>
  <path id="svg_45" fill="#5A5A5A" d="m1108.34,303.297c-2.19,0.191 -7.35,0.618 -7.5,-1.08c-0.15,-1.698 4.92,-3.167 7.11,-3.358c2.19,-0.191 4.05,0.647 4.15,1.873c0.11,1.225 -1.57,2.374 -3.76,2.565z"/>
  <path id="svg_46" fill="#5A5A5A" d="m1128.05,305.228c2.22,0.483 7.61,2.266 7.97,0.601c0.36,-1.666 -4.8,-4.471 -7.03,-4.955c-2.22,-0.483 -4.23,0.1 -4.49,1.302c-0.27,1.202 1.32,2.568 3.55,3.052z"/>
  <path id="svg_47" fill="#5E9AD2" d="m1133.5,354.499c-14.54,3.47 -22.16,4.364 -29,-7.501l-13,6.001l6.5,18.5l43.5,-6l-8,-11z"/>
  <path id="svg_48" fill="#FFCDB0" d="m1048.5,435.999l-24.5,-7.5c2,6 4,10.5 20.5,16l4,-8.5z"/>
  <path id="svg_49" fill="#CECECE" d="m1048.6,427.238l-11.98,-56.443c-0.43,-2.045 -2.04,-3.637 -4.09,-4.051l-69.649,-14.052c-3.668,-0.74 -6.909,2.491 -6.179,6.162l11.518,57.936c0.413,2.075 2.032,3.699 4.106,4.118l99.164,20.008c1.55,0.312 3.06,-0.69 3.37,-2.238c0.31,-1.549 -0.69,-3.057 -2.24,-3.369l-19.92,-4.021c-2.05,-0.413 -3.66,-2.005 -4.1,-4.05z"/>
  <g id="svg_50" filter="url(#filter2_f)">
   <path id="svg_51" fill="white" d="m992.437,398.757c3.1,3.935 8.363,4.721 11.753,1.755c1.81,-1.591 2.72,-3.937 2.7,-6.378c-5.4,2.095 -10.448,-5.29 -7.582,-9.52c-2.242,-0.44 -4.557,0.079 -6.348,1.647c-3.389,2.966 -3.623,8.56 -0.523,12.496z"/>
  </g>
  <path id="svg_52" fill="white" d="m992.4,398.545c3.1,3.935 8.36,4.721 11.75,1.755c1.82,-1.59 2.73,-3.937 2.7,-6.378c-5.39,2.095 -10.445,-5.29 -7.579,-9.52c-2.242,-0.44 -4.557,0.079 -6.349,1.647c-3.388,2.966 -3.622,8.561 -0.522,12.496z"/>
  <path id="svg_53" fill-opacity="0.8" fill="#F2F9FF" d="m1054,504.995c-27.5,-2.496 -57.49,12.854 -70.5,30.504l16,3.62l130.89,-34.124l-18.39,-15.997c-20.24,-11.273 -50.78,3.751 -58,15.997z"/>
  <path id="svg_54" fill-opacity="0.8" fill="#F2F9FF" d="m884,553.217c-4.5,-2 -24.586,-5.004 -32.5,1.782c-1.938,-3.264 -21.5,-6 -28.5,-0.5c-6,-4 -13,-3 -15,2c18,5.5 50.501,6.5 50.501,6.5c0,0 29.999,-7.782 25.499,-9.782z"/>
  <path id="svg_55" fill-opacity="0.8" fill="#F2F9FF" d="m1142,443.499c-3.16,-17.803 10.5,-27 21.5,-24l14,37.5l-20,24.5l-27.11,-18.5c-2.89,-9.5 1.16,-18.328 11.61,-19.5z"/>
 </g>
</svg>