<svg width="32" height="32" viewBox="0 0 32 32" fill="none" xmlns="http://www.w3.org/2000/svg">
<g clip-path="url(#clip0)">
<circle cx="16.0002" cy="16.0007" r="5.11" stroke="#7D7D7D" stroke-width="1.3"/>
<path d="M31.8415 15.5687C31.6908 15.39 28.0842 11.1807 23.1095 8.60343C22.7868 8.43412 19.8398 7.03954 20.4798 7.68062C17.2798 7.68031 20.0967 8.60343 22.4975 9.7888C26.3295 11.7728 29.3908 14.8688 30.4375 15.9995C28.8482 17.7208 22.5935 23.9995 16.0002 23.9995C13.7629 23.9995 11.5082 23.4595 9.29618 22.3928C7.68059 21.7607 4.48059 19.2007 4.48016 19.8407C1.91966 19.8407 8.38556 23.4328 8.71756 23.5928C11.1109 24.7488 13.5616 25.3328 16.0002 25.3328C24.2149 25.3328 31.5349 16.7941 31.8429 16.4301C32.0535 16.182 32.0522 15.818 31.8415 15.5687Z" fill="#7D7D7D"/>
<path d="M20.3747 7.43401C18.8574 6.92333 17.3854 6.66602 16.0001 6.66602C7.78539 6.66602 0.465402 15.2047 0.157403 15.5687C-0.0372843 15.798 -0.0532843 16.1314 0.12009 16.3807C0.21209 16.5127 2.41609 19.642 6.23608 22.1794C9.76314 24.5222 10.112 23.6798 10.24 23.6798C10.4547 23.6798 7.03076 22.1874 7.15876 21.9914C7.36276 21.6861 7.27876 21.2714 6.97208 21.0687C4.16677 19.2034 2.24677 16.9514 1.52809 16.0354C3.06277 14.3687 9.35876 7.99939 16.0001 7.99939C17.2414 7.99939 18.5707 8.23408 19.9494 8.6967C22.4 9.59977 21.76 8.95977 21.76 8.31977C21.8774 7.97045 20.724 7.55139 20.3747 7.43401Z" fill="#7D7D7D"/>
</g>
<defs>
<clipPath id="clip0">
<rect width="32" height="32" fill="white"/>
</clipPath>
</defs>
</svg>
