<svg width="32" height="32" viewBox="0 0 32 32" fill="none" xmlns="http://www.w3.org/2000/svg">
<g clip-path="url(#clip0)">
<path d="M19.7705 12.2287C19.5105 11.9687 19.0879 11.9687 18.8279 12.2287C18.5679 12.4887 18.5679 12.9127 18.8279 13.1714C19.5825 13.9261 19.9999 14.9301 19.9999 15.9994C19.9999 18.2047 18.2052 19.9994 15.9999 19.9994C14.9306 19.9994 13.9266 19.5834 13.1719 18.8274C12.9119 18.5674 12.4892 18.5674 12.2292 18.8274C11.9692 19.0861 11.9692 19.51 12.2292 19.77C13.2345 20.778 14.5745 21.3327 15.9999 21.3327C18.9412 21.3327 21.3332 18.9407 21.3332 15.9994C21.3332 14.574 20.7785 13.234 19.7705 12.2287Z" fill="#7D7D7D"/>
<path d="M16.9296 10.758C16.6269 10.7047 16.3176 10.666 16.0003 10.666C13.059 10.666 10.667 13.058 10.667 15.9993C10.667 16.3166 10.7057 16.626 10.7603 16.9286C10.8176 17.2513 11.099 17.4793 11.415 17.4793C11.4537 17.4793 11.4923 17.4766 11.5323 17.4686C11.8936 17.4046 12.1363 17.0579 12.0723 16.6966C12.031 16.4699 12.0003 16.2393 12.0003 15.9993C12.0003 13.794 13.795 11.9993 16.0003 11.9993C16.2403 11.9993 16.471 12.03 16.6976 12.07C17.0523 12.142 17.4056 11.8913 17.4696 11.53C17.5336 11.1687 17.291 10.822 16.9296 10.758Z" fill="#7D7D7D"/>
<path d="M31.8415 15.5688C31.6908 15.3902 28.0842 11.1809 23.1095 8.60354C22.7868 8.43423 22.3802 8.56223 22.2108 8.89023C22.0415 9.21692 22.1695 9.61954 22.4975 9.78892C26.3295 11.7729 29.3908 14.8689 30.4375 15.9996C28.8482 17.7209 22.5935 23.9996 16.0002 23.9996C13.7629 23.9996 11.5082 23.4596 9.29619 22.3929C8.96819 22.2316 8.56688 22.3716 8.40688 22.7036C8.24557 23.0343 8.38557 23.4329 8.71757 23.5929C11.1109 24.7489 13.5616 25.3329 16.0002 25.3329C24.2149 25.3329 31.5349 16.7942 31.8429 16.4302C32.0535 16.1822 32.0522 15.8182 31.8415 15.5688Z" fill="#7D7D7D"/>
<path d="M20.3747 7.43401C18.8574 6.92333 17.3854 6.66602 16.0001 6.66602C7.78539 6.66602 0.465402 15.2047 0.157403 15.5687C-0.0372843 15.798 -0.0532843 16.1314 0.12009 16.3807C0.21209 16.5127 2.41609 19.642 6.23608 22.1794C6.34939 22.2554 6.47608 22.2914 6.60408 22.2914C6.81877 22.2914 7.03076 22.1874 7.15876 21.9914C7.36276 21.6861 7.27876 21.2714 6.97208 21.0687C4.16677 19.2034 2.24677 16.9514 1.52809 16.0354C3.06277 14.3687 9.35876 7.99939 16.0001 7.99939C17.2414 7.99939 18.5707 8.23408 19.9494 8.6967C20.2987 8.82201 20.6774 8.6287 20.7934 8.27801C20.9107 7.9287 20.7241 7.55139 20.3747 7.43401Z" fill="#7D7D7D"/>
<path d="M27.8043 4.19549C27.5443 3.93549 27.1216 3.93549 26.8616 4.19549L4.195 26.8621C3.935 27.1221 3.935 27.5448 4.195 27.8048C4.32569 27.9341 4.49631 27.9995 4.667 27.9995C4.83769 27.9995 5.00831 27.9342 5.13769 27.8048L27.8043 5.13817C28.0643 4.87817 28.0643 4.45549 27.8043 4.19549Z" fill="#7D7D7D"/>
</g>
<defs>
<clipPath id="clip0">
<rect width="32" height="32" fill="white"/>
</clipPath>
</defs>
</svg>
