<svg width="186" height="47" viewBox="0 0 186 47" fill="none" xmlns="http://www.w3.org/2000/svg">
<path d="M74.4351 14.8672V25.9531C74.4351 27.2188 74.1499 28.3281 73.5796 29.2812C73.0171 30.2344 72.2007 30.9648 71.1304 31.4727C70.0601 31.9805 68.7944 32.2344 67.3335 32.2344C65.1304 32.2344 63.4194 31.6719 62.2007 30.5469C60.9819 29.4141 60.3726 27.8672 60.3726 25.9062V14.8672H63.9937V25.3555C63.9937 26.6758 64.2593 27.6445 64.7905 28.2617C65.3218 28.8789 66.2007 29.1875 67.4272 29.1875C68.6147 29.1875 69.4741 28.8789 70.0054 28.2617C70.5444 27.6367 70.814 26.6602 70.814 25.332V14.8672H74.4351ZM85.5444 32.2344C84.0054 32.2344 82.7983 31.6758 81.9233 30.5586H81.7358C81.8608 31.6523 81.9233 32.2852 81.9233 32.457V37.7656H78.3491V18.8984H81.2554L81.7593 20.5977H81.9233C82.7593 19.3008 83.9976 18.6523 85.6382 18.6523C87.1851 18.6523 88.396 19.25 89.271 20.4453C90.146 21.6406 90.5835 23.3008 90.5835 25.4258C90.5835 26.8242 90.3765 28.0391 89.9624 29.0703C89.5562 30.1016 88.9741 30.8867 88.2163 31.4258C87.4585 31.9648 86.5679 32.2344 85.5444 32.2344ZM84.4897 21.5117C83.6069 21.5117 82.9624 21.7852 82.5562 22.332C82.1499 22.8711 81.939 23.7656 81.9233 25.0156V25.4023C81.9233 26.8086 82.1304 27.8164 82.5444 28.4258C82.9663 29.0352 83.6304 29.3398 84.5366 29.3398C86.1382 29.3398 86.939 28.0195 86.939 25.3789C86.939 24.0898 86.7397 23.125 86.3413 22.4844C85.9507 21.8359 85.3335 21.5117 84.4897 21.5117ZM103.931 27.2422C103.931 28.7891 103.373 30.0078 102.255 30.8984C101.146 31.7891 99.5991 32.2344 97.6147 32.2344C95.7866 32.2344 94.1694 31.8906 92.7632 31.2031V27.8281C93.9194 28.3438 94.896 28.707 95.6929 28.918C96.4976 29.1289 97.2319 29.2344 97.896 29.2344C98.6929 29.2344 99.3022 29.082 99.7241 28.7773C100.154 28.4727 100.369 28.0195 100.369 27.418C100.369 27.082 100.275 26.7852 100.087 26.5273C99.8999 26.2617 99.6226 26.0078 99.2554 25.7656C98.896 25.5234 98.1577 25.1367 97.0405 24.6055C95.9937 24.1133 95.2085 23.6406 94.6851 23.1875C94.1616 22.7344 93.7437 22.207 93.4312 21.6055C93.1187 21.0039 92.9624 20.3008 92.9624 19.4961C92.9624 17.9805 93.4741 16.7891 94.4976 15.9219C95.5288 15.0547 96.9507 14.6211 98.7632 14.6211C99.6538 14.6211 100.501 14.7266 101.306 14.9375C102.119 15.1484 102.966 15.4453 103.849 15.8281L102.677 18.6523C101.763 18.2773 101.005 18.0156 100.404 17.8672C99.8101 17.7188 99.2241 17.6445 98.646 17.6445C97.9585 17.6445 97.4312 17.8047 97.064 18.125C96.6968 18.4453 96.5132 18.8633 96.5132 19.3789C96.5132 19.6992 96.5874 19.9805 96.7358 20.2227C96.8843 20.457 97.1187 20.6875 97.439 20.9141C97.7671 21.1328 98.5366 21.5312 99.7476 22.1094C101.349 22.875 102.447 23.6445 103.041 24.418C103.634 25.1836 103.931 26.125 103.931 27.2422ZM112.275 29.3867C112.9 29.3867 113.65 29.25 114.525 28.9766V31.6367C113.634 32.0352 112.541 32.2344 111.244 32.2344C109.814 32.2344 108.771 31.875 108.115 31.1562C107.466 30.4297 107.142 29.3438 107.142 27.8984V21.582H105.431V20.0703L107.4 18.875L108.431 16.1094H110.716V18.8984H114.384V21.582H110.716V27.8984C110.716 28.4062 110.857 28.7812 111.138 29.0234C111.427 29.2656 111.806 29.3867 112.275 29.3867ZM120.033 25.4258C120.033 26.7227 120.244 27.7031 120.666 28.3672C121.095 29.0312 121.791 29.3633 122.751 29.3633C123.705 29.3633 124.388 29.0352 124.802 28.3789C125.224 27.7148 125.435 26.7305 125.435 25.4258C125.435 24.1289 125.224 23.1562 124.802 22.5078C124.38 21.8594 123.689 21.5352 122.728 21.5352C121.775 21.5352 121.087 21.8594 120.666 22.5078C120.244 23.1484 120.033 24.1211 120.033 25.4258ZM129.091 25.4258C129.091 27.5586 128.529 29.2266 127.404 30.4297C126.279 31.6328 124.712 32.2344 122.705 32.2344C121.447 32.2344 120.337 31.9609 119.376 31.4141C118.416 30.8594 117.677 30.0664 117.162 29.0352C116.646 28.0039 116.388 26.8008 116.388 25.4258C116.388 23.2852 116.947 21.6211 118.064 20.4336C119.181 19.2461 120.751 18.6523 122.775 18.6523C124.033 18.6523 125.142 18.9258 126.103 19.4727C127.064 20.0195 127.802 20.8047 128.318 21.8281C128.833 22.8516 129.091 24.0508 129.091 25.4258ZM139.357 18.6523C139.841 18.6523 140.244 18.6875 140.564 18.7578L140.294 22.1094C140.005 22.0312 139.654 21.9922 139.24 21.9922C138.099 21.9922 137.208 22.2852 136.568 22.8711C135.935 23.457 135.619 24.2773 135.619 25.332V32H132.044V18.8984H134.751L135.279 21.1016H135.455C135.861 20.3672 136.408 19.7773 137.095 19.332C137.791 18.8789 138.544 18.6523 139.357 18.6523ZM151.029 32L150.337 30.2188H150.244C149.642 30.9766 149.021 31.5039 148.38 31.8008C147.748 32.0898 146.919 32.2344 145.896 32.2344C144.638 32.2344 143.646 31.875 142.919 31.1562C142.201 30.4375 141.841 29.4141 141.841 28.0859C141.841 26.6953 142.326 25.6719 143.294 25.0156C144.271 24.3516 145.74 23.9844 147.701 23.9141L149.974 23.8438V23.2695C149.974 21.9414 149.294 21.2773 147.935 21.2773C146.888 21.2773 145.658 21.5938 144.244 22.2266L143.06 19.8125C144.568 19.0234 146.24 18.6289 148.076 18.6289C149.833 18.6289 151.181 19.0117 152.119 19.7773C153.056 20.543 153.525 21.707 153.525 23.2695V32H151.029ZM149.974 25.9297L148.591 25.9766C147.552 26.0078 146.779 26.1953 146.271 26.5391C145.763 26.8828 145.509 27.4062 145.509 28.1094C145.509 29.1172 146.087 29.6211 147.244 29.6211C148.072 29.6211 148.732 29.3828 149.224 28.9062C149.724 28.4297 149.974 27.7969 149.974 27.0078V25.9297ZM162.642 29.4336C163.603 29.4336 164.291 29.1602 164.705 28.6133C165.119 28.0586 165.326 27.1641 165.326 25.9297V25.4961C165.326 24.0977 165.107 23.0938 164.669 22.4844C164.24 21.8672 163.544 21.5586 162.583 21.5586C160.904 21.5586 160.064 22.8789 160.064 25.5195C160.064 26.832 160.271 27.8125 160.685 28.4609C161.107 29.1094 161.759 29.4336 162.642 29.4336ZM168.666 32.0234C168.666 33.9062 168.115 35.332 167.013 36.3008C165.919 37.2773 164.287 37.7656 162.115 37.7656C160.201 37.7656 158.568 37.5078 157.216 36.9922V34.1328C158.802 34.8047 160.505 35.1406 162.326 35.1406C164.162 35.1406 165.08 34.1484 165.08 32.1641V31.9062L165.185 30.3008H165.08C164.244 31.5898 163.005 32.2344 161.365 32.2344C159.794 32.2344 158.576 31.6289 157.708 30.418C156.849 29.207 156.419 27.5586 156.419 25.4727C156.419 23.3242 156.865 21.6523 157.755 20.457C158.654 19.2539 159.888 18.6523 161.458 18.6523C163.068 18.6523 164.333 19.293 165.255 20.5742H165.349L165.642 18.8984H168.666V32.0234ZM177.83 21.1953C177.072 21.1953 176.478 21.4375 176.048 21.9219C175.619 22.3984 175.373 23.0781 175.31 23.9609H180.326C180.31 23.0781 180.08 22.3984 179.634 21.9219C179.189 21.4375 178.587 21.1953 177.83 21.1953ZM178.333 32.2344C176.224 32.2344 174.576 31.6523 173.388 30.4883C172.201 29.3242 171.607 27.6758 171.607 25.543C171.607 23.3477 172.154 21.6523 173.248 20.457C174.349 19.2539 175.869 18.6523 177.806 18.6523C179.658 18.6523 181.099 19.1797 182.13 20.2344C183.162 21.2891 183.677 22.7461 183.677 24.6055V26.3398H175.228C175.267 27.3555 175.568 28.1484 176.13 28.7188C176.693 29.2891 177.482 29.5742 178.498 29.5742C179.287 29.5742 180.033 29.4922 180.736 29.3281C181.439 29.1641 182.173 28.9023 182.939 28.543V31.3086C182.314 31.6211 181.646 31.8516 180.935 32C180.224 32.1562 179.357 32.2344 178.333 32.2344Z" fill="#7D7D7D"/>
<circle cx="23.3333" cy="23.3333" r="23.3333" fill="url(#paint0_linear)"/>
<defs>
<linearGradient id="paint0_linear" x1="23.3333" y1="0" x2="23.3333" y2="46.6667" gradientUnits="userSpaceOnUse">
<stop stop-color="#5E9AD2"/>
<stop offset="1" stop-color="#A4D9FF"/>
</linearGradient>
</defs>
</svg>
