<svg width="482" height="27" viewBox="0 0 482 27" fill="none" xmlns="http://www.w3.org/2000/svg">
<path d="M1 16L144.5 16M481 16L336.5 16" stroke="#EDEDED" stroke-linecap="round" stroke-linejoin="round"/>
<path d="M154.465 10.2773V16.8203L154.387 18.7148L154.348 19.2617L160.09 10.2773H162.248V21H160.607V14.6816L160.637 13.3242L160.686 12.0352L154.982 21H152.805V10.2773H154.465ZM173.84 21H172.053V11.7422H168.898C168.716 14.0859 168.469 15.9284 168.156 17.2695C167.85 18.6042 167.447 19.584 166.945 20.209C166.451 20.8275 165.816 21.1367 165.041 21.1367C164.618 21.1367 164.309 21.0911 164.113 21V19.6816C164.25 19.7337 164.432 19.7598 164.66 19.7598C165.376 19.7598 165.946 19.0046 166.369 17.4941C166.799 15.9837 167.134 13.5781 167.375 10.2773H173.84V21ZM178.898 10.2773V16.8203L178.82 18.7148L178.781 19.2617L184.523 10.2773H186.682V21H185.041V14.6816L185.07 13.3242L185.119 12.0352L179.416 21H177.238V10.2773H178.898ZM197.062 21H195.305V10.2773H204.367V21H202.609V11.7812H197.062V21ZM212.863 21.1953C211.424 21.1953 210.318 20.6777 209.543 19.6426H209.426L209.465 20.043C209.517 20.5508 209.543 21.0033 209.543 21.4004V25.8047H207.785V10.2773H209.23L209.465 11.7422H209.543C209.96 11.1562 210.441 10.7331 210.988 10.4727C211.535 10.2122 212.167 10.082 212.883 10.082C214.276 10.082 215.357 10.5671 216.125 11.5371C216.9 12.5007 217.287 13.8613 217.287 15.6191C217.287 17.3704 216.9 18.7376 216.125 19.7207C215.35 20.7038 214.263 21.1953 212.863 21.1953ZM212.57 11.5566C211.509 11.5566 210.741 11.8561 210.266 12.4551C209.797 13.054 209.556 13.9948 209.543 15.2773V15.6191C209.543 17.071 209.784 18.1224 210.266 18.7734C210.747 19.418 211.529 19.7402 212.609 19.7402C213.508 19.7402 214.208 19.3757 214.709 18.6465C215.217 17.9173 215.471 16.9017 215.471 15.5996C215.471 14.291 215.217 13.2917 214.709 12.6016C214.208 11.9049 213.495 11.5566 212.57 11.5566ZM229.406 15.6191C229.406 17.3704 228.964 18.7376 228.078 19.7207C227.193 20.7038 225.969 21.1953 224.406 21.1953C223.436 21.1953 222.577 20.9707 221.828 20.5215C221.079 20.0658 220.503 19.4147 220.1 18.5684C219.696 17.722 219.494 16.7389 219.494 15.6191C219.494 13.8743 219.93 12.5169 220.803 11.5469C221.675 10.5703 222.899 10.082 224.475 10.082C225.985 10.082 227.183 10.5801 228.068 11.5762C228.96 12.5658 229.406 13.9134 229.406 15.6191ZM221.311 15.6191C221.311 16.9668 221.574 17.9922 222.102 18.6953C222.635 19.3919 223.42 19.7402 224.455 19.7402C225.477 19.7402 226.255 19.3919 226.789 18.6953C227.323 17.9922 227.59 16.9668 227.59 15.6191C227.59 14.2715 227.32 13.2591 226.779 12.582C226.245 11.8984 225.461 11.5566 224.426 11.5566C222.349 11.5566 221.311 12.9108 221.311 15.6191ZM241.721 24.7207H240.021V21H232.561V24.7207H230.881V19.5156H231.74C232.606 18.3112 233.28 16.918 233.762 15.3359C234.243 13.7474 234.497 12.0612 234.523 10.2773H240.158V19.5156H241.721V24.7207ZM238.459 19.5156V11.6641H236.076C235.979 13.1029 235.699 14.5482 235.236 16C234.781 17.4453 234.221 18.6172 233.557 19.5156H238.459ZM253.137 15.6191C253.137 17.3704 252.694 18.7376 251.809 19.7207C250.923 20.7038 249.699 21.1953 248.137 21.1953C247.167 21.1953 246.307 20.9707 245.559 20.5215C244.81 20.0658 244.234 19.4147 243.83 18.5684C243.426 17.722 243.225 16.7389 243.225 15.6191C243.225 13.8743 243.661 12.5169 244.533 11.5469C245.406 10.5703 246.63 10.082 248.205 10.082C249.715 10.082 250.913 10.5801 251.799 11.5762C252.691 12.5658 253.137 13.9134 253.137 15.6191ZM245.041 15.6191C245.041 16.9668 245.305 17.9922 245.832 18.6953C246.366 19.3919 247.15 19.7402 248.186 19.7402C249.208 19.7402 249.986 19.3919 250.52 18.6953C251.053 17.9922 251.32 16.9668 251.32 15.6191C251.32 14.2715 251.05 13.2591 250.51 12.582C249.976 11.8984 249.191 11.5566 248.156 11.5566C246.079 11.5566 245.041 12.9108 245.041 15.6191ZM264.094 21H262.307V11.7422H259.152C258.97 14.0859 258.723 15.9284 258.41 17.2695C258.104 18.6042 257.701 19.584 257.199 20.209C256.704 20.8275 256.07 21.1367 255.295 21.1367C254.872 21.1367 254.562 21.0911 254.367 21V19.6816C254.504 19.7337 254.686 19.7598 254.914 19.7598C255.63 19.7598 256.2 19.0046 256.623 17.4941C257.053 15.9837 257.388 13.5781 257.629 10.2773H264.094V21ZM272.453 10.2773H274.094V15.4824L278.449 10.2773H280.354L275.93 15.4824L280.734 21H278.732L274.094 15.5605V21H272.453V15.5605L267.814 21H265.812L270.617 15.4824C268.599 13.0866 267.124 11.3516 266.193 10.2773H268.117L272.453 15.4824V10.2773ZM284.152 10.2773V16.8203L284.074 18.7148L284.035 19.2617L289.777 10.2773H291.936V21H290.295V14.6816L290.324 13.3242L290.373 12.0352L284.67 21H282.492V10.2773H284.152ZM302.766 11.7617H299.26V21H297.521V11.7617H294.064V10.2773H302.766V11.7617ZM306.652 14.6816H309.836C312.622 14.6816 314.016 15.694 314.016 17.7188C314.016 18.7865 313.654 19.6003 312.932 20.1602C312.209 20.7201 311.151 21 309.758 21H304.895V10.2773H306.652V14.6816ZM312.258 17.8164C312.258 17.2435 312.056 16.8203 311.652 16.5469C311.249 16.2734 310.575 16.1367 309.631 16.1367H306.652V19.584H309.68C310.507 19.584 311.141 19.4342 311.584 19.1348C312.033 18.8353 312.258 18.3958 312.258 17.8164ZM326.281 21.1953C324.738 21.1953 323.537 20.7233 322.678 19.7793C321.818 18.8288 321.389 17.4681 321.389 15.6973C321.389 13.9004 321.822 12.5169 322.688 11.5469C323.56 10.5703 324.8 10.082 326.408 10.082C326.929 10.082 327.443 10.1374 327.951 10.248C328.465 10.3522 328.889 10.4889 329.221 10.6582L328.684 12.123C327.779 11.7845 327.007 11.6152 326.369 11.6152C325.288 11.6152 324.491 11.957 323.977 12.6406C323.462 13.3177 323.205 14.3301 323.205 15.6777C323.205 16.9733 323.462 17.9661 323.977 18.6562C324.491 19.3398 325.253 19.6816 326.262 19.6816C327.206 19.6816 328.133 19.4733 329.045 19.0566V20.6191C328.303 21.0033 327.382 21.1953 326.281 21.1953Z" fill="#EDEDED"/>
</svg>
