<svg width="25" height="25" viewBox="0 0 25 25" fill="none" xmlns="http://www.w3.org/2000/svg">
<circle cx="12.5" cy="12.5" r="11.5575" fill="white" stroke="#FF786F" stroke-width="1.885"/>
<path d="M12.4941 16.9058C11.8061 16.9058 11.2295 17.4758 11.2295 18.1558C11.2295 18.8358 11.8061 19.4058 12.4941 19.4058C13.1567 19.4058 13.7587 18.8358 13.7283 18.1858C13.7587 17.4708 13.1871 16.9058 12.4941 16.9058Z" fill="#FF786F"/>
<path d="M12.2034 6.04368C11.5848 6.25412 11.2002 6.92258 11.2002 7.7334C11.2314 8.22236 11.2574 8.71751 11.2886 9.20648C11.3769 11.0695 11.4653 12.8954 11.5537 14.7584C11.5848 15.3897 11.9955 15.8477 12.5257 15.8477C13.0559 15.8477 13.4717 15.3588 13.4977 14.7212C13.4977 14.3375 13.4977 13.9847 13.5289 13.5948C13.5861 12.4002 13.6485 11.2057 13.7056 10.0111C13.7368 9.23742 13.794 8.46375 13.8252 7.69007C13.8252 7.41154 13.794 7.16397 13.7056 6.91639C13.4405 6.22318 12.822 5.87038 12.2034 6.04368Z" fill="#FF786F"/>
</svg>
