<svg width="50" height="60" viewBox="0 0 50 60" fill="none" xmlns="http://www.w3.org/2000/svg">
<path d="M29.9003 3.33334L26.9851 1.32682C25.8241 0.527765 24.2906 0.527765 23.1297 1.32682L1.4723 16.2334C0.550566 16.8678 0 17.9152 0 19.0341V40.9659C0 42.0849 0.550565 43.1322 1.4723 43.7666L23.1296 58.6732C24.2906 59.4722 25.8241 59.4722 26.9851 58.6732L27.7778 58.1276V31.4609L44.429 20L44.4444 19.9894V20.0106V26.656V26.6773V33.3227V33.344V39.9894V40.0106L44.429 40L33.3333 47.6371V54.3037L48.5367 43.7674C49.4532 43.1322 50 42.088 50 40.9729V18.4613C50 17.2343 49.339 16.1026 48.2703 15.4998L44.429 13.3333L22.2222 28.6181V51.3819L5.68573 40L5.55555 40.0896V39.9104V20.0896L5.68573 20L29.9003 3.33334Z" fill="white"/>
<path d="M11.1111 37.0676V22.9324L34.7432 6.66667L39.5861 10L16.6667 25.7752V40.8914L11.1111 37.0676Z" fill="white"/>
<path d="M33.3333 40.9704V34.3037L38.8889 30.4799V37.1465L33.3333 40.9704Z" fill="white"/>
</svg>
