<svg width="540" height="406" viewBox="0 0 540 406" fill="none" xmlns="http://www.w3.org/2000/svg">
<path d="M2.7149 333.719H533.715C550.929 300.219 524.855 269.216 501.429 272.219C501.429 241 465.429 212 429.93 234.219C429.93 188.5 380.929 163 345.929 177.5C359.929 128.5 308.429 88.5002 267.929 95.0002C236.929 37.5001 138.429 63.5003 142.429 120.5C106.929 99.0001 32.7144 138 55.9287 206C20.9287 203 11.4287 250 29.9287 266C-0.328186 277.727 -3.68848 304.782 2.7149 333.719Z" fill="#CCE8FF"/>
<path d="M152.151 122.911C151.386 131.325 147.362 132.327 146.694 138.981L149.307 145L136.307 150.5L134.359 144.215C131.768 143.303 129.334 141.981 124.531 127.713C122.824 124.447 121.931 122.673 119.137 118.402C117.827 115.725 120.327 114.29 121.916 116.637C124.306 120.277 126.728 123.1 127.665 123.87C128.14 124.058 128.487 123.769 128.708 123.241C128.93 122.713 126.083 116.422 123.788 111.809C121.823 108.509 125.103 106.011 127.206 110.029C129.025 113.765 131.662 120.309 132.862 121.39C133.233 121.725 133.607 121.222 133.607 121.222C133.661 120.011 131.193 113.519 129.027 107.574C127.465 103.886 131.047 102.053 132.727 105.925C134.273 109.491 136.686 117.476 138.01 120.448C138.254 120.995 139.227 121.556 139.441 120.997C139.991 119.565 139.485 115.119 139.432 110.318C139.52 106.362 142.554 106.976 142.844 109.985C143.611 117.945 143.241 122.865 145.076 130.393C146.811 129.149 148.73 120.19 152.151 122.911Z" fill="#FFCDB0"/>
<path d="M277.017 232.043C240.195 234.33 241.899 243.006 192.458 232.043C190.038 212.025 189.935 189.246 190.852 173.712C188.393 186.871 183.468 198.9 178.307 208.056C171.429 224 156.868 212 153.307 206.043C149.747 200.085 133.712 171.474 134.307 148.5C143.515 148.666 149.807 143 149.807 143C149.807 143 155.001 151.082 160.985 161.697C165.04 144.183 178.191 99.6955 215.518 97.5426C227.522 96.8502 233.017 97.0623 249.518 97.0623C311.517 93 317.788 202.571 315.518 208.056C310.251 220.787 295.021 212.702 277.458 197.008C277.586 201.167 277.64 204.409 277.652 206.043C277.546 214.956 277.017 223.894 277.017 232.043Z" fill="#5E9AD2"/>
<path d="M178.307 208.056C185.383 195.5 192.017 177.543 192.458 158.677C190.261 169.543 189.017 203.584 192.458 232.043C241.899 243.006 240.195 234.33 277.017 232.043C277.017 223.894 277.546 214.956 277.652 206.043C277.595 198.004 276.518 151.043 270.518 147.543M178.307 208.056C171.429 224 156.868 212 153.307 206.043C149.747 200.085 133.712 171.474 134.307 148.5C143.515 148.666 149.807 143 149.807 143C149.807 143 182.596 194.014 178.307 208.056ZM159.5 168.5C160.617 164.505 170.433 100.143 215.518 97.5426C227.522 96.8502 233.017 97.0623 249.518 97.0623C311.517 93 317.788 202.571 315.518 208.056C309.518 222.556 290.594 210.051 270.018 190.058" stroke="#5E9AD2" stroke-width="0.741035" stroke-linecap="round" stroke-linejoin="round"/>
<rect x="228.286" y="130.001" width="22" height="40" rx="2" transform="rotate(9.0184 228.286 130.001)" fill="#CECECE"/>
<rect x="228.702" y="130.573" width="21" height="39" rx="1.5" transform="rotate(9.0184 228.702 130.573)" stroke="url(#paint0_linear)" stroke-opacity="0.2"/>
<path d="M179.846 195.612C181.517 181.224 178.807 174 162.307 163.919C168.987 171.694 174.737 184.226 176.203 192.556C177.67 200.886 178.175 210 179.846 195.612Z" fill="#4D8EC8"/>
<path fill-rule="evenodd" clip-rule="evenodd" d="M264.054 163.962C263.864 163.952 263.67 163.942 263.472 163.932C259.152 163.718 253.313 163.429 254.017 158.501C256.062 158.413 267.227 153.002 269.517 143.501L269.515 143.516L269.519 143.501C271.011 146.894 272.214 149.735 273.202 152.253C278.125 160.954 285.92 169.138 292.29 173.684C298.965 178.448 310.517 188.501 311.517 190.001C312.517 191.501 313.517 193.501 312.017 193.501C311.627 193.501 310.593 192.508 309.712 191.661C309.462 191.421 309.224 191.192 309.017 191.001C302.983 185.385 290.432 176.716 277.851 168.981C277.907 169.315 277.963 169.655 278.019 170.001C282.68 199.094 278.367 232.043 278.367 232.043L223.229 239.543L196.519 232.043C196.519 232.043 233.519 221.543 245.519 208.043C246.982 206.397 248.446 204.191 249.888 201.588C252.932 192.255 245.972 171.467 244.016 167.001C249.278 169.303 254.124 176.217 258.192 182.022L258.243 182.093C260.412 175.986 262.385 169.67 264.054 163.962Z" fill="#4D8EC8"/>
<path d="M250.125 142.705C254.133 150.143 251.222 153.45 254.338 159.367L259.346 161.603L252.719 172.942L247.054 170.291C244.39 170.962 241.631 171.203 229.749 161.96C226.522 160.178 228.705 160.519 224.017 158.5C221.694 157.501 223.016 154.144 225.017 155.001C229.019 156.716 229.033 156.9 230.239 157.025C230.739 156.919 230.869 156.487 230.762 155.924C230.655 155.361 229.976 154.579 225.517 152.001C222.517 150.501 224.474 147.001 227.017 148.501C230.595 150.612 231.606 151.848 233.203 152.088C233.698 152.162 233.732 151.536 233.732 151.536C233.108 150.496 231.606 149.761 226.516 146.001C223.516 144.501 225.517 140.7 227.516 142.001C229.516 143.301 234.231 146.713 236.975 148.459C237.48 148.781 238.602 148.711 238.472 148.127C238.139 146.63 232.767 141.656 230.762 139.001C228.758 136.346 231.236 133.82 233.732 136.501C239.149 142.319 241.924 146.329 248.358 152.85C249.117 150.855 245.77 142.325 250.125 142.705Z" fill="#FFCDB0"/>
<path d="M286.756 322.33C276.54 315.879 265.936 309.181 256.503 303.223C247.071 297.266 258.284 279.511 267.717 285.468L297.969 304.575C308.577 311.274 296.971 328.781 286.756 322.33Z" fill="white" stroke="#FBFBFB" stroke-linecap="round" stroke-linejoin="round"/>
<path d="M253.016 393.756C250.016 382.012 248.016 369.001 248.016 357.159C248.016 345.317 267.599 344.56 269.701 357.159C271.802 369.759 275.016 378.512 275.016 393.756C275.016 409.001 256.016 405.501 253.016 393.756Z" fill="white" stroke="#FBFBFB" stroke-linecap="round" stroke-linejoin="round"/>
<path d="M191.674 227.662C199.66 229.918 205.827 236.126 233.172 235.813C260.517 235.5 283.225 230.525 304.018 227.662L299.518 270.544C248.757 310.303 137.428 273 139.428 223.5L156.166 213.211C168.518 225.688 180.929 243.223 180.929 243.223L191.674 227.662Z" fill="#484848"/>
<path d="M263.429 286L256.016 277L243.929 293L254.429 299C258.429 299.5 259.857 299 262.429 294.5C264.427 291.003 265.929 290 263.429 286Z" fill="#FED7C2"/>
<path d="M252.016 352.501L254.016 337.001L274.016 343.001C274.016 343.001 269.773 350.181 267.516 354.001C265.26 357.821 263.716 358.568 259.016 358.501C255.686 357.336 253.937 356.912 252.016 352.501Z" fill="#FED7C2"/>
<path d="M283.697 315.232C275.687 310.315 267.372 305.21 259.976 300.669C252.58 296.128 259.495 284.865 266.891 289.406L290.612 303.969C298.93 309.075 291.707 320.15 283.697 315.232Z" fill="white" stroke="#FBFBFB" stroke-width="0.420225" stroke-linecap="round" stroke-linejoin="round"/>
<path d="M257.62 385.003C256.044 375.902 254.381 368.243 253.545 360.441C252.708 352.639 266.65 351.145 267.487 358.947C268.323 366.748 269.105 375.461 270.046 384.235C270.986 393.009 259.196 394.103 257.62 385.003Z" fill="white" stroke="#FBFBFB" stroke-width="0.420225" stroke-linecap="round" stroke-linejoin="round"/>
<path d="M256.62 381.5C260.223 384 264.34 386 270.517 385" stroke="#EDEDED" stroke-width="1.5" stroke-linecap="round"/>
<path d="M257.306 386.697C261.684 386.059 266.075 384.714 269.797 379.822" stroke="#EDEDED" stroke-width="1.5" stroke-linecap="round"/>
<path d="M282.152 313.831C286.357 312.585 290.494 310.625 293.579 305.182" stroke="#EDEDED" stroke-width="1.5" stroke-linecap="round"/>
<path d="M286.634 316.547C288.877 312.733 290.576 308.467 289.09 302.503" stroke="#EDEDED" stroke-width="1.5" stroke-linecap="round"/>
<path d="M255.075 373.5C259.708 376 263.31 377 269.351 377.724" stroke="#EDEDED" stroke-width="1.5" stroke-linecap="round"/>
<path d="M256.105 379.5C261.252 378 264.34 376.5 268.973 371.5" stroke="#EDEDED" stroke-width="1.5" stroke-linecap="round"/>
<path d="M253.017 364C257.134 366.5 262.281 368.5 268.972 369.5" stroke="#EDEDED" stroke-width="1.5" stroke-linecap="round"/>
<path d="M254.561 371.5C259.708 370 263.31 367.5 267.943 362.5" stroke="#EDEDED" stroke-width="1.5" stroke-linecap="round"/>
<path d="M259.517 237C270.293 229.946 274.676 225.873 280.517 218.5L287.517 238.5L259.517 237Z" fill="#484848"/>
<path d="M174.114 215.548C139.179 195.852 127.891 229.764 151.592 246.312C178.907 265.383 210.665 279.223 247.197 297.311L259.702 278.44C228.766 254.169 197.46 225.517 174.114 215.548Z" fill="#5A5A5A"/>
<path d="M296.429 303C288.429 297.5 286.929 298 283.929 296L274.429 313.5C277.929 317 283.429 321 286.929 323C291.453 323.014 298.293 305.022 296.429 303Z" fill="#DFDFDF" fill-opacity="0.25"/>
<path d="M274.843 228.056C285.127 199.231 320.035 203.462 312.102 236.144C304.17 268.825 288.863 309.235 273.516 347.001L251.016 340.501C256.481 301.612 264.558 256.881 274.843 228.056Z" fill="#5A5A5A"/>
<mask id="mask0" mask-type="alpha" maskUnits="userSpaceOnUse" x="203" y="201" width="157" height="156">
<path d="M274.843 228.074C285.127 199.249 320.035 203.48 312.102 236.162C304.17 268.844 289.023 311.344 273.676 349.109L251.516 341.001C256.981 302.112 264.558 256.899 274.843 228.074Z" fill="#5A5A5A"/>
</mask>
<g mask="url(#mask0)">
<path d="M314.518 228.062C305.518 227.062 295.518 223.562 288.518 210.562H308.018L318.018 218.562L314.518 228.062Z" fill="#484848"/>
</g>
<path d="M313.016 227.5L306.516 224.5C304.463 254.122 288.898 299.296 270.516 341.5L261.516 343.5L273.516 347C290.783 304.641 314.516 237 313.016 227.5Z" fill="#484848"/>
<path d="M220.307 104L216.307 76.0001L246.807 87.4998L249.307 102C238.307 114 227.453 108.141 220.307 104Z" fill="#FFCDB0"/>
<path d="M214.807 74.4996C208.43 58.2132 246.807 86 246.807 86L248.261 96.4996C230.37 98.928 221.185 90.7861 214.807 74.4996Z" fill="#E9B598"/>
<path d="M212.667 68.6596C210.966 84.0358 266.02 125.712 253.958 47.7916C238.657 26.2615 212.485 39.879 215.298 59.9123L214.822 58.6093C205.442 39.6514 197.219 68.2654 212.667 68.6596Z" fill="#FFCDB0"/>
<path d="M253.145 48.8361C262.082 65.8722 289.223 36.7486 264.998 34.1819C255.663 29.6267 266.828 20.9748 268.71 28.1574C274.095 20.7633 260.937 8.73404 249.573 18.9021C244.371 25.4147 241.724 15.6147 236.704 14.0013C225.423 11.1268 209.404 17.1863 209.445 25.6554C190.989 31.1176 195.666 43.2171 205.751 53.3126C211.416 51.591 212.773 55.9989 215.557 61.2965C220.474 42.1094 222.45 38.9618 238.47 42.4728C239.17 50.9072 248.28 50.534 252.676 49.0005C252.845 48.9418 253 48.8871 253.145 48.8361Z" fill="#5A5A5A"/>
<ellipse rx="2.4191" ry="3.41929" transform="matrix(-0.957442 0.288624 0.288624 0.957442 230.056 63.2801)" fill="#383838"/>
<ellipse rx="4.0564" ry="1.93908" transform="matrix(-0.985068 0.172164 0.172164 0.985068 241.448 75.836)" fill="#E9B598"/>
<ellipse rx="4.81647" ry="3.10224" transform="matrix(-0.945647 -0.325196 -0.325196 0.945647 223.279 71.3234)" fill="#FFB393"/>
<path d="M246.596 83.2356C246.805 83.2565 246.979 83.4057 247.031 83.6091C247.083 83.8125 247.002 84.0268 246.829 84.1455C243.654 86.322 240.732 86.9069 237.881 86.2623C235.06 85.6248 232.378 83.7992 229.63 81.309C229.455 81.1505 229.414 80.8911 229.533 80.687C229.652 80.4829 229.897 80.3898 230.121 80.4635C235.475 82.2244 239.159 82.556 243.733 82.9677C244.645 83.0498 245.593 83.1351 246.596 83.2356Z" fill="white" stroke="#FFB393" stroke-linecap="round" stroke-linejoin="round"/>
<path d="M248.98 72.5835C249.721 74.1285 252.266 74.4488 254.664 73.299C255.986 72.2281 255.607 69.2977 255.727 67.5638C255.807 66.4071 254.381 66.5543 251.982 67.7041C249.584 68.8539 248.239 71.0385 248.98 72.5835Z" fill="#FFB393"/>
<ellipse rx="2.30288" ry="3.34814" transform="matrix(-0.999488 -0.0320039 -0.0320039 0.999488 247.784 62.5652)" fill="#383838"/>
<path d="M248.774 56.1785C250.944 56.509 256.072 57.2643 256.329 55.5792C256.585 53.894 251.615 52.1045 249.445 51.7741C247.275 51.4437 245.365 52.1618 245.18 53.378C244.995 54.5943 246.604 55.8481 248.774 56.1785Z" fill="#5A5A5A"/>
<path d="M228.983 56.8474C226.735 57.1881 221.242 58.6232 220.987 56.9378C220.732 55.2525 226.067 52.7831 228.316 52.4425C230.565 52.1018 232.537 52.8118 232.721 54.0282C232.906 55.2446 231.232 56.5068 228.983 56.8474Z" fill="#5A5A5A"/>
<path d="M249.807 98C249.265 104.5 224.807 112 217.807 98L210.307 110.5L217.307 123L236.307 121.5L252.307 119.5L260.807 108L249.807 98Z" fill="#5E9AD2"/>
<path d="M312.017 194.003C319.077 200.979 317.837 216.235 306.909 217.582C295.98 218.929 265.553 193.034 247.517 172.496L258.517 158.5C283.018 170.001 304.958 187.027 312.017 194.003Z" fill="#5E9AD2"/>
<path d="M176.428 269.5C203.428 267 224.938 282.142 236.928 300.5L227.715 306.721L98.9671 265.246L118.231 250.316C139.928 240 169.911 256.865 176.428 269.5Z" fill="#CCE8FF" fill-opacity="0.8"/>
<path d="M280.929 330.5L337.929 330.5L315.429 322.566C314.429 314 300.243 311.819 296.929 321.5C290.549 319.175 285.336 322.649 280.929 330.5Z" fill="#CCE8FF" fill-opacity="0.8"/>
<defs>
<linearGradient id="paint0_linear" x1="239.286" y1="130.001" x2="239.286" y2="170.001" gradientUnits="userSpaceOnUse">
<stop stop-color="#D2D2D2"/>
<stop offset="1" stop-color="#ADADAD"/>
</linearGradient>
</defs>
</svg>
