<svg width="535" height="426" viewBox="0 0 535 426" fill="none" xmlns="http://www.w3.org/2000/svg">
<path d="M532.001 340.499H1.00122C-1.1018 317.833 6.07504 305.996 29.5014 308.999C30.7543 273.033 52.2579 259.134 84.0014 261.499C76.9566 189.375 164.7 129.207 231.501 150.999C235.079 106.348 280.206 91.2536 313.001 103.999C352.611 48.8942 419.587 83.8748 417.501 123C489.064 122.701 497.501 191 480.501 212.5C508.198 223.77 515.229 249.777 502.001 272.499C532.258 284.226 538.404 311.562 532.001 340.499Z" fill="#CCE8FF"/>
<path d="M149.605 292.873L138.201 309.8L126.5 315.632L119.118 305.918L121.227 302.844L126.995 288.925L149.605 292.873Z" fill="#FFCDB0"/>
<path d="M129.933 375.177L139.768 361.245L168.995 361.787L147.429 383.062L147.42 383.566L135.354 381.83L129.933 375.177Z" fill="#FFCDB0"/>
<path d="M140.501 325.45C141.333 318.463 140.924 314.922 138.362 309.393C129.625 310.103 125.567 309.047 119.234 305.623C95.2417 314.691 72.3538 314.866 73.9779 324.577L140.501 325.45Z" fill="white"/>
<path d="M140.502 325.447L73.979 324.575C74.3109 326.67 74.7114 327.695 76.2709 328.905L140.446 329.747C140.909 328.242 140.922 327.301 140.502 325.447Z" fill="#F0F0F0"/>
<path d="M145.123 399.264C147.963 392.826 148.608 389.321 147.776 383.284C139.213 381.406 135.642 379.21 130.588 374.082C104.993 375.733 83.0554 369.202 81.7669 378.963L145.123 399.264Z" fill="white"/>
<path d="M145.123 399.262L81.7676 378.96C81.4717 381.062 81.5547 382.159 82.6919 383.772L143.812 403.357C144.695 402.053 144.982 401.157 145.123 399.262Z" fill="#F0F0F0"/>
<path d="M188.715 173.997C216.489 169.375 273.951 199.342 283.225 204.308L287.5 203.498L286.724 206.998L314.502 231.998L264.903 253.237C231.709 237.261 227.871 230.892 199.308 218.761C179.546 251.8 167.95 270.39 146.792 301.588L122.307 292.093C122.272 292.152 122.257 292.147 122.263 292.076L122.307 292.093C123.745 289.663 159.164 178.915 188.715 173.997Z" fill="#5A5A5A"/>
<path d="M250.751 246.058C231.612 235.57 221.145 228.416 200.129 219.121C199.665 218.916 199.109 219.094 198.848 219.53C179.6 251.691 168.308 269.837 146.794 301.586L135.514 297.16C139.108 297.62 143.709 297.645 145.179 296.403C160.827 277.411 196.413 217.015 196.413 217.015C197.543 215.385 199.094 215.354 200.551 215.824C224.71 223.621 244.009 238.049 249.915 237.398C260.624 236.218 277.078 224.279 299.501 221.998L311.353 227.567C311.353 227.567 270.138 256.682 250.751 246.058Z" fill="#484848"/>
<path d="M305.799 227.481L361.878 248.166C346.288 278.523 348.502 289.046 227.104 296.882C198.674 334.319 179.501 352.078 156.381 377.402L133.134 365.658C155.718 328.14 170.412 302.254 194.153 271.479C195.723 269.443 197.681 267.734 199.923 266.478C231.485 248.797 261.642 240.426 305.799 227.481Z" fill="#5A5A5A"/>
<path d="M227.048 296.772C318.641 293.64 351.755 283.769 362.001 248.498L344.994 243.357C336.801 272.932 299.676 280.904 223.344 292.437C174.802 356.871 156.23 370.622 156.23 370.622C152.942 371.999 147.759 371.42 143.622 370.893L156.23 378.498C186.912 347.708 202.505 328.946 227.048 296.772Z" fill="#484848"/>
<path d="M314.84 90.8045C310.717 98.1786 306.364 97.4976 303.045 103.304L303.847 108.729L290.723 109.226L289.918 103.023C287.922 101.136 286.237 98.9374 287.656 83.9502C287.426 80.2715 287.333 78.2887 286.519 73.2496C286.411 70.2709 289.279 69.9783 289.775 72.7688C290.477 77.0656 291.541 80.6305 292.083 81.7147C292.44 82.0795 292.874 81.9572 293.292 81.565C293.71 81.1728 293.669 74.2675 293.45 69.1208C292.998 65.3061 297.011 64.3591 297.297 68.8854C297.437 73.0383 297.183 80.0886 297.839 81.565C298.042 82.0222 298.589 81.7149 298.589 81.7149C299.131 80.6307 299.519 73.6963 299.959 67.3839C300.033 63.3795 304.052 63.1626 304.009 67.3837C303.971 71.2701 302.925 79.5462 302.925 82.799C302.925 83.3978 303.586 84.3066 304.009 83.8832C305.094 82.799 306.441 78.5321 308.346 74.125C310.037 70.5474 312.559 72.3428 311.599 75.2092C309.059 82.7928 306.72 87.136 305.332 94.7596C307.423 94.329 312.822 86.9261 314.84 90.8045Z" fill="#FFCDB0"/>
<path d="M289.104 104.941C295.879 107.309 297.284 106.04 304.139 105.655C310.06 126.974 312.118 141.559 320.993 145.305C329.534 127.508 344.914 119.699 369.175 118.832C378.768 132.234 385.027 130.86 396.48 128.201C441.343 153.943 409.536 226.187 391.663 234.893C388.067 236.645 383.891 237.518 379.229 237.64C374.535 241.764 369.956 244.936 362.264 248.76C348 246.499 325.5 238.999 308.5 228.499C297 219.999 288.676 210.999 286.588 206.999C284.5 202.999 283.983 200.289 286.589 195.29C292.671 193.968 300.837 186.405 304.139 183.498C279.49 158.706 286.525 130.601 289.104 104.941Z" fill="#5E9AD2"/>
<path d="M368.501 245.499C354.181 245.499 325.536 232.649 294 212.499L301.502 212.998C303.129 213.667 303.978 217.38 305.501 218C332.113 228.83 344.672 229.506 379.327 237.46C377.226 239.446 371.076 243.961 368.501 245.499Z" fill="#4D8EC8"/>
<path d="M378.527 207.389C377.294 213.272 313.501 206 313.501 206L309.502 209.998L306.001 207.498L308.985 203.498C309.79 202.888 311.002 202.998 324.002 199.998C337.002 196.998 354.002 195.498 361.18 191.441C368.359 187.383 387.402 163.698 387.402 163.698C382.433 188.491 380.565 197.672 378.527 207.389Z" fill="#4D8EC8"/>
<path d="M313.501 178.998C320.547 179.632 329.22 177.164 337.501 168.998C337.501 187.998 323.001 194.498 306.001 197.498C299.698 195.98 299.819 176.259 297.002 171.498C300.51 172.571 306.456 178.363 313.501 178.998Z" fill="#4D8EC8"/>
<path d="M396.637 128.295L404.72 97.6328L375.659 104.565L367.472 123.209C372.922 138.755 389.242 131.971 396.637 128.295Z" fill="#FFCDB0"/>
<path d="M405.186 97.1178C412.59 81.2717 374.172 107.953 374.172 107.953L370.019 117.522C387.72 121.087 397.782 112.964 405.186 97.1178Z" fill="#E9B598"/>
<path d="M406.575 92.0569C407.291 107.51 349.689 145.587 366.701 68.5955C383.345 48.0861 408.594 63.3466 404.508 83.1596L405.066 81.8895C415.637 63.5691 422.017 92.6497 406.575 92.0569Z" fill="#FFCDB0"/>
<path d="M367.446 69.69C357.439 86.1209 332.212 55.324 356.552 54.309C366.159 50.3591 355.569 41.0121 353.232 48.0599C348.33 40.3371 362.23 29.1724 372.921 40.0452C377.696 46.8766 380.964 37.2655 386.077 35.9759C397.518 33.8275 413.118 40.8972 412.536 49.3465C430.606 55.9757 425.166 67.752 414.457 77.1831C408.914 75.1034 407.278 79.4156 404.161 84.5246C400.479 65.0627 398.708 61.7955 382.496 64.2766C381.259 72.649 372.192 71.695 367.903 69.884C367.738 69.8147 367.586 69.7502 367.446 69.69Z" fill="#5A5A5A"/>
<ellipse cx="389.565" cy="85.5785" rx="2.4191" ry="3.41929" transform="rotate(20.4359 389.565 85.5785)" fill="#383838"/>
<ellipse cx="377.394" cy="97.3814" rx="4.0564" ry="1.93908" transform="rotate(13.574 377.394 97.3814)" fill="#E9B598"/>
<ellipse cx="395.814" cy="94.0381" rx="4.81647" ry="3.10224" transform="rotate(-15.3172 395.814 94.0381)" fill="#FFB393"/>
<path d="M371.784 104.437C371.575 104.445 371.392 104.582 371.327 104.782C371.262 104.982 371.329 105.201 371.494 105.33C374.524 107.705 377.402 108.475 380.289 108.014C383.144 107.558 385.938 105.907 388.84 103.598C389.024 103.451 389.081 103.194 388.976 102.983C388.87 102.772 388.631 102.663 388.403 102.722C382.947 104.138 379.25 104.234 374.659 104.353C373.743 104.376 372.792 104.401 371.784 104.437Z" fill="white" stroke="#FFB393" stroke-linecap="round" stroke-linejoin="round"/>
<path d="M370.085 93.6547C369.247 95.1492 366.687 95.3065 364.367 94.0059C363.116 92.8527 363.681 89.9525 363.672 88.2145C363.667 87.0551 365.08 87.293 367.4 88.5936C369.721 89.8942 370.923 92.1601 370.085 93.6547Z" fill="#FFB393"/>
<ellipse cx="371.919" cy="83.7336" rx="2.30288" ry="3.34814" transform="rotate(1.82626 371.919 83.7336)" fill="#383838"/>
<path d="M371.338 77.2965C369.152 77.4878 363.986 77.9142 363.837 76.2161C363.689 74.518 368.763 73.0495 370.95 72.8582C373.137 72.667 374.996 73.5055 375.103 74.7311C375.21 75.9567 373.525 77.1053 371.338 77.2965Z" fill="#5A5A5A"/>
<path d="M391.046 79.2274C393.268 79.7109 398.658 81.4937 399.02 79.8281C399.383 78.1624 394.216 75.3575 391.993 74.874C389.771 74.3905 387.757 74.9731 387.496 76.1752C387.234 77.3774 388.824 78.7439 391.046 79.2274Z" fill="#5A5A5A"/>
<path d="M396.5 128.499C381.965 131.969 374.343 132.863 367.5 120.998L354.5 126.999L361 145.499L404.5 139.499L396.5 128.499Z" fill="#5E9AD2"/>
<path d="M311.5 209.999L287 202.499C289 208.499 291 212.999 307.501 218.499L311.5 209.999Z" fill="#FFCDB0"/>
<path d="M311.604 201.238L299.62 144.795C299.186 142.75 297.578 141.158 295.528 140.744L225.882 126.692C222.213 125.952 218.972 129.183 219.702 132.854L231.221 190.79C231.633 192.865 233.252 194.489 235.326 194.908L334.492 214.916C336.04 215.228 337.548 214.226 337.861 212.678C338.173 211.129 337.171 209.621 335.623 209.309L315.696 205.288C313.647 204.875 312.039 203.283 311.604 201.238Z" fill="#CECECE"/>
<g filter="url(#filter0_f)">
<path d="M255.437 172.756C258.537 176.691 263.797 177.477 267.186 174.512C269.003 172.921 269.913 170.575 269.889 168.134C264.493 170.228 259.443 162.844 262.308 158.614C260.066 158.174 257.752 158.693 255.96 160.261C252.571 163.227 252.337 168.821 255.437 172.756Z" fill="white"/>
</g>
<path d="M255.4 172.544C258.5 176.48 263.76 177.265 267.149 174.3C268.966 172.709 269.876 170.363 269.851 167.922C264.456 170.016 259.405 162.632 262.271 158.402C260.029 157.962 257.714 158.481 255.923 160.049C252.534 163.015 252.3 168.609 255.4 172.544Z" fill="white"/>
<path d="M317 278.995C289.5 276.499 259.51 291.849 246.5 309.499L262.5 313.119L393.389 278.995L375 262.998C354.758 251.725 324.222 266.749 317 278.995Z" fill="#CCE8FF" fill-opacity="0.8"/>
<path d="M147 327.217C142.5 325.217 122.414 322.213 114.5 328.999C112.562 325.735 93.0005 322.999 86.0005 328.499C80.0005 324.499 73.0005 325.499 71.0005 330.499C89 335.999 121.501 336.999 121.501 336.999C121.501 336.999 151.5 329.217 147 327.217Z" fill="#CCE8FF" fill-opacity="0.8"/>
<path d="M405 217.499C401.838 199.696 415.5 190.499 426.5 193.499L440.5 230.999L420.5 255.499L393.389 236.999C390.5 227.499 394.555 218.671 405 217.499Z" fill="#CCE8FF" fill-opacity="0.8"/>
<defs>
<filter id="filter0_f" x="250.558" y="155.765" width="22.0299" height="23.2433" filterUnits="userSpaceOnUse" color-interpolation-filters="sRGB">
<feFlood flood-opacity="0" result="BackgroundImageFix"/>
<feBlend mode="normal" in="SourceGraphic" in2="BackgroundImageFix" result="shape"/>
<feGaussianBlur stdDeviation="1.34947" result="effect1_foregroundBlur"/>
</filter>
</defs>
</svg>
